<?xml version="1.0" encoding="UTF-8" standalone="no"?>
<!DOCTYPE svg PUBLIC "-//W3C//DTD SVG 1.1//EN" "http://www.w3.org/Graphics/SVG/1.1/DTD/svg11.dtd">
<svg width="100%" height="100%" viewBox="0 0 4267 1067" version="1.1" xmlns="http://www.w3.org/2000/svg" xmlns:xlink="http://www.w3.org/1999/xlink" xml:space="preserve" xmlns:serif="http://www.serif.com/" style="fill-rule:evenodd;clip-rule:evenodd;stroke-linejoin:round;stroke-miterlimit:2;">
    <g transform="matrix(1.17481,0,0,0.663622,1073.75,-419.931)">
        <path d="M78.9,2250.78C78.9,2250.78 -939.863,2460.69 -924.679,2272.39C-914.532,2146.57 -888.911,2015.48 -832.776,1900.38C-815.564,1865.09 -782.653,1835.46 -767.673,1800.62C-736.713,1728.63 -783.152,1644.69 -760.239,1570.65C-751.481,1542.34 -725.602,1517.37 -710.203,1491.81C-591.438,1294.64 -473.651,1288.29 -325.224,1142.21C-267.141,1085.04 -199.359,955.742 -130.322,920.636C-64.572,887.202 21.839,935.728 87.616,901.51C120.156,884.582 148.545,850.427 178.333,828.629C210.467,805.116 373.216,675.257 393.62,668.695C464.506,645.898 575.992,664.122 649.413,669.685C827.085,683.148 1002.85,729.842 1148.83,829.988C1197.99,863.714 1237.88,910.331 1288.34,941.479C1331.81,968.311 1381.9,982.926 1427.44,1005.99C1473.31,1029.22 1504.9,1070.65 1555.28,1086.13C1737.94,1142.24 1914.76,938.04 1955.02,941.272C2196.01,960.626 2395.78,1469.78 2510.16,1642.88C2532.97,1677.4 2574.63,1708.53 2588.1,1746.96C2616.97,1829.3 2606.7,1922.42 2616.63,2007.72C2622.83,2060.91 2705.83,2273.91 2661.43,2304.14C2606.29,2341.68 2356.61,2298.64 2289.01,2290.96C1955.75,2253.1 1637.77,2259.59 1302.47,2258.32C894.612,2256.77 486.749,2254.29 78.9,2250.78" style="fill:rgb(128,212,228);"/>
    </g>
</svg>
