<?xml version="1.0" encoding="UTF-8" standalone="no"?>
<!DOCTYPE svg PUBLIC "-//W3C//DTD SVG 1.1//EN" "http://www.w3.org/Graphics/SVG/1.1/DTD/svg11.dtd">
<svg width="100%" height="100%" viewBox="0 0 4267 1067" version="1.1" xmlns="http://www.w3.org/2000/svg" xmlns:xlink="http://www.w3.org/1999/xlink" xml:space="preserve" xmlns:serif="http://www.serif.com/" style="fill-rule:evenodd;clip-rule:evenodd;stroke-linejoin:round;stroke-miterlimit:2;">
    <g transform="matrix(1.17481,0,0,0.558382,1137.6,-193.522)">
        <path d="M78.9,2250.78C78.9,2250.78 -794.786,2275.15 -946.154,2272.16C-946.154,2262.63 -866.785,2110.26 -855.575,2099.58C-838.158,2082.99 -818.929,1935.24 -814.815,1931.32C-788.763,1906.5 -772.33,1847.7 -760.467,1836.4C-704.666,1783.25 -687.294,1701.98 -633.657,1650.88C-620.801,1638.64 -614.07,1571.83 -574.78,1534.4C-539.312,1500.61 -486.519,1580.86 -466.44,1598.45C-465.922,1598.9 -460.351,1617.1 -453.872,1609.48C-426.766,1577.57 -424.664,1518.43 -396.11,1486.7C-380.031,1468.83 -358.165,1442.36 -335.272,1430.11C-317.435,1420.55 -294.777,1419.31 -277.803,1401.58C-235.794,1357.68 -181.594,1312.64 -139.58,1272.37C-136.164,1269.1 -137.628,1263.73 -130.531,1263.73C-115.867,1263.72 -106.325,1250.86 -99.299,1244.16C-45.509,1192.92 13.589,1171.14 54.685,1131.99C76.566,1111.15 93.232,1086.64 113.561,1067.28C119.6,1061.52 134.696,1064.4 140.735,1058.65C174.967,1026.04 224.306,1004.92 258.487,972.358C259.865,971.046 275.292,984.052 276.603,985.301C280.27,988.794 307.074,985.301 312.835,985.301L330.951,985.301C334.369,985.301 338.188,982.721 340.008,980.987C386.983,936.238 673.268,939.636 688.737,924.9C704.948,909.457 889.319,828.449 928.771,847.241C934.317,849.882 929.62,852.364 933.3,855.87C967.235,888.196 974.529,968.49 1010.29,1002.56C1026.26,1017.77 1033.41,1041.84 1051.05,1058.65C1069.92,1076.62 1095.59,1088.13 1114.46,1106.11C1123.52,1114.73 1150.69,1106.11 1159.75,1114.73C1201.51,1154.51 1384.63,1162.19 1472.25,1162.19C1492.13,1162.19 1542.01,1146.68 1558.3,1162.19C1571.68,1174.95 1579.2,1190.74 1594.53,1205.34C1617.76,1227.47 1658.6,1231.86 1685.11,1257.11C1725.82,1295.9 1759.87,1354.22 1798.33,1390.86C1824.8,1416.07 1858.51,1426.62 1884.38,1451.26C1939.81,1504.06 1996.79,1590 2078.73,1602.59C2138.27,1611.75 2185.35,1577.14 2240.74,1577.72C2242.22,1577.73 2243.77,1577.9 2244.92,1578.92C2330.46,1654.86 2372.83,1773.42 2433.65,1866.36C2455.32,1899.47 2493.03,1929.55 2509.82,1964.15C2534.48,2014.95 2525.93,2073.18 2568.08,2117.15C2597.25,2147.58 2631.47,2200.51 2631.47,2250.64C2364.64,2270.43 78.9,2250.78 78.9,2250.78" style="fill:rgb(112,207,225);"/>
    </g>
</svg>
