<?xml version="1.0" encoding="UTF-8" standalone="no"?>
<!DOCTYPE svg PUBLIC "-//W3C//DTD SVG 1.1//EN" "http://www.w3.org/Graphics/SVG/1.1/DTD/svg11.dtd">
<svg width="100%" height="100%" viewBox="0 0 4267 1067" version="1.1" xmlns="http://www.w3.org/2000/svg" xmlns:xlink="http://www.w3.org/1999/xlink" xml:space="preserve" xmlns:serif="http://www.serif.com/" style="fill-rule:evenodd;clip-rule:evenodd;stroke-linejoin:round;stroke-miterlimit:2;">
    <g transform="matrix(1.17481,0,0,0.713384,1137.6,-545.75)">
        <path d="M78.9,2250.78C78.9,2250.78 -794.786,2275.15 -946.154,2272.16C-946.154,2234.11 -840.968,2075.84 -822.065,2036.69C-796.453,1983.63 -806.459,1902.06 -790.263,1841.96C-780.253,1804.82 -657.937,1592.87 -637.199,1582.27C-601.001,1563.77 -555.892,1707.12 -525.269,1711.43C-483.294,1717.34 -456.38,1632.48 -423.494,1609.75C-394.814,1589.92 -357.08,1622.85 -330.31,1593.92C-303.625,1565.07 -281.115,1527.58 -253.247,1499.8C-186.094,1432.85 -140.814,1320.26 -86.793,1230.02C-59.19,1183.9 -24.632,1153.91 1.945,1105.2C130.386,869.823 157.954,827.634 323.888,990.049C495.876,1158.39 599.896,1335.71 807.91,1155.08C822.824,1142.12 845.091,1101.28 861.687,1101.78C900.999,1102.95 927.53,1154.69 962.368,1168.75C994.164,1181.58 1027.73,1161.4 1059.52,1174.23C1078.09,1181.72 1092.24,1208.44 1111.21,1218.44C1136.52,1231.79 1163.36,1235.72 1188.54,1249.51C1204.8,1258.41 1216.4,1278.68 1233.72,1286.53C1259.3,1298.13 1286.88,1300.45 1311.37,1318.14C1340.64,1339.29 1360.37,1380.53 1392.38,1398.02C1493.34,1453.18 1613.73,1422.68 1718.09,1416.3C1736.01,1415.2 1752.54,1396.19 1770.8,1398.29C1788.41,1400.31 1813.67,1431.13 1829.64,1442.7C1901.87,1495 2001.1,1585.31 2078.73,1602.59C2137.99,1615.79 2185.35,1577.14 2240.74,1577.72C2242.22,1577.73 2243.77,1577.9 2244.92,1578.92C2330.46,1654.86 2372.83,1773.42 2433.65,1866.36C2455.32,1899.47 2493.03,1929.55 2509.82,1964.15C2534.48,2014.95 2525.93,2073.18 2568.08,2117.15C2597.25,2147.58 2631.47,2200.51 2631.47,2250.64C2364.64,2270.43 78.9,2250.78 78.9,2250.78" style="fill:rgb(155,236,229);"/>
    </g>
</svg>
