<?xml version="1.0" encoding="UTF-8" standalone="no"?>
<!DOCTYPE svg PUBLIC "-//W3C//DTD SVG 1.1//EN" "http://www.w3.org/Graphics/SVG/1.1/DTD/svg11.dtd">
<svg width="100%" height="100%" viewBox="0 0 4552 1280" version="1.1" xmlns="http://www.w3.org/2000/svg" xmlns:xlink="http://www.w3.org/1999/xlink" xml:space="preserve" xmlns:serif="http://www.serif.com/" style="fill-rule:evenodd;clip-rule:evenodd;stroke-linecap:round;stroke-linejoin:round;stroke-miterlimit:1.5;">
    <g id="back1" transform="matrix(1,0,0,1,-158.277,-1467.59)">
        <g transform="matrix(-1.11971,0,0,0.450262,3416.21,1729.65)">
            <path d="M78.9,2250.78C78.9,2250.78 -1005.99,2281.03 -967.361,2269.98C-893.514,2248.86 -145.824,965.23 116.541,873.067C192.658,846.329 269.662,831.464 346.088,811.158C377.352,802.851 412.662,804.091 443.168,783.868C448.845,780.105 456.489,760.262 462.222,753.304C479.385,732.474 497.809,717.884 516.083,704.457C632.441,618.959 755.913,573.957 876.468,544.857C905.956,537.739 943.434,518.91 972.9,531.183C981.06,534.582 994.278,570.357 1002.29,581.232C1022.46,608.586 1047.49,629.351 1062.59,674.626C1088.03,750.937 1080.43,817.355 1119.96,880.767C1195.26,1001.58 1296.13,990.907 1380.88,1039.74C1490.39,1102.82 1581.65,1191.77 1696.99,1245.88C1816.18,1301.8 2536.85,2189.6 2655.81,2245.58C2715.03,2273.45 78.9,2250.78 78.9,2250.78" style="fill:rgb(102,184,128);"/>
        </g>
        <g transform="matrix(1,0,0,1,39.0463,433.622)">
            <path d="M2484.47,1450.08L2519.17,1383.45L2549.02,1452.16L2484.47,1450.08Z" style="fill:rgb(255,0,49);"/>
        </g>
        <g transform="matrix(0.415642,0,0,0.503349,1698.26,1250.22)">
            <path d="M2484.47,1450.08L2519.17,1383.45L2549.02,1452.16L2484.47,1450.08Z" style="fill:rgb(255,0,49);"/>
        </g>
        <g transform="matrix(0.569892,0,0,0.636364,927.185,917.955)">
            <path d="M2484.47,1450.08L2519.17,1383.45L2549.02,1452.16L2484.47,1450.08Z" style="fill:rgb(255,0,49);"/>
        </g>
        <g transform="matrix(0.954545,0,0,1,123.703,411.066)">
            <rect x="2316.69" y="1428.74" width="53.441" height="154.25" style="fill:white;"/>
        </g>
        <g transform="matrix(2.79545,0,0,0.598425,-4101.02,1068.61)">
            <rect x="2316.69" y="1428.74" width="53.441" height="154.25" style="fill:white;"/>
        </g>
        <g transform="matrix(2.953,0,0,0.174693,-4262.25,1778.76)">
            <rect x="2316.69" y="1428.74" width="53.441" height="154.25" style="fill:white;"/>
        </g>
        <g transform="matrix(2.953,0,0,0.174693,-4404.55,1799.44)">
            <rect x="2316.69" y="1428.74" width="53.441" height="154.25" style="fill:white;"/>
        </g>
        <g transform="matrix(2.0823,0,0,0.174693,-2477.44,1815.65)">
            <rect x="2316.69" y="1428.74" width="53.441" height="154.25" style="fill:white;"/>
        </g>
        <g transform="matrix(2.12244,0,0,0.174693,-2666.1,1793.95)">
            <rect x="2316.69" y="1428.74" width="53.441" height="154.25" style="fill:white;"/>
        </g>
        <g transform="matrix(1,0,0,1,83.2897,102.942)">
            <g transform="matrix(1,0,0,1,158.277,1467.59)">
                <ellipse cx="1819.03" cy="655.115" rx="41.092" ry="22.693" style="fill:rgb(237,26,56);"/>
            </g>
            <g transform="matrix(1.5346,0,0,0.26442,-1618.94,1741.79)">
                <rect x="2316.69" y="1428.74" width="53.441" height="154.25" style="fill:white;"/>
            </g>
            <g transform="matrix(1,0,0,1,158.277,1467.59)">
                <rect x="1788.93" y="661.085" width="9.966" height="16.866" style="fill:rgb(56,56,56);"/>
            </g>
            <g transform="matrix(1,0,0,1,158.277,1467.59)">
                <rect x="1842.6" y="673.735" width="10.35" height="13.416" style="fill:rgb(56,56,56);"/>
            </g>
        </g>
        <g transform="matrix(1.64053,0,0,1.84801,-970.032,-1553.37)">
            <g transform="matrix(1,0,0,1,158.277,1467.59)">
                <ellipse cx="1819.03" cy="655.115" rx="41.092" ry="22.693" style="fill:rgb(237,26,56);"/>
            </g>
            <g transform="matrix(1.5346,0,0,0.26442,-1618.94,1741.79)">
                <rect x="2316.69" y="1428.74" width="53.441" height="154.25" style="fill:white;"/>
            </g>
            <g transform="matrix(1,0,0,1,158.277,1467.59)">
                <rect x="1788.93" y="661.085" width="9.966" height="16.866" style="fill:rgb(56,56,56);"/>
            </g>
            <g transform="matrix(1,0,0,1,158.277,1467.59)">
                <rect x="1842.6" y="673.735" width="10.35" height="13.416" style="fill:rgb(56,56,56);"/>
            </g>
        </g>
        <g transform="matrix(1.64053,0,0,1.84801,-1367.76,-1347.19)">
            <g transform="matrix(1,0,0,1,158.277,1467.59)">
                <ellipse cx="1819.03" cy="655.115" rx="41.092" ry="22.693" style="fill:rgb(237,26,56);"/>
            </g>
            <g transform="matrix(1.5346,0,0,0.26442,-1618.94,1741.79)">
                <rect x="2316.69" y="1428.74" width="53.441" height="154.25" style="fill:white;"/>
            </g>
            <g transform="matrix(1,0,0,1,158.277,1467.59)">
                <rect x="1788.93" y="661.085" width="9.966" height="16.866" style="fill:rgb(56,56,56);"/>
            </g>
            <g transform="matrix(1,0,0,1,158.277,1467.59)">
                <rect x="1842.6" y="673.735" width="10.35" height="13.416" style="fill:rgb(56,56,56);"/>
            </g>
        </g>
        <g transform="matrix(1.64053,0,0,1.84801,-1410.17,-1629.4)">
            <g transform="matrix(1,0,0,1,158.277,1467.59)">
                <ellipse cx="1819.03" cy="655.115" rx="41.092" ry="22.693" style="fill:rgb(237,26,56);"/>
            </g>
            <g transform="matrix(1.5346,0,0,0.26442,-1618.94,1741.79)">
                <rect x="2316.69" y="1428.74" width="53.441" height="154.25" style="fill:white;"/>
            </g>
            <g transform="matrix(1,0,0,1,158.277,1467.59)">
                <rect x="1788.93" y="661.085" width="9.966" height="16.866" style="fill:rgb(56,56,56);"/>
            </g>
            <g transform="matrix(1,0,0,1,158.277,1467.59)">
                <rect x="1842.6" y="673.735" width="10.35" height="13.416" style="fill:rgb(56,56,56);"/>
            </g>
        </g>
        <g transform="matrix(1.64053,0,0,1.84801,306.26,-1512.31)">
            <g transform="matrix(1,0,0,1,158.277,1467.59)">
                <ellipse cx="1819.03" cy="655.115" rx="41.092" ry="22.693" style="fill:rgb(237,26,56);"/>
            </g>
            <g transform="matrix(1.5346,0,0,0.26442,-1618.94,1741.79)">
                <rect x="2316.69" y="1428.74" width="53.441" height="154.25" style="fill:white;"/>
            </g>
            <g transform="matrix(1,0,0,1,158.277,1467.59)">
                <rect x="1788.93" y="661.085" width="9.966" height="16.866" style="fill:rgb(56,56,56);"/>
            </g>
            <g transform="matrix(1,0,0,1,158.277,1467.59)">
                <rect x="1842.6" y="673.735" width="10.35" height="13.416" style="fill:rgb(56,56,56);"/>
            </g>
        </g>
        <g transform="matrix(1,0,0,1,329.956,121.659)">
            <g transform="matrix(1,0,0,1,158.277,1467.59)">
                <ellipse cx="1819.03" cy="655.115" rx="41.092" ry="22.693" style="fill:rgb(237,26,56);"/>
            </g>
            <g transform="matrix(1.5346,0,0,0.26442,-1618.94,1741.79)">
                <rect x="2316.69" y="1428.74" width="53.441" height="154.25" style="fill:white;"/>
            </g>
            <g transform="matrix(1,0,0,1,158.277,1467.59)">
                <rect x="1788.93" y="661.085" width="9.966" height="16.866" style="fill:rgb(56,56,56);"/>
            </g>
            <g transform="matrix(1,0,0,1,158.277,1467.59)">
                <rect x="1842.6" y="673.735" width="10.35" height="13.416" style="fill:rgb(56,56,56);"/>
            </g>
        </g>
        <g transform="matrix(1,0,0,1,158.277,1467.59)">
            <path d="M2714.51,1163.06C2718.44,1163.06 2782.3,1175.23 2788.77,1168.77C2803.99,1153.55 2848.39,1160.55 2863.02,1145.92C2864.75,1144.2 2877.45,1145.92 2880.16,1145.92C2964.29,1145.92 3046.77,1125.93 3128.62,1125.93C3139.13,1125.93 3176.91,1120.48 3182.89,1114.51C3183.64,1113.75 3190.28,1114.51 3191.46,1114.51C3213.15,1114.51 3280.33,1126.27 3288.56,1134.5C3301.7,1147.64 3512.91,1130.05 3519.89,1123.08C3525.6,1117.36 3528.46,1108.8 3534.17,1103.08C3534.93,1102.33 3534.17,1095.69 3534.17,1094.52C3534.17,1079.6 3519.64,1085.7 3511.32,1077.38C3481.67,1047.73 3380.9,1066.91 3368.53,1054.53C3359.71,1045.72 3377.09,1031.19 3377.09,1028.83" style="fill:none;stroke:rgb(163,205,134);stroke-width:14px;"/>
        </g>
        <g transform="matrix(1,0,0,1,470.921,168.381)">
            <g>
                <g transform="matrix(1.5346,0,0,0.26442,-1618.94,1741.79)">
                    <rect x="2316.69" y="1428.74" width="53.441" height="154.25" style="fill:white;"/>
                </g>
                <g transform="matrix(0.520175,0,0,0.182673,740.155,1832.83)">
                    <rect x="2316.69" y="1428.74" width="53.441" height="154.25" style="fill:white;"/>
                </g>
                <g transform="matrix(1,0,0,1,158.277,1467.59)">
                    <rect x="1788.93" y="661.085" width="9.966" height="16.866" style="fill:rgb(56,56,56);"/>
                </g>
                <g transform="matrix(1,0,0,1,169.058,1438.25)">
                    <rect x="1788.93" y="661.085" width="9.966" height="16.866" style="fill:rgb(56,56,56);"/>
                </g>
                <g transform="matrix(1,0,0,1,158.277,1467.59)">
                    <rect x="1842.6" y="673.735" width="10.35" height="13.416" style="fill:rgb(56,56,56);"/>
                </g>
            </g>
        </g>
        <g transform="matrix(1,0,0,1,144.138,142.222)">
            <g>
                <g transform="matrix(1.5346,0,0,0.26442,-1618.94,1741.79)">
                    <rect x="2316.69" y="1428.74" width="53.441" height="154.25" style="fill:white;"/>
                </g>
                <g transform="matrix(0.520175,0,0,0.182673,740.155,1832.83)">
                    <rect x="2316.69" y="1428.74" width="53.441" height="154.25" style="fill:white;"/>
                </g>
                <g transform="matrix(1,0,0,1,158.277,1467.59)">
                    <rect x="1788.93" y="661.085" width="9.966" height="16.866" style="fill:rgb(56,56,56);"/>
                </g>
                <g transform="matrix(1,0,0,1,169.058,1438.25)">
                    <rect x="1788.93" y="661.085" width="9.966" height="16.866" style="fill:rgb(56,56,56);"/>
                </g>
                <g transform="matrix(1,0,0,1,158.277,1467.59)">
                    <rect x="1842.6" y="673.735" width="10.35" height="13.416" style="fill:rgb(56,56,56);"/>
                </g>
            </g>
        </g>
        <g transform="matrix(1,0,0,1,834.319,7.69497)">
            <g>
                <g transform="matrix(1.5346,0,0,0.26442,-1618.94,1741.79)">
                    <rect x="2316.69" y="1428.74" width="53.441" height="154.25" style="fill:white;"/>
                </g>
                <g transform="matrix(0.520175,0,0,0.182673,740.155,1832.83)">
                    <rect x="2316.69" y="1428.74" width="53.441" height="154.25" style="fill:white;"/>
                </g>
                <g transform="matrix(1,0,0,1,158.277,1467.59)">
                    <rect x="1788.93" y="661.085" width="9.966" height="16.866" style="fill:rgb(56,56,56);"/>
                </g>
                <g transform="matrix(1,0,0,1,169.058,1438.25)">
                    <rect x="1788.93" y="661.085" width="9.966" height="16.866" style="fill:rgb(56,56,56);"/>
                </g>
                <g transform="matrix(1,0,0,1,158.277,1467.59)">
                    <rect x="1842.6" y="673.735" width="10.35" height="13.416" style="fill:rgb(56,56,56);"/>
                </g>
            </g>
        </g>
        <g transform="matrix(1,0,0,1,1056.58,89.5809)">
            <g>
                <g transform="matrix(1.5346,0,0,0.26442,-1618.94,1741.79)">
                    <rect x="2316.69" y="1428.74" width="53.441" height="154.25" style="fill:white;"/>
                </g>
                <g transform="matrix(0.520175,0,0,0.182673,740.155,1832.83)">
                    <rect x="2316.69" y="1428.74" width="53.441" height="154.25" style="fill:white;"/>
                </g>
                <g transform="matrix(1,0,0,1,158.277,1467.59)">
                    <rect x="1788.93" y="661.085" width="9.966" height="16.866" style="fill:rgb(56,56,56);"/>
                </g>
                <g transform="matrix(1,0,0,1,169.058,1438.25)">
                    <rect x="1788.93" y="661.085" width="9.966" height="16.866" style="fill:rgb(56,56,56);"/>
                </g>
                <g transform="matrix(1,0,0,1,158.277,1467.59)">
                    <rect x="1842.6" y="673.735" width="10.35" height="13.416" style="fill:rgb(56,56,56);"/>
                </g>
            </g>
        </g>
        <g transform="matrix(1.92716,0,0,2.03283,-921.416,-1865.35)">
            <g>
                <g transform="matrix(1.5346,0,0,0.26442,-1618.94,1741.79)">
                    <rect x="2316.69" y="1428.74" width="53.441" height="154.25" style="fill:white;"/>
                </g>
                <g transform="matrix(0.520175,0,0,0.182673,740.155,1832.83)">
                    <rect x="2316.69" y="1428.74" width="53.441" height="154.25" style="fill:white;"/>
                </g>
                <g transform="matrix(1,0,0,1,158.277,1467.59)">
                    <rect x="1788.93" y="661.085" width="9.966" height="16.866" style="fill:rgb(56,56,56);"/>
                </g>
                <g transform="matrix(1,0,0,1,169.058,1438.25)">
                    <rect x="1788.93" y="661.085" width="9.966" height="16.866" style="fill:rgb(56,56,56);"/>
                </g>
                <g transform="matrix(1,0,0,1,158.277,1467.59)">
                    <rect x="1842.6" y="673.735" width="10.35" height="13.416" style="fill:rgb(56,56,56);"/>
                </g>
            </g>
        </g>
        <g transform="matrix(1.92716,0,0,2.03283,-1673.01,-1678.18)">
            <g>
                <g transform="matrix(1.5346,0,0,0.26442,-1618.94,1741.79)">
                    <rect x="2316.69" y="1428.74" width="53.441" height="154.25" style="fill:white;"/>
                </g>
                <g transform="matrix(0.520175,0,0,0.182673,740.155,1832.83)">
                    <rect x="2316.69" y="1428.74" width="53.441" height="154.25" style="fill:white;"/>
                </g>
                <g transform="matrix(1,0,0,1,158.277,1467.59)">
                    <rect x="1788.93" y="661.085" width="9.966" height="16.866" style="fill:rgb(56,56,56);"/>
                </g>
                <g transform="matrix(1,0,0,1,169.058,1438.25)">
                    <rect x="1788.93" y="661.085" width="9.966" height="16.866" style="fill:rgb(56,56,56);"/>
                </g>
                <g transform="matrix(1,0,0,1,158.277,1467.59)">
                    <rect x="1842.6" y="673.735" width="10.35" height="13.416" style="fill:rgb(56,56,56);"/>
                </g>
            </g>
        </g>
        <g transform="matrix(1.92716,0,0,2.03283,-2060.51,-1960.4)">
            <g>
                <g transform="matrix(1.5346,0,0,0.26442,-1618.94,1741.79)">
                    <rect x="2316.69" y="1428.74" width="53.441" height="154.25" style="fill:white;"/>
                </g>
                <g transform="matrix(0.520175,0,0,0.182673,740.155,1832.83)">
                    <rect x="2316.69" y="1428.74" width="53.441" height="154.25" style="fill:white;"/>
                </g>
                <g transform="matrix(1,0,0,1,158.277,1467.59)">
                    <rect x="1788.93" y="661.085" width="9.966" height="16.866" style="fill:rgb(56,56,56);"/>
                </g>
                <g transform="matrix(1,0,0,1,169.058,1438.25)">
                    <rect x="1788.93" y="661.085" width="9.966" height="16.866" style="fill:rgb(56,56,56);"/>
                </g>
                <g transform="matrix(1,0,0,1,158.277,1467.59)">
                    <rect x="1842.6" y="673.735" width="10.35" height="13.416" style="fill:rgb(56,56,56);"/>
                </g>
            </g>
        </g>
        <g transform="matrix(1.92716,0,0,2.03283,-1276.74,-1853.65)">
            <g>
                <g transform="matrix(1.5346,0,0,0.26442,-1618.94,1741.79)">
                    <rect x="2316.69" y="1428.74" width="53.441" height="154.25" style="fill:white;"/>
                </g>
                <g transform="matrix(0.520175,0,0,0.182673,740.155,1832.83)">
                    <rect x="2316.69" y="1428.74" width="53.441" height="154.25" style="fill:white;"/>
                </g>
                <g transform="matrix(1,0,0,1,158.277,1467.59)">
                    <rect x="1788.93" y="661.085" width="9.966" height="16.866" style="fill:rgb(56,56,56);"/>
                </g>
                <g transform="matrix(1,0,0,1,169.058,1438.25)">
                    <rect x="1788.93" y="661.085" width="9.966" height="16.866" style="fill:rgb(56,56,56);"/>
                </g>
                <g transform="matrix(1,0,0,1,158.277,1467.59)">
                    <rect x="1842.6" y="673.735" width="10.35" height="13.416" style="fill:rgb(56,56,56);"/>
                </g>
            </g>
        </g>
        <g transform="matrix(0.730275,0,0,0.650297,790.246,779.995)">
            <g transform="matrix(1,0,0,1,158.277,1467.59)">
                <ellipse cx="1819.03" cy="655.115" rx="41.092" ry="22.693" style="fill:rgb(237,26,56);"/>
            </g>
            <g transform="matrix(1.5346,0,0,0.26442,-1618.94,1741.79)">
                <rect x="2316.69" y="1428.74" width="53.441" height="154.25" style="fill:white;"/>
            </g>
            <g transform="matrix(1,0,0,1,158.277,1467.59)">
                <rect x="1788.93" y="661.085" width="9.966" height="16.866" style="fill:rgb(56,56,56);"/>
            </g>
            <g transform="matrix(1,0,0,1,158.277,1467.59)">
                <rect x="1842.6" y="673.735" width="10.35" height="13.416" style="fill:rgb(56,56,56);"/>
            </g>
        </g>
        <g transform="matrix(1.21137,0,0,0.174693,-597.153,1780.85)">
            <rect x="2316.69" y="1428.74" width="53.441" height="154.25" style="fill:white;"/>
        </g>
        <g transform="matrix(2.79545,0,0,0.19079,-4098.69,1625.4)">
            <rect x="2316.69" y="1428.74" width="53.441" height="154.25" style="fill:rgb(237,26,56);"/>
        </g>
        <g transform="matrix(1.15909,0,0,0.771654,-160.693,778.608)">
            <rect x="2316.69" y="1428.74" width="53.441" height="154.25" style="fill:white;"/>
        </g>
        <g transform="matrix(1,0,0,1,39.0463,418.353)">
            <path d="M2285.52,1576.59C2285.52,1574.56 2286.34,1571.95 2287.42,1570.87C2288.15,1570.14 2290.13,1570.21 2290.76,1568.97C2291.09,1568.29 2290.6,1563.89 2291.23,1563.25C2292.16,1562.32 2296.45,1568.94 2296.95,1569.44C2298.38,1570.87 2303.14,1568.97 2304.57,1570.39C2305.12,1570.95 2304.49,1572.7 2305.04,1573.25C2306.29,1574.5 2307.32,1574.62 2309.33,1575.63C2312.68,1577.31 2313.62,1573.25 2314.57,1572.3C2314.97,1571.9 2316.55,1572.7 2316.95,1572.3C2319.39,1569.86 2323.45,1573.08 2324.57,1574.2C2326.28,1575.92 2331.15,1572.69 2331.24,1572.78C2332.59,1574.12 2329.89,1579.52 2331.24,1580.87C2332.03,1581.67 2333.3,1581.98 2334.1,1582.78C2335.3,1583.98 2332.85,1585.45 2332.67,1585.63C2331.13,1587.17 2333.86,1589.68 2334.1,1589.92C2335.45,1591.27 2332.55,1596.23 2332.19,1596.59C2331.69,1597.09 2330.29,1597.54 2330.29,1597.54C2330.29,1597.54 2332.46,1597.75 2333.15,1597.07C2333.44,1596.77 2335.35,1592.13 2336.48,1593.26C2336.81,1593.58 2333.74,1595.75 2334.58,1596.59C2335.61,1597.62 2339.77,1602.83 2342.67,1599.92C2344,1598.6 2343.1,1594.73 2344.58,1593.26C2344.88,1592.95 2347.92,1595.64 2348.86,1595.64C2355.18,1595.64 2365.6,1597.96 2369.34,1594.21C2369.89,1593.67 2372.8,1595.64 2374.11,1595.64L2383.63,1595.64C2384.16,1595.64 2386.63,1595.3 2386.97,1595.64C2387.82,1596.49 2392.07,1598.32 2394.59,1597.07C2396.6,1596.06 2397.29,1594.84 2398.4,1593.73C2398.89,1593.25 2398.3,1590.98 2398.87,1590.4C2399.67,1589.6 2401.89,1590.24 2402.68,1589.44C2403.4,1588.73 2404.43,1587.7 2405.07,1587.06C2405.4,1586.73 2407.87,1587.06 2408.4,1587.06C2409.37,1587.06 2410.58,1585.9 2411.26,1586.59C2412.12,1587.45 2413.99,1589.57 2415.54,1588.02C2416.18,1587.38 2418.72,1588.65 2419.36,1588.02C2420.62,1586.75 2422.85,1586.43 2424.12,1585.16C2425.15,1584.13 2424.04,1580.95 2425.07,1579.92C2425.47,1579.52 2425.95,1580.8 2426.02,1580.87C2426.28,1581.13 2431.96,1581.13 2432.22,1580.87C2433.41,1579.68 2436.27,1583.01 2437.93,1581.35C2438.88,1580.4 2439.36,1578.97 2440.31,1578.01C2441.03,1577.29 2440.71,1579.37 2440.79,1579.44C2441.34,1580 2442.14,1580.32 2442.69,1580.87C2443.96,1582.14 2448.57,1580.08 2449.84,1581.35C2450.63,1582.14 2451.43,1582.94 2452.22,1583.73C2453.12,1584.63 2451.64,1586.78 2453.17,1587.54C2455.74,1588.83 2460.24,1586.99 2462.22,1588.97C2463.41,1590.16 2461.51,1594.45 2462.7,1595.64C2464.89,1597.83 2466.49,1593.24 2467.46,1594.21C2468.02,1594.76 2467.86,1596.03 2468.41,1596.59C2471.28,1599.45 2474.56,1592.83 2475.08,1592.3C2475.79,1591.6 2476.41,1593.16 2476.51,1593.26C2476.91,1593.65 2478.49,1592.86 2478.89,1593.26C2479.17,1593.53 2481.16,1597.65 2483.18,1595.64C2484.45,1594.37 2486.19,1593.57 2487.47,1592.3C2488.58,1591.19 2487.31,1587.7 2488.42,1586.59C2488.89,1586.11 2490.8,1587.06 2491.28,1586.59C2492.71,1585.15 2496,1584.72 2497.47,1583.25C2498.02,1582.7 2500.24,1583.81 2500.8,1583.25C2502.07,1581.98 2503.82,1581.19 2505.09,1579.92C2505.33,1579.68 2504.85,1578.73 2505.09,1578.49C2505.63,1577.95 2512.39,1579.84 2514.14,1578.97C2516.32,1577.88 2514.49,1576.71 2516.04,1575.16C2516.51,1574.69 2517.29,1575.63 2517.95,1575.63L2523.66,1575.63C2527.19,1575.63 2527.74,1575.9 2529.38,1577.54C2531.05,1579.2 2537.71,1575.87 2539.38,1577.54C2540.58,1578.74 2541.66,1579.87 2543.67,1580.87C2544.34,1581.21 2549.6,1582.08 2550.34,1581.35C2550.69,1580.99 2549.86,1579.92 2549.86,1579.92C2549.86,1579.92 2551.3,1578.98 2551.76,1579.44C2552.52,1580.2 2553.19,1580.87 2554.14,1581.83C2555.1,1582.78 2553.46,1585.26 2552.72,1585.63C2549.13,1587.43 2547.72,1591.94 2544.14,1593.73C2539.73,1595.94 2531.99,1594.1 2527,1596.59C2523.05,1598.57 2518.07,1598.85 2515.09,1601.83C2513.61,1603.31 2508.8,1601.45 2507.47,1602.78C2506.52,1603.73 2503.66,1602.78 2502.71,1603.73C2501.53,1604.91 2499.39,1605.63 2497.47,1606.59C2495.22,1607.72 2492.5,1607.17 2489.85,1608.5C2488.84,1609 2486.36,1608.17 2485.56,1608.97C2483.57,1610.96 2477.65,1610.69 2475.56,1612.78C2474.43,1613.91 2469.92,1612.51 2468.41,1613.26C2464.97,1614.98 2461.88,1615.51 2459.36,1618.02C2459.11,1618.28 2453.43,1618.28 2453.17,1618.02C2452.09,1616.94 2449.51,1617.86 2447.93,1617.07C2442.82,1614.52 2436.05,1615.65 2430.31,1613.74C2423.23,1611.38 2413.21,1615.19 2406.49,1611.83C2403.84,1610.5 2399.72,1612.25 2396.97,1610.88C2395.83,1610.31 2393.9,1611.29 2392.68,1610.88C2389.12,1609.69 2385.6,1610.11 2382.2,1608.97C2379.52,1608.08 2376.16,1609.76 2373.63,1608.5C2371.7,1607.53 2368.34,1609.4 2366.96,1608.02C2366.43,1607.49 2363.05,1608.02 2362.2,1608.02C2357.49,1608.02 2352.11,1607.59 2348.39,1609.45C2346.88,1610.2 2341.58,1609.62 2340.29,1608.97C2337.75,1607.7 2333.3,1610.24 2330.76,1608.97C2326.8,1606.99 2320.22,1605.09 2317.43,1602.31C2314.56,1599.43 2308.08,1601.06 2305.52,1598.5C2303.17,1596.14 2299.42,1594.3 2296.95,1591.83C2295.78,1590.66 2292.17,1590.87 2290.28,1589.92C2287.68,1588.62 2285.47,1587.5 2283.61,1585.63C2282.34,1584.36 2275.99,1583.63 2275.99,1581.35" style="fill:rgb(103,184,127);"/>
        </g>
        <g transform="matrix(0.481767,0,0,0.388411,1615.24,1423.87)">
            <rect x="2316.69" y="1428.74" width="53.441" height="154.25" style="fill:white;"/>
        </g>
        <g transform="matrix(0.266868,0,0,0.319525,1952.15,1552.81)">
            <path d="M2484.47,1450.08L2519.17,1383.45L2549.02,1452.16L2484.47,1450.08Z" style="fill:rgb(255,0,49);"/>
        </g>
        <g transform="matrix(0.266868,0,0,0.319525,1820.45,1570.89)">
            <path d="M2484.47,1450.08L2519.17,1383.45L2549.02,1452.16L2484.47,1450.08Z" style="fill:rgb(255,0,49);"/>
        </g>
        <g transform="matrix(0.266868,0,0,0.319525,1684.41,1570)">
            <path d="M2484.47,1450.08L2519.17,1383.45L2549.02,1452.16L2484.47,1450.08Z" style="fill:rgb(255,0,49);"/>
        </g>
        <g transform="matrix(0.266868,0,0,0.319525,1587.82,1556.75)">
            <path d="M2484.47,1450.08L2519.17,1383.45L2549.02,1452.16L2484.47,1450.08Z" style="fill:rgb(255,0,49);"/>
        </g>
        <g transform="matrix(0.309324,0,0,0.246563,1898.85,1663.05)">
            <rect x="2316.69" y="1428.74" width="53.441" height="154.25" style="fill:white;"/>
        </g>
        <g transform="matrix(0.309324,0,0,0.246563,1767.14,1681.12)">
            <rect x="2316.69" y="1428.74" width="53.441" height="154.25" style="fill:white;"/>
        </g>
        <g transform="matrix(0.309324,0,0,0.246563,1631.1,1680.23)">
            <rect x="2316.69" y="1428.74" width="53.441" height="154.25" style="fill:white;"/>
        </g>
        <g transform="matrix(0.309324,0,0,0.246563,1534.51,1666.98)">
            <rect x="2316.69" y="1428.74" width="53.441" height="154.25" style="fill:white;"/>
        </g>
        <g transform="matrix(1,0,0,1,38.4509,414.483)">
            <path d="M2176.08,1645.53C2175.97,1639.54 2181.93,1638.78 2184.77,1635.84C2185.02,1635.58 2187.44,1632.39 2188.82,1633.72C2190.78,1635.62 2191.74,1638.56 2193.71,1640.45C2196.74,1643.38 2202.05,1633.1 2205.22,1636.16C2207.37,1638.24 2208.04,1641.92 2208.12,1646.33C2208.14,1647.42 2207.53,1652.47 2208.24,1653.15C2210.5,1655.33 2215.93,1655.22 2218.54,1657.74C2219.62,1658.78 2225.69,1657.27 2226.02,1656.92C2227.44,1655.45 2225.91,1650.79 2225.91,1650.79C2225.91,1650.79 2229.51,1652.09 2231.39,1652.06C2235.47,1651.99 2239.56,1651.92 2243.65,1651.85C2244.75,1651.83 2249.84,1653.76 2251.16,1652.4C2252.21,1651.3 2252.79,1648.63 2253.8,1647.58C2254.32,1647.04 2255.02,1650.77 2255.22,1650.96C2256.15,1651.86 2258.16,1651.59 2260,1651.56C2268.21,1651.42 2275.94,1648.2 2281.15,1653.24C2281.6,1653.66 2295.13,1647.31 2298.14,1650.21C2300.23,1652.23 2292.54,1660.21 2296.33,1663.87C2300.71,1668.1 2303.72,1672.35 2308.14,1676.62C2309.06,1677.51 2308.65,1679.79 2309.57,1680.68C2311.03,1682.09 2317.25,1682.43 2318.44,1681.21C2320.3,1679.28 2315.91,1675.5 2317.63,1673.72C2320.45,1670.8 2324.08,1675.94 2324.49,1676.33C2327.59,1679.32 2341.44,1673.34 2342.14,1672.62C2342.87,1671.86 2345.99,1674.99 2346.28,1675.27C2347.03,1675.99 2357.6,1677.12 2359.94,1677.07C2364.11,1677 2365.6,1675.84 2368.74,1674.19C2370.21,1673.43 2371.88,1675.5 2373.54,1675.47C2379.04,1675.38 2380.48,1674.53 2387.11,1672.51C2388.25,1672.17 2390.02,1675.32 2390.58,1675.86C2393.59,1678.77 2400.88,1673.52 2401.43,1672.94C2402.21,1672.14 2406.27,1673.6 2406.91,1674.21C2407.18,1674.47 2405.92,1677.31 2406.94,1676.25C2410.76,1672.3 2417.41,1670.96 2419.09,1669.23C2419.73,1668.56 2420.37,1668.38 2420.98,1668.5C2421.08,1670.07 2421.02,1667.49 2421.5,1667.1C2422.57,1666.24 2423.65,1664.04 2424.82,1662.73C2425.94,1661.46 2426.14,1660.81 2425.43,1659.15C2425.16,1658.52 2423.93,1656.72 2424.55,1656.03C2425.12,1655.39 2426.66,1656.18 2427.4,1655.96C2428.57,1655.62 2429,1654.82 2429.9,1654.27C2430.35,1653.99 2430.86,1654.87 2431.01,1655.17C2431.55,1656.26 2431.06,1658.93 2432.12,1659.66C2433.02,1660.29 2437.95,1659.55 2438.26,1658.3C2438.41,1657.67 2438.28,1654.55 2439.49,1654.53C2440.76,1654.51 2441.2,1657.51 2441.94,1658.1C2442.51,1658.56 2443.39,1657.95 2444.04,1658.13C2444.51,1658.26 2444.96,1659.08 2445.47,1658.55C2447.39,1656.56 2450.93,1654.28 2452.86,1652.28C2453.28,1651.86 2457.4,1655.61 2459.73,1655.57C2460.92,1655.55 2476.74,1651.23 2478.77,1653.19C2480.16,1654.53 2480.88,1656.56 2482.26,1657.9C2484.05,1659.63 2498.7,1654.75 2499.23,1654.2C2499.29,1654.14 2503.11,1651.92 2503.28,1652.09C2504.56,1653.31 2504.82,1655.58 2506.09,1656.81C2510.81,1661.36 2515.67,1650.58 2519.65,1652.48C2522.92,1654.05 2523.57,1660.91 2527.22,1657.12C2528.51,1655.79 2531.14,1655.14 2532.61,1653.62C2533.59,1652.6 2541.04,1656.4 2541.53,1656.87C2541.86,1657.18 2542.57,1656.53 2542.89,1656.85C2544.16,1658.07 2544.43,1660.34 2545.7,1661.57C2547.56,1663.37 2550.36,1655.35 2550.36,1655.35C2550.36,1655.35 2555.47,1660.47 2557.23,1658.64C2557.72,1658.13 2556.88,1656.34 2557.04,1655.52C2558.68,1655.52 2560.61,1656.85 2561.51,1657.75C2561.94,1658.18 2563.68,1657.32 2564.11,1657.75C2564.51,1658.14 2564.31,1659.15 2564.86,1659.24C2565.36,1659.33 2564.49,1658.26 2564.49,1657.75C2564.49,1656.77 2564.12,1655.47 2564.12,1654.03C2564.13,1651.54 2563.29,1646.86 2561.91,1645.48C2560.8,1644.36 2560.06,1642.87 2558.95,1641.76C2557.09,1639.88 2561.23,1636.57 2561.58,1636.92C2562.27,1637.61 2562.77,1638.48 2563.46,1639.16C2563.57,1639.27 2563.35,1640.63 2563.46,1640.65C2564.32,1640.8 2563.47,1638.91 2563.47,1638.05C2563.48,1636.18 2563.31,1634.15 2564.24,1633.21C2565.27,1632.18 2568.41,1635.52 2568.7,1635.82C2570.37,1637.49 2566.5,1639.57 2568.33,1641.4C2571.72,1644.78 2576.39,1645.22 2579.12,1650.7C2576.63,1646.61 2573.04,1641.58 2577.3,1637.16C2578.15,1636.29 2588.52,1642.19 2591.64,1638.96C2593.01,1637.55 2597.74,1638.19 2599.1,1636.78C2599.65,1636.21 2602.77,1632.12 2603.8,1632.61C2606.38,1633.85 2612.31,1638.48 2617.48,1635.78C2618.82,1635.08 2632.22,1633.27 2632.43,1633.48C2634.59,1635.56 2634.36,1638.45 2638,1640.19C2644.53,1643.32 2650,1635.89 2656.33,1635.78C2663.23,1635.66 2673.53,1639.47 2678.78,1634.03C2678.9,1633.91 2682.65,1635.75 2682.91,1636C2684.15,1637.2 2693.32,1635.62 2693.79,1635.13C2694.47,1634.43 2697.29,1637.05 2698.58,1635.73C2700.48,1633.75 2694.37,1633.14 2696.45,1631C2697.5,1629.9 2701.55,1630.57 2702.55,1629.53C2703.89,1628.14 2701.77,1623.41 2703.11,1622.02C2705.89,1619.14 2710.12,1621.69 2711.26,1620.52C2713.56,1618.13 2714.55,1615.69 2719.35,1615.6C2720.3,1615.59 2720.44,1618.67 2720.77,1618.99C2723.77,1621.89 2724.77,1626.87 2727.77,1629.77C2728.72,1630.68 2727.56,1636.93 2727.22,1637.27C2722.89,1641.76 2719.46,1648.57 2715.96,1655.87C2710.09,1668.14 2697.12,1673.59 2682.27,1677.58C2668.19,1681.36 2653.49,1685.17 2638.84,1687.88C2626.74,1690.11 2614.14,1689.7 2602.11,1691.93C2595.9,1693.07 2589.25,1691.8 2583.05,1692.94C2568.39,1695.65 2554.2,1699.41 2541.7,1705.93C2538.59,1707.56 2533.77,1706.98 2530.17,1708.86C2527.45,1710.28 2519.57,1709.04 2516.55,1709.1C2503.43,1709.32 2490.77,1707.5 2477.68,1707.73C2466.5,1707.92 2459.53,1712.13 2448.46,1712.33C2446.1,1712.37 2441.03,1713.5 2438.92,1712.49C2429.19,1707.84 2400.54,1703.42 2387.73,1707.94C2384.95,1708.92 2378.55,1707.74 2376.86,1709.49C2375.89,1710.49 2372.01,1708.93 2370.73,1709.6C2365.98,1712.07 2358.82,1710.31 2354.42,1712.61C2351.92,1713.91 2347.57,1711.83 2344.89,1712.77C2336.3,1715.8 2324.4,1713.15 2316.35,1717.36C2312.7,1719.26 2296.93,1718.38 2291.83,1718.47C2269.04,1718.87 2256.01,1713.49 2238.45,1705.09C2234.33,1703.12 2221.66,1700.93 2219.95,1699.28C2218.21,1697.61 2217.48,1694.89 2215.75,1693.22C2211.77,1689.37 2206.11,1686.59 2201.94,1682.56C2200.41,1681.09 2189.75,1680.05 2194.39,1679.96" style="fill:rgb(103,184,127);"/>
        </g>
        <g transform="matrix(1.39958,0,0,1.39958,-1138.9,-267.905)">
            <path d="M2428.34,2198.4C2428.34,2169.76 2493.93,2153.19 2509.89,2137.24C2514.21,2132.91 2527.8,2137.86 2532.13,2133.53C2547.66,2118 2625.56,2103.5 2659.58,2103.5C2679.76,2103.5 2700.05,2101.82 2712.01,2089.63C2714.43,2087.16 2722.18,2087.11 2724.61,2084.62C2727.21,2081.96 2740.55,2082.04 2744,2078.47C2745.71,2076.71 2758.6,2077.28 2761.44,2077.23C2773.05,2077.04 2786.85,2074.86 2800.24,2074.86C2804.03,2074.86 2816.27,2076.32 2818.7,2073.89C2821.56,2071.02 2864.77,2059.88 2868.26,2056.4C2871.73,2052.92 2880.63,2052.76 2883.8,2049.6C2893.91,2039.49 2911.81,2034.22 2921.7,2024.33C2925.61,2020.42 2938.58,2017.16 2943.07,2012.67C2946.71,2009.03 2953.13,2010.39 2956.68,2006.84C2966.73,1996.79 2986.14,1992.93 2997.49,1981.58C3004.41,1974.65 3016.92,1975.25 3016.92,1962.15C3027.26,1955.7 3038.19,1950.17 3048.47,1943.62C3058.98,1936.93 3067.62,1928.04 3077.61,1920.65C3091.69,1910.25 3107.17,1901.34 3119.62,1888.9C3127.78,1880.74 3160.09,1840.41 3141.86,1822.18C3135.99,1816.31 3132.9,1807.66 3127.03,1801.79C3114.53,1789.29 3096.02,1781.9 3082.55,1768.43C3071.02,1756.9 3048.08,1758.06 3036.22,1746.19C3031.69,1741.66 2942.26,1730.08 2919.46,1707.28C2907.04,1694.86 2837.45,1686.42 2821.24,1670.21C2818.77,1667.74 2810.74,1670.83 2808.26,1668.36C2804,1664.09 2787.52,1657.24 2780.47,1657.24C2777.32,1657.24 2771.2,1655.38 2771.2,1655.38L2778.61,1655.38C2786.2,1655.38 2810.8,1652.35 2815.68,1657.24C2827.24,1668.8 2904.3,1677.29 2908.34,1681.33C2913.52,1686.51 2961.68,1690.19 2967.65,1696.16C2972.28,1700.79 2983.4,1698.94 2988.03,1703.57C2993.69,1709.23 3006.83,1709.39 3012.13,1714.69C3039.43,1742 3089.47,1740.14 3114.06,1764.73L3117.76,1764.73C3137.39,1764.73 3159.63,1799.18 3173.36,1812.91C3177.99,1817.55 3172.43,1832.37 3177.07,1837.01C3177.44,1837.38 3181.32,1842.02 3178.92,1844.42C3170.02,1853.32 3162.36,1860.98 3154.83,1868.51C3148.61,1874.73 3139.12,1902.75 3130.74,1911.14C3108.34,1933.54 3077.4,1951.5 3052.9,1976C3044.28,1984.62 3038.24,1994.37 3028.81,2003.8C3018.85,2013.75 3000.91,2013.16 2991.74,2022.33C2980.39,2033.69 2964.4,2037.67 2950.84,2045.44C2944.78,2048.91 2941.51,2055.69 2935.71,2059.15C2932.32,2061.18 2928.09,2060.96 2924.44,2062.26C2914.38,2065.88 2904.2,2071.44 2894.29,2075.52C2889.96,2077.3 2885.07,2076.9 2880.73,2078.64C2867.2,2084.09 2853.45,2092.79 2839.38,2097.23C2819.8,2103.39 2797.2,2103.35 2776.68,2109.42C2765.74,2112.66 2754.6,2119.29 2744.11,2123.8C2708.49,2139.14 2671.91,2133.16 2636.07,2141.53C2630.6,2142.81 2625.95,2147.18 2620.61,2149.24C2591.37,2160.53 2584.51,2165.02 2561.76,2187.02C2554.19,2194.34 2535.68,2202.88 2532.61,2213.25" style="fill:rgb(224,227,140);fill-opacity:0.5;stroke:rgb(166,193,115);stroke-width:8.33px;"/>
        </g>
        <g transform="matrix(0.730275,0,0,0.650297,929.393,753.801)">
            <g transform="matrix(1,0,0,1,158.277,1467.59)">
                <ellipse cx="1819.03" cy="655.115" rx="41.092" ry="22.693" style="fill:rgb(237,26,56);"/>
            </g>
            <g transform="matrix(1.5346,0,0,0.26442,-1618.94,1741.79)">
                <rect x="2316.69" y="1428.74" width="53.441" height="154.25" style="fill:white;"/>
            </g>
            <g transform="matrix(1,0,0,1,158.277,1467.59)">
                <rect x="1788.93" y="661.085" width="9.966" height="16.866" style="fill:rgb(56,56,56);"/>
            </g>
            <g transform="matrix(1,0,0,1,158.277,1467.59)">
                <rect x="1842.6" y="673.735" width="10.35" height="13.416" style="fill:rgb(56,56,56);"/>
            </g>
        </g>
        <g transform="matrix(0.730275,0,0,0.650297,1211.61,737.716)">
            <g transform="matrix(1,0,0,1,158.277,1467.59)">
                <ellipse cx="1819.03" cy="655.115" rx="41.092" ry="22.693" style="fill:rgb(237,26,56);"/>
            </g>
            <g transform="matrix(1.5346,0,0,0.26442,-1618.94,1741.79)">
                <rect x="2316.69" y="1428.74" width="53.441" height="154.25" style="fill:white;"/>
            </g>
            <g transform="matrix(1,0,0,1,158.277,1467.59)">
                <rect x="1788.93" y="661.085" width="9.966" height="16.866" style="fill:rgb(56,56,56);"/>
            </g>
            <g transform="matrix(1,0,0,1,158.277,1467.59)">
                <rect x="1842.6" y="673.735" width="10.35" height="13.416" style="fill:rgb(56,56,56);"/>
            </g>
        </g>
        <g transform="matrix(0.730275,0,0,0.650297,1118.02,790.357)">
            <g transform="matrix(1,0,0,1,158.277,1467.59)">
                <ellipse cx="1819.03" cy="655.115" rx="41.092" ry="22.693" style="fill:rgb(237,26,56);"/>
            </g>
            <g transform="matrix(1.5346,0,0,0.26442,-1618.94,1741.79)">
                <rect x="2316.69" y="1428.74" width="53.441" height="154.25" style="fill:white;"/>
            </g>
            <g transform="matrix(1,0,0,1,158.277,1467.59)">
                <rect x="1788.93" y="661.085" width="9.966" height="16.866" style="fill:rgb(56,56,56);"/>
            </g>
            <g transform="matrix(1,0,0,1,158.277,1467.59)">
                <rect x="1842.6" y="673.735" width="10.35" height="13.416" style="fill:rgb(56,56,56);"/>
            </g>
        </g>
        <g transform="matrix(0.730275,0,0,0.650297,1423.63,810.829)">
            <g transform="matrix(1,0,0,1,158.277,1467.59)">
                <ellipse cx="1819.03" cy="655.115" rx="41.092" ry="22.693" style="fill:rgb(237,26,56);"/>
            </g>
            <g transform="matrix(1.5346,0,0,0.26442,-1618.94,1741.79)">
                <rect x="2316.69" y="1428.74" width="53.441" height="154.25" style="fill:white;"/>
            </g>
            <g transform="matrix(1,0,0,1,158.277,1467.59)">
                <rect x="1788.93" y="661.085" width="9.966" height="16.866" style="fill:rgb(56,56,56);"/>
            </g>
            <g transform="matrix(1,0,0,1,158.277,1467.59)">
                <rect x="1842.6" y="673.735" width="10.35" height="13.416" style="fill:rgb(56,56,56);"/>
            </g>
        </g>
        <g transform="matrix(1,0,0,1,556.02,86.8722)">
            <g transform="matrix(1,0,0,1,158.277,1467.59)">
                <ellipse cx="1819.03" cy="655.115" rx="41.092" ry="22.693" style="fill:rgb(237,26,56);"/>
            </g>
            <g transform="matrix(1.5346,0,0,0.26442,-1618.94,1741.79)">
                <rect x="2316.69" y="1428.74" width="53.441" height="154.25" style="fill:white;"/>
            </g>
            <g transform="matrix(1,0,0,1,158.277,1467.59)">
                <rect x="1788.93" y="661.085" width="9.966" height="16.866" style="fill:rgb(56,56,56);"/>
            </g>
            <g transform="matrix(1,0,0,1,158.277,1467.59)">
                <rect x="1842.6" y="673.735" width="10.35" height="13.416" style="fill:rgb(56,56,56);"/>
            </g>
        </g>
        <g transform="matrix(1,0,0,1,158.277,1467.59)">
            <path d="M1374.79,936.744C1374.79,943.925 1355.72,965.652 1365.65,975.585C1415.83,1025.76 1436.15,1037.27 1525.58,1037.27C1533.63,1037.27 1606.94,1038.17 1607.84,1037.27C1617.13,1027.97 1644.36,1032.74 1653.53,1023.57C1669.24,1007.85 1691.1,1002.5 1712.93,991.578C1721.28,987.407 1747.94,995.417 1754.06,989.294C1763.23,980.122 1813.63,987.009 1829.46,987.009C1875.23,987.009 2028.73,1010.35 2048.79,1030.42C2057.95,1039.58 2165.63,1049.01 2190.45,1073.83C2196.07,1079.45 2213.12,1078.22 2217.87,1082.97C2242.13,1107.23 2284.97,1101.67 2320.68,1119.53C2331.36,1124.87 2389.77,1117.78 2393.79,1121.81C2426.88,1154.89 2562.45,1113.61 2610.85,1137.8C2615.18,1139.97 2628.11,1134.51 2631.41,1137.8C2640.63,1147.02 2649.81,1151.64 2661.11,1162.94C2665.45,1167.27 2679.39,1170.06 2679.39,1178.93" style="fill:none;stroke:rgb(163,205,134);stroke-width:14px;"/>
        </g>
        <g transform="matrix(1,0,0,1,158.277,1467.59)">
            <path d="M1892.06,834.387C1898.63,836.873 1900.51,850.152 1904.85,854.493C1908.57,858.208 1921.24,859.03 1926.79,861.804C1948.8,872.812 2033.78,856.32 2056.56,856.32C2084.25,856.32 2105.34,850.837 2131.5,850.837L2135.16,850.837C2146.87,862.547 2200.68,857.868 2206.44,863.632C2219.47,876.661 2245.46,875.831 2264.93,885.565C2273.62,889.911 2318.26,884.055 2323.42,889.221C2332.96,898.762 2405.43,894.58 2423.95,903.844C2438.09,910.911 2462.82,896.776 2476.96,903.844C2483.51,907.118 2521.05,909.548 2522.65,911.155C2547.25,935.753 2668.3,910.532 2692.64,898.36C2708.27,890.546 2740.03,896.664 2751.13,885.565C2752.98,883.713 2766.5,885.565 2769.41,885.565C2788.57,885.565 2852.85,884.971 2866.28,878.254C2878.01,872.389 2897.87,881.91 2906.49,881.91C2908.52,881.91 2918,880.617 2919.29,881.91C2928.58,891.202 2945.66,897.309 2955.85,907.499C2964.86,916.517 2987,907.578 2996.06,916.638C3006.04,926.619 3039.95,945.883 3056.38,945.883" style="fill:none;stroke:rgb(163,205,134);stroke-width:14px;"/>
        </g>
        <g transform="matrix(1,0,0,1,158.277,1467.59)">
            <path d="M1685.52,1262.09C1695.98,1272.56 1763.89,1267.69 1778.74,1260.27C1814.19,1242.54 1816.3,1209.91 1840.88,1185.33C1844.53,1181.67 1843.46,1175.44 1846.36,1172.53C1849.43,1169.47 1857.47,1164.94 1860.99,1157.91C1875.59,1128.71 1903.82,1102.28 1926.79,1079.31C1935.26,1070.84 1939.43,1020.97 1950.55,1009.86C1982.09,978.319 1995.39,926.628 2023.66,898.36C2030.83,891.189 2031.33,872.416 2038.28,865.46C2048.44,855.308 2040.4,821.301 2049.25,812.453C2058.09,803.619 2060.52,788.387 2069.36,779.552C2077.67,771.238 2085.47,763.44 2093.12,755.791C2101.16,747.754 2123.5,743.691 2129.68,737.513C2133.61,733.582 2176.95,706.44 2180.85,706.44" style="fill:none;stroke:rgb(163,205,134);stroke-width:14px;"/>
        </g>
        <g transform="matrix(1,0,0,1,158.277,1467.59)">
            <path d="M2420.3,646.122C2436.17,654.061 2449.13,672.421 2465.99,680.851C2477.76,686.736 2495.71,688.637 2504.38,697.301C2507.14,700.06 2514.29,701.728 2517.17,704.612C2528.37,715.812 2500.12,728.97 2498.89,730.202C2489.01,740.081 2481.75,752.824 2471.47,763.102C2465.16,769.42 2452.65,770.962 2445.89,777.725C2435.59,788.024 2453.38,810.812 2456.85,814.281C2472.46,829.887 2535.45,825.254 2540.93,830.731C2549.37,839.165 2583.39,843.949 2588.45,849.009C2594.88,855.435 2598.19,867.881 2604.91,874.599C2613.54,883.23 2629.91,883.152 2637.81,891.049C2642.17,895.409 2683.89,889.614 2687.16,892.877C2699.69,905.41 2782.42,905.889 2785.86,909.327C2803.56,927.027 2856.97,936.566 2860.8,940.4C2862.93,942.532 2860.49,949.234 2862.63,951.367C2887.05,975.79 2870.07,1037.41 2879.08,1046.41C2882.47,1049.8 2891.87,1072.3 2891.87,1079.31" style="fill:none;stroke:rgb(163,205,134);stroke-width:14px;"/>
        </g>
        <g transform="matrix(1,0,0,1,667.623,189.014)">
            <g>
                <g transform="matrix(1.5346,0,0,0.26442,-1618.94,1741.79)">
                    <rect x="2316.69" y="1428.74" width="53.441" height="154.25" style="fill:white;"/>
                </g>
                <g transform="matrix(0.520175,0,0,0.182673,740.155,1832.83)">
                    <rect x="2316.69" y="1428.74" width="53.441" height="154.25" style="fill:white;"/>
                </g>
                <g transform="matrix(1,0,0,1,158.277,1467.59)">
                    <rect x="1788.93" y="661.085" width="9.966" height="16.866" style="fill:rgb(56,56,56);"/>
                </g>
                <g transform="matrix(1,0,0,1,169.058,1438.25)">
                    <rect x="1788.93" y="661.085" width="9.966" height="16.866" style="fill:rgb(56,56,56);"/>
                </g>
                <g transform="matrix(1,0,0,1,158.277,1467.59)">
                    <rect x="1842.6" y="673.735" width="10.35" height="13.416" style="fill:rgb(56,56,56);"/>
                </g>
            </g>
        </g>
        <g transform="matrix(1,0,0,1,714.166,70.2499)">
            <g>
                <g transform="matrix(1.5346,0,0,0.26442,-1618.94,1741.79)">
                    <rect x="2316.69" y="1428.74" width="53.441" height="154.25" style="fill:white;"/>
                </g>
                <g transform="matrix(0.520175,0,0,0.182673,740.155,1832.83)">
                    <rect x="2316.69" y="1428.74" width="53.441" height="154.25" style="fill:white;"/>
                </g>
                <g transform="matrix(1,0,0,1,158.277,1467.59)">
                    <rect x="1788.93" y="661.085" width="9.966" height="16.866" style="fill:rgb(56,56,56);"/>
                </g>
                <g transform="matrix(1,0,0,1,169.058,1438.25)">
                    <rect x="1788.93" y="661.085" width="9.966" height="16.866" style="fill:rgb(56,56,56);"/>
                </g>
                <g transform="matrix(1,0,0,1,158.277,1467.59)">
                    <rect x="1842.6" y="673.735" width="10.35" height="13.416" style="fill:rgb(56,56,56);"/>
                </g>
            </g>
        </g>
        <g transform="matrix(1,0,0,1,757.81,123.063)">
            <g transform="matrix(1,0,0,1,158.277,1467.59)">
                <ellipse cx="1819.03" cy="655.115" rx="41.092" ry="22.693" style="fill:rgb(237,26,56);"/>
            </g>
            <g transform="matrix(1.5346,0,0,0.26442,-1618.94,1741.79)">
                <rect x="2316.69" y="1428.74" width="53.441" height="154.25" style="fill:white;"/>
            </g>
            <g transform="matrix(1,0,0,1,158.277,1467.59)">
                <rect x="1788.93" y="661.085" width="9.966" height="16.866" style="fill:rgb(56,56,56);"/>
            </g>
            <g transform="matrix(1,0,0,1,158.277,1467.59)">
                <rect x="1842.6" y="673.735" width="10.35" height="13.416" style="fill:rgb(56,56,56);"/>
            </g>
        </g>
    </g>
</svg>
