<?xml version="1.0" encoding="UTF-8" standalone="no"?>
<!DOCTYPE svg PUBLIC "-//W3C//DTD SVG 1.1//EN" "http://www.w3.org/Graphics/SVG/1.1/DTD/svg11.dtd">
<svg width="100%" height="100%" viewBox="0 0 4267 1067" version="1.1" xmlns="http://www.w3.org/2000/svg" xmlns:xlink="http://www.w3.org/1999/xlink" xml:space="preserve" xmlns:serif="http://www.serif.com/" style="fill-rule:evenodd;clip-rule:evenodd;stroke-linejoin:round;stroke-miterlimit:2;">
    <g transform="matrix(1.17481,0,0,0.713384,1137.6,-545.75)">
        <path d="M78.9,2250.78C78.9,2250.78 -794.786,2275.15 -946.154,2272.16C-946.154,2254.88 -861.889,2089.75 -848.575,2053.88C-836.52,2021.41 -826.085,1982.77 -808.959,1956.41C-789.641,1926.69 -755.282,1921.25 -732.257,1900.79C-683.04,1857.05 -633.942,1805.78 -590.2,1746.79C-557.876,1703.2 -561.943,1635.91 -538.841,1583.9C-526.996,1557.24 -503.006,1559.72 -486.58,1545.73C-448.083,1512.94 -451.024,1466.88 -397.368,1440.89C-346.099,1416.07 -300.682,1508.56 -264.036,1545.91C-254.979,1555.14 -127.125,1563.53 -115.095,1558.79C-105.649,1555.07 -96.915,1536.73 -88.028,1529.01C-64.325,1508.44 -37.527,1500.39 -13.408,1481.39C-2.921,1473.13 6.125,1455.2 16.331,1448.53C33.296,1437.42 57.986,1442.84 72.193,1421.8C94.926,1388.13 105.36,1336.63 131.897,1309.03C191.738,1246.78 262.847,1236.19 324.601,1184.35C374.629,1142.36 423.319,1088.33 473.566,1047.61C494.789,1030.41 519.863,1026 540.469,1007.95C551.667,998.134 553.367,967.757 565.638,959.931C578.066,952.006 592.399,965.565 604.826,957.64C619.94,948.001 628.844,931.14 646.474,927.1C770.877,898.591 980.538,1123.93 1089.86,1220.38C1120.9,1247.76 1187.47,1157.55 1202.62,1168.81C1221.38,1182.75 1230.96,1219.6 1248.51,1233.4C1264.03,1245.59 1283.01,1242.53 1298.26,1256.15C1356.03,1307.79 1416.63,1354.28 1473.4,1408.99C1500.86,1435.45 1690.43,1387.4 1736.9,1389.15C1763.76,1390.16 1782.92,1407.25 1808.16,1415.08C1868.02,1433.66 1876.42,1416.57 1916.63,1490.88C1923.66,1503.86 1938.17,1512.75 1941.91,1528.33C1988.72,1562.71 2036.87,1593.27 2078.73,1602.59C2137.99,1615.79 2185.35,1577.14 2240.74,1577.72C2242.22,1577.73 2243.77,1577.9 2244.92,1578.92C2330.46,1654.86 2372.83,1773.42 2433.65,1866.36C2455.32,1899.47 2493.03,1929.55 2509.82,1964.15C2534.48,2014.95 2525.93,2073.18 2568.08,2117.15C2597.25,2147.58 2631.47,2200.51 2631.47,2250.64C2364.64,2270.43 78.9,2250.78 78.9,2250.78" style="fill:rgb(168,236,230);"/>
    </g>
</svg>
