<?xml version="1.0" encoding="UTF-8" standalone="no"?>
<!DOCTYPE svg PUBLIC "-//W3C//DTD SVG 1.1//EN" "http://www.w3.org/Graphics/SVG/1.1/DTD/svg11.dtd">
<svg width="100%" height="100%" viewBox="0 0 4267 1067" version="1.1" xmlns="http://www.w3.org/2000/svg" xmlns:xlink="http://www.w3.org/1999/xlink" xml:space="preserve" xmlns:serif="http://www.serif.com/" style="fill-rule:evenodd;clip-rule:evenodd;stroke-linejoin:round;stroke-miterlimit:2;">
    <g transform="matrix(-1.17922,0,0,0.679993,3131.7,-448.416)">
        <path d="M78.9,2250.78C78.9,2250.78 -1005.99,2281.03 -967.361,2269.98C-879.403,2244.82 -755.865,1923.23 -698.475,1813.55C-663.413,1746.55 -620.781,1675.69 -573.923,1631.34C-543.595,1602.63 -508.905,1588.17 -480.277,1554.17C-446.711,1514.32 -420.435,1456.36 -386.016,1418.58C-364.669,1395.14 -337.754,1387.27 -317.464,1361.2C-289.381,1325.13 -271.419,1271.97 -241.805,1237.56C-220.024,1212.26 -193.924,1205.06 -171.236,1183.26C-140.964,1154.18 -116.267,1109.66 -84.947,1080.65C-26.445,1026.45 115.021,953.157 181.179,931.104C227.366,915.708 265.254,919.295 310.342,915.535C344.547,912.682 380.373,893.922 415.69,890.555C664.399,866.844 929.451,861.943 1174.7,941.802C1227.65,959.042 1271.8,1000.02 1321.72,1022.93C1379.58,1049.49 1442.32,1038.74 1499.19,1072.57C1527,1089.12 1548.92,1118.97 1579.62,1131.54C1641.03,1156.68 1704.32,1166.08 1765.93,1189.38C1785.46,1196.77 1804,1219.52 1822.38,1225.05C1898.74,1248.04 1985.9,1264.62 2056.76,1322.1C2077.35,1338.81 2086.76,1379.41 2105.05,1401.16C2121.58,1420.8 2142.46,1428.82 2159.47,1447.49C2188.17,1478.99 2212.2,1530.47 2236.58,1570.44C2257.75,1605.16 2282.42,1604.14 2307.53,1626.52C2341.47,1656.77 2438.61,1755.57 2462.84,1799.09C2512.95,1889.1 2525.59,2086.68 2582.71,2148.71C2593.4,2160.31 2640.67,2202.69 2605.69,2207.66C2627.27,2227.04 2644.34,2240.18 2655.81,2245.58C2715.03,2273.45 78.9,2250.78 78.9,2250.78" style="fill:rgb(102,190,136);"/>
    </g>
    <g transform="matrix(1,0,0,1,-13.6209,44.268)">
        <path d="M918.189,385.046L924.437,260.074L1011.92,190.446L1090.47,247.576L1103.86,381.476L918.189,385.046Z" style="fill:rgb(102,157,169);"/>
    </g>
    <g transform="matrix(1,0,0,1,347.333,170.261)">
        <path d="M918.189,385.046L924.437,260.074L1011.92,190.446L1090.47,247.576L1103.86,381.476L918.189,385.046Z" style="fill:rgb(102,157,169);"/>
    </g>
    <g transform="matrix(1,0,0,1,783.203,37.4575)">
        <path d="M918.189,385.046L924.437,260.074L1011.92,190.446L1090.47,247.576L1103.86,381.476L918.189,385.046Z" style="fill:rgb(102,157,169);"/>
    </g>
    <g transform="matrix(1,0,0,1,1253.12,238.366)">
        <path d="M918.189,385.046L924.437,260.074L1011.92,190.446L1090.47,247.576L1103.86,381.476L918.189,385.046Z" style="fill:rgb(102,157,169);"/>
    </g>
    <g transform="matrix(1,0,0,1,1447.22,163.451)">
        <path d="M918.189,385.046L924.437,260.074L1011.92,190.446L1090.47,247.576L1103.86,381.476L918.189,385.046Z" style="fill:rgb(102,157,169);"/>
    </g>
    <g transform="matrix(1,0,0,1,984.111,122.588)">
        <path d="M918.189,385.046L924.437,260.074L1011.92,190.446L1090.47,247.576L1103.86,381.476L918.189,385.046Z" style="fill:rgb(102,157,169);"/>
    </g>
    <g transform="matrix(1,0,0,1,548.242,105.562)">
        <path d="M918.189,385.046L924.437,260.074L1011.92,190.446L1090.47,247.576L1103.86,381.476L918.189,385.046Z" style="fill:rgb(102,157,169);"/>
    </g>
    <g transform="matrix(1,0,0,1,1695.8,149.83)">
        <path d="M918.189,385.046L924.437,260.074L1011.92,190.446L1090.47,247.576L1103.86,381.476L918.189,385.046Z" style="fill:rgb(102,157,169);"/>
    </g>
    <g transform="matrix(1,0,0,1,1852.44,360.954)">
        <path d="M918.189,385.046L924.437,260.074L1011.92,190.446L1090.47,247.576L1103.86,381.476L918.189,385.046Z" style="fill:rgb(102,157,169);"/>
    </g>
    <g transform="matrix(1,0,0,1,2080.59,262.203)">
        <path d="M918.189,385.046L924.437,260.074L1011.92,190.446L1090.47,247.576L1103.86,381.476L918.189,385.046Z" style="fill:rgb(102,157,169);"/>
    </g>
    <g transform="matrix(1,0,0,1,1614.08,-91.9412)">
        <path d="M918.189,385.046L924.437,260.074L1011.92,190.446L1090.47,247.576L1103.86,381.476L918.189,385.046Z" style="fill:rgb(102,157,169);"/>
    </g>
    <g transform="matrix(1,0,0,1,1167.99,-166.856)">
        <path d="M918.189,385.046L924.437,260.074L1011.92,190.446L1090.47,247.576L1103.86,381.476L918.189,385.046Z" style="fill:rgb(102,157,169);"/>
    </g>
    <g transform="matrix(1,0,0,1,711.693,-160.046)">
        <path d="M918.189,385.046L924.437,260.074L1011.92,190.446L1090.47,247.576L1103.86,381.476L918.189,385.046Z" style="fill:rgb(102,157,169);"/>
    </g>
    <g transform="matrix(1.42182,0,0,0.580033,705.77,182.138)">
        <path d="M918.189,385.046L924.437,260.074L1011.92,190.446L1090.47,247.576L1103.86,381.476L918.189,385.046Z" style="fill:rgb(102,157,169);"/>
    </g>
    <g transform="matrix(1.42182,0,0,0.580033,-12.7328,97.0072)">
        <path d="M918.189,385.046L924.437,260.074L1011.92,190.446L1090.47,247.576L1103.86,381.476L918.189,385.046Z" style="fill:rgb(102,157,169);"/>
    </g>
    <g transform="matrix(1.42182,0,0,0.580033,1492.38,137.87)">
        <path d="M918.189,385.046L924.437,260.074L1011.92,190.446L1090.47,247.576L1103.86,381.476L918.189,385.046Z" style="fill:rgb(102,157,169);"/>
    </g>
    <g transform="matrix(1.42182,0,0,0.580033,1819.28,270.674)">
        <path d="M918.189,385.046L924.437,260.074L1011.92,190.446L1090.47,247.576L1103.86,381.476L918.189,385.046Z" style="fill:rgb(102,157,169);"/>
    </g>
    <g transform="matrix(1.42182,0,0,0.580033,2040.62,420.504)">
        <path d="M918.189,385.046L924.437,260.074L1011.92,190.446L1090.47,247.576L1103.86,381.476L918.189,385.046Z" style="fill:rgb(102,157,169);"/>
    </g>
</svg>
