<?xml version="1.0" encoding="UTF-8" standalone="no"?>
<!DOCTYPE svg PUBLIC "-//W3C//DTD SVG 1.1//EN" "http://www.w3.org/Graphics/SVG/1.1/DTD/svg11.dtd">
<svg width="100%" height="100%" viewBox="0 0 2628 2013" version="1.1" xmlns="http://www.w3.org/2000/svg" xmlns:xlink="http://www.w3.org/1999/xlink" xml:space="preserve" xmlns:serif="http://www.serif.com/" style="fill-rule:evenodd;clip-rule:evenodd;stroke-linejoin:round;stroke-miterlimit:2;">
    <g transform="matrix(1,0,0,1,4.25359,586.996)">
        <path d="M241.826,1224.72C100.424,1170.25 0,1033.04 0,872.566C0,716.963 94.419,583.238 229.058,525.602C227.333,510.989 226.444,496.101 226.444,481.007C226.444,272.813 395.471,103.787 603.664,103.787C687.045,103.787 764.144,130.899 826.633,176.791C893.399,70.625 1011.61,0 1146.19,0C1319.74,0 1466.07,117.455 1509.96,277.132C1525.27,275.507 1540.79,274.676 1556.5,274.676C1584.47,274.676 1611.83,277.312 1638.36,282.353C1695.66,146.971 1829.77,51.893 1985.92,51.893C2168.32,51.893 2320.65,181.63 2355.6,353.78C2454.42,421.81 2519.27,535.738 2519.27,664.693C2519.27,686.907 2517.34,708.676 2513.65,729.846C2516.51,746.982 2518.22,764.511 2518.69,782.351C2585.86,850.489 2609.9,933.11 2609.9,1036.23C2609.9,1159.81 2500.93,1187.4 2488.29,1188.9C2405.54,1198.77 2360.83,1129.67 2328.6,1125.01C2301.5,1121.1 2221.8,1206.82 2213.55,1205.33C2105.52,1185.76 2052.19,1100.55 1811.27,1099.21C1663.4,1098.39 1532.33,1144.94 1452.95,1216.79C1373.28,1152.28 1250.56,1110.55 1112.78,1109.78C1069.82,1109.54 1028.28,1113.3 989.013,1120.52C909.331,1062.09 792.695,1024.87 662.648,1024.15C463.459,1023.04 294.775,1107.9 241.826,1224.72Z" style="fill:rgb(81,103,46);"/>
    </g>
    <g transform="matrix(1,0,0,1,3.80301e-07,463.641)">
        <path d="M241.826,1224.72C100.424,1170.25 0,1033.04 0,872.566C0,716.963 94.419,583.238 229.058,525.602C227.333,510.989 226.444,496.101 226.444,481.007C226.444,272.813 395.471,103.787 603.664,103.787C687.045,103.787 764.144,130.899 826.633,176.791C893.399,70.625 1011.61,0 1146.19,0C1319.74,0 1466.07,117.455 1509.96,277.132C1525.27,275.507 1540.79,274.676 1556.5,274.676C1584.47,274.676 1611.83,277.312 1638.36,282.353C1695.66,146.971 1829.77,51.893 1985.92,51.893C2168.32,51.893 2320.65,181.63 2355.6,353.78C2454.42,421.81 2519.27,535.738 2519.27,664.693C2519.27,686.907 2517.34,708.676 2513.65,729.846C2516.51,746.982 2518.22,764.511 2518.69,782.351C2585.86,850.489 2627.32,943.999 2627.32,1047.12C2627.32,1170.7 2555.81,1217.56 2555.81,1230.28C2555.81,1242.33 2476.25,1266.87 2422.25,1266.57C2394.87,1266.42 2335.49,1198.45 2309.72,1201.88C2310.89,1193.68 2230.58,1256.48 2222.26,1255.41C2053.25,1233.67 2052.19,1100.55 1811.27,1099.21C1663.4,1098.39 1532.33,1144.94 1452.95,1216.79C1373.28,1152.28 1250.56,1110.55 1112.78,1109.78C1069.82,1109.54 1028.28,1113.3 989.013,1120.52C909.331,1062.09 792.695,1024.87 662.648,1024.15C463.459,1023.04 294.775,1107.9 241.826,1224.72Z" style="fill:rgb(119,146,77);"/>
    </g>
</svg>
