<?xml version="1.0" encoding="UTF-8" standalone="no"?>
<!DOCTYPE svg PUBLIC "-//W3C//DTD SVG 1.1//EN" "http://www.w3.org/Graphics/SVG/1.1/DTD/svg11.dtd">
<svg width="100%" height="100%" viewBox="0 0 2134 1067" version="1.1" xmlns="http://www.w3.org/2000/svg" xmlns:xlink="http://www.w3.org/1999/xlink" xml:space="preserve" xmlns:serif="http://www.serif.com/" style="fill-rule:evenodd;clip-rule:evenodd;stroke-linejoin:round;stroke-miterlimit:2;">
    <g transform="matrix(1.33566,0,0,1.33566,-354.537,-1793.98)">
        <g transform="matrix(0.999998,0,0,0.999998,0.000303838,0.00137354)">
            <path d="M-5.008,1445.44C-9.245,1446.28 67.986,1439.31 84.65,1440.61C135.943,1444.6 189.826,1471.11 241.915,1473.71C296.608,1476.45 353.85,1449.82 408.337,1456.95C505.902,1469.73 597.341,1487.67 696.486,1491.31C808.696,1495.44 919.732,1521.65 1032.75,1514.33C1229.94,1501.56 1422.56,1462.93 1621.24,1462.66C1667.85,1462.6 1714.41,1452.4 1760.98,1455.89C1844.11,1462.12 1919.56,1481.87 2005.63,1485.84C2045.05,1487.66 2083.42,1484.13 2122.71,1484.89C2124.16,1484.92 2130.2,1484.61 2131.32,1486.48C2136.51,1495.21 2125.32,1509.36 2125.21,1520.1C2124.71,1565.86 2127.12,2146.9 2127.12,2146.9C2119.5,2162.71 -11.084,2144.75 -0.934,2138.78L-5.008,1445.44Z" style="fill:rgb(131,192,115);"/>
        </g>
        <g transform="matrix(0.748694,0,0,0.748694,265.44,1343.14)">
            <path d="M2155.92,168.767L2109.24,168.767C2108.37,173.495 2113.45,169.004 2115.34,173.419C2128.46,204.189 2088.69,232.341 2059.64,220.267C2054.25,218.029 2055.1,210.569 2050.66,208.229C2048.81,207.249 2048.56,211.875 2047.74,213.805C2044.43,221.545 2034.18,236.343 2025.89,239.369C2003.14,247.675 1978.83,227.486 1957.75,228.637C1944.73,229.348 1935.09,242.43 1921.44,242.732C1919.95,242.765 1918.43,242.673 1916.97,242.361C1909.74,240.818 1892.55,237.947 1887.48,232.473C1884.66,229.423 1884.78,216.882 1881.2,215.735C1880.27,215.437 1879.27,216.361 1878.58,217.053C1867.92,227.713 1855.96,242.426 1839.5,244.158C1823.98,245.79 1807.28,225.684 1790.19,224.904C1781.69,224.516 1783.32,233.996 1778.69,238.749C1773.54,244.025 1747.85,240.14 1740.99,239.527C1730.97,238.633 1728.22,224.305 1718.79,222.325C1707.3,219.913 1702.31,235.425 1690.79,233.145C1680.14,231.04 1648.52,221.608 1642.7,211.551C1640.94,208.522 1642.86,203.637 1638.89,202.177C1622.2,196.032 1597.6,207.258 1580.38,208.23C1573.29,208.631 1572.5,202.123 1566.58,201.915C1556.69,201.568 1543.2,221.713 1531.04,223.794C1519.96,225.688 1521.76,213.247 1519.26,213.643C1470.3,221.389 1429.1,249.968 1379.36,255.398C1366.03,256.853 1341.64,240.677 1341.43,240.841C1337.4,243.921 1343.7,252.304 1337.55,254.351C1334.47,255.379 1262.28,257.573 1260.04,256.8C1241.11,250.261 1249.24,233.536 1247.28,232.473C1246.11,231.837 1244.54,231.99 1243.28,232.411C1229.15,237.121 1219.58,243.73 1203,244.685C1186.95,245.609 1169.11,248.701 1153.18,246.686C1126.51,243.312 1127.93,230.519 1092.73,237.788C1075.59,241.327 1066.56,263.39 1046.16,264.329C1031.02,265.026 1041.28,247.782 1033.88,240.841C1028.81,236.086 993.362,251.23 986.841,252.581C959.111,258.328 927.561,246.102 899.121,248.005C887.312,248.795 877.814,260.448 864.775,261.628C843.584,263.545 848.986,244.767 841.048,244.211C810.345,242.059 776.95,254.288 745.663,248.769C736.544,247.161 736.182,232.108 728.102,232.202C701.334,232.513 672.752,242.659 646.092,237.959C632.899,235.633 624.694,215.229 617.5,213.718C596.401,209.286 524.754,247.625 523.393,247.118C512.082,242.898 520.742,215.92 510.84,209.459C510.256,209.078 509.421,209.276 508.748,209.459C490.552,214.398 473.907,220.947 454.354,221.295C425.113,221.816 430.099,201.642 425.062,198.998C419.322,195.985 374.43,219.051 362.297,205.274C357.661,200.01 360.888,191.493 356.021,186.445C336.967,166.685 278.6,221.5 265.385,221.265C241.546,220.842 221.333,204.479 200.109,202.242C199.042,202.129 168.988,212.689 149.2,208.972C126.917,204.786 103.662,183.661 83.601,174.11C58.416,162.12 16.218,168.767 -10.999,168.767L-10.999,284.812L2155.92,284.812L2155.92,168.767" style="fill:rgb(248,212,174);"/>
        </g>
        <g transform="matrix(0.748694,0,0,0.83868,261.263,1754.01)">
            <rect x="-10.999" y="168.767" width="2166.92" height="116.045" style="fill:rgb(248,212,174);"/>
        </g>
        <g transform="matrix(0.748694,0,0,0.748694,255.65,1325.52)">
            <path d="M2118.21,910.821C2110.57,918.458 107.837,988.241 106.532,986.936C100.005,980.409 85.203,981.297 77.765,973.86C70.229,966.323 71.355,864.022 93.456,864.022C98.519,857.112 103.419,851.142 105.448,849.113C108.349,846.212 103.886,835.946 106.787,833.045C107.237,832.595 116.116,841.727 117.499,842.418C133.636,850.487 144.391,859.881 160.346,867.859C165.973,870.672 173.692,879.954 173.736,879.909C174.574,879.072 181.682,850.539 185.787,846.435C188.252,843.969 196.535,855.826 199.176,857.147C207.222,861.17 239.705,892.32 246.041,898.655C256.845,909.46 304.709,860.071 307.634,857.147C308.33,856.45 325.156,874.669 326.38,875.893C334.257,883.77 363.959,881.161 371.905,873.215C374.15,870.969 376.268,868.595 378.369,866.206L380.169,864.156C382.271,861.766 384.388,859.392 386.634,857.147C388.403,855.378 400.09,873.281 401.362,874.554C409.503,882.694 438.776,904.05 457.6,894.638C474.337,886.27 485.759,869.847 495.091,865.181C495.33,865.061 512.397,878.47 513.837,879.909C521.975,888.047 563.768,872.351 570.074,869.198C571.646,868.412 587.744,868.122 588.82,869.198C592.302,872.679 609.245,896.975 619.616,886.604C626.82,879.4 665.423,850.734 669.159,854.469C677.653,862.963 697.195,878.611 716.023,869.198C727.975,863.221 739.166,861.643 750.836,855.808C754.461,853.995 765.842,844.034 766.904,845.096C776.022,854.214 774.196,862.801 786.989,869.198C798.194,874.8 834.814,863.075 844.565,859.825C855.471,856.189 874.758,858.486 886.073,858.486C890.03,858.486 909.627,852.582 911.514,854.469C913.542,856.497 916.106,868.434 920.887,873.215C923.896,876.224 932.372,878.005 935.616,881.248C939.525,885.158 973.367,863.581 977.124,859.825C978.072,858.877 996.547,856.485 998.548,858.486C1005.61,865.551 1013.22,871.822 1021.31,879.909C1023.75,882.354 1041.57,879.909 1045.41,879.909C1067.88,879.909 1087.75,874.809 1104.33,866.52C1107.67,864.848 1124.12,857.003 1127.09,858.486C1133.05,861.463 1136.81,889.455 1152.53,897.316C1165.14,903.62 1179.13,886.027 1186.01,882.587C1191.6,879.789 1196.52,880.008 1202.07,877.232C1215.56,870.488 1255.7,863.772 1263.67,855.808C1264.5,854.971 1282.91,854.971 1283.75,855.808C1285.64,857.702 1286.67,859.278 1290.44,861.164C1300.19,866.038 1314.17,854.95 1323.92,859.825C1326.46,861.097 1328.87,862.693 1331.43,864.126C1335.37,864.126 1339.32,865.856 1343.18,868.878C1350.73,874.785 1357.97,885.628 1364.24,898.119C1377.14,903.992 1389.32,908.266 1396.34,908.266C1407.02,915.931 1429.41,896.132 1438.26,887.284C1446.28,879.261 1475.33,879.21 1485.34,874.208C1488.96,872.395 1502,856.877 1503.64,858.517C1511.97,866.844 1523.33,872.973 1529.79,879.439C1534.59,884.233 1569.48,879.21 1574.25,876.823C1587.41,870.246 1619.15,878.993 1629.17,868.978C1631.79,866.363 1631.79,861.132 1634.4,858.517C1637.16,855.76 1639.63,848.056 1639.63,848.056C1639.63,848.056 1640.3,853.953 1642.25,855.902C1650.53,864.181 1657.71,876.6 1665.78,884.669C1677.77,896.66 1706.93,864.446 1715.47,855.902C1724.63,846.739 1759.48,851.125 1765.16,845.441C1765.69,844.911 1771.78,838.986 1773.01,840.211C1784.21,851.417 1795.19,862.394 1807,874.208C1813.09,880.29 1882.85,855.894 1888.08,850.671C1891.39,847.352 1899.05,841.242 1901.15,845.441C1904.6,852.345 1922.65,907.631 1940.38,889.899C1946.68,883.599 1948.72,873.711 1956.07,866.363C1962.22,860.211 1977.17,860.957 1984.84,853.287C1985.84,852.288 1993.66,880.42 1995.3,882.054C2000.13,886.886 2037.99,855.057 2039.76,853.287C2040.63,852.415 2041.5,851.543 2042.37,850.671C2043.68,849.364 2043.68,846.749 2044.99,845.441C2048.27,842.158 2052.42,847.649 2052.83,848.056C2059.84,855.061 2096.87,852.864 2107.75,863.747C2111.24,867.234 2106.88,878.567 2110.37,882.054C2112.67,884.355 2125.43,903.597 2118.21,910.821Z" style="fill:rgb(131,192,115);"/>
        </g>
        <g transform="matrix(0.748694,0,0,0.748694,265.44,1343.14)">
            <path d="M942.012,779.356C936.472,771.443 902.507,780.021 911.885,789.399C916.909,794.423 927.323,795.444 935.317,799.441C941.086,802.325 1002.94,801.115 1015.66,801.115L1019,801.115C1022.35,797.771 1019.86,795.666 1025.7,792.746C1032.64,789.277 1062.61,806.044 1074.24,794.42C1085.6,783.061 1054.36,781.24 1052.48,779.356C1043.26,770.134 980.325,770.988 958.749,770.988" style="fill:rgb(131,192,115);"/>
        </g>
        <g transform="matrix(0.748694,0,0,0.748694,265.44,1343.14)">
            <path d="M416.462,779.356C414.36,781.459 411.14,779.657 409.767,781.03C400.568,790.229 424.711,795.974 428.178,799.441C435.625,806.887 418.834,823.571 416.462,821.2C415.203,819.94 422.602,815.06 423.157,814.505C427.804,809.858 427.626,803.34 431.526,799.441C441.821,789.145 462.205,813.952 470.021,806.136C482.318,793.84 451.884,776.283 449.937,774.335C446.882,771.281 434.491,776.009 431.526,776.009" style="fill:rgb(131,192,115);"/>
        </g>
        <g transform="matrix(0.748694,0,0,0.748694,1106.27,1354.42)">
            <path d="M416.462,779.356C414.36,781.459 411.14,779.657 409.767,781.03C402.59,788.208 414.946,796.766 423.471,796.813C428.466,796.841 449.382,807.664 453.304,802.72C460.073,806.371 466.398,809.76 470.021,806.136C482.318,793.84 451.884,776.283 449.937,774.335C446.882,771.281 434.491,776.009 431.526,776.009" style="fill:rgb(131,192,115);"/>
        </g>
        <g transform="matrix(0.748694,0,0,0.748694,23.5899,1335.62)">
            <path d="M416.462,779.356C414.36,781.459 411.14,779.657 409.767,781.03C396.303,794.494 462.953,809.016 470.021,806.136C486.126,799.574 451.884,776.283 449.937,774.335C446.882,771.281 434.491,776.009 431.526,776.009" style="fill:rgb(131,192,115);"/>
        </g>
    </g>
    <g transform="matrix(1.33566,0,0,1.33566,-354.537,-1793.98)">
        <g transform="matrix(0.75277,0,0,0.745168,265.453,1344.28)">
            <rect x="-3.265" y="323.688" width="2131.91" height="397.51" style="fill:rgb(230,183,134);"/>
        </g>
        <g transform="matrix(0.75463,0,0,0.738149,252.804,1350.08)">
            <rect x="17.657" y="361.347" width="2110.99" height="297.086" style="fill:rgb(222,226,142);"/>
        </g>
    </g>
    <g transform="matrix(1.33566,0,0,1.33566,-354.537,-1793.98)">
        <g transform="matrix(0.758481,0,0,0.738149,252.736,1350.08)">
            <rect x="17.657" y="361.347" width="2110.99" height="297.086" style="fill:rgb(222,226,142);"/>
        </g>
        <g transform="matrix(0.754707,0,0,0.748694,261.605,1351.48)">
            <rect x="-2.549" y="285.468" width="2134" height="33.998" style="fill:rgb(204,164,121);"/>
        </g>
        <g transform="matrix(0.754707,0,0,0.297786,260.101,1801.8)">
            <rect x="-2.549" y="285.468" width="2134" height="33.998" style="fill:rgb(204,164,121);"/>
        </g>
        <g transform="matrix(0.751399,0,0,0.352388,264.805,1453.71)">
            <rect x="-2.549" y="285.468" width="2134" height="33.998" style="fill:rgb(226,191,142);"/>
        </g>
        <g transform="matrix(0.751399,0,0,0.352388,263.3,1775.3)">
            <rect x="-2.549" y="285.468" width="2134" height="33.998" style="fill:rgb(248,212,174);"/>
        </g>
    </g>
    <path d="M389.872,410.127C368.969,420.579 247.819,410.181 242.65,420.519C237.832,430.156 291.262,451.734 301.539,455.16C344.369,469.436 414.206,456.892 460.885,456.892C472.383,456.892 512.384,457.354 518.042,451.696C548.357,421.381 441.532,413.29 440.101,411.859C431.31,403.068 394.791,415.323 382.944,415.323" style="fill:rgb(166,193,115);fill-opacity:0.5;"/>
    <g transform="matrix(1,0,0,1,1550.27,98.7203)">
        <path d="M389.872,410.127C368.969,420.579 247.819,410.181 242.65,420.519C237.832,430.156 291.262,451.734 301.539,455.16C344.369,469.436 414.206,456.892 460.885,456.892C472.383,456.892 512.384,457.354 518.042,451.696C548.357,421.381 441.532,413.29 440.101,411.859C431.31,403.068 394.791,415.323 382.944,415.323" style="fill:rgb(166,193,115);fill-opacity:0.5;"/>
    </g>
    <g transform="matrix(1,0,0,1,982.492,114.314)">
        <path d="M382.657,412.843C350.153,417.031 306.142,407.041 290.761,441.263C288.982,445.222 285.091,447.978 286.036,452.942C288.977,468.409 375.475,461.297 386.153,461.051C407.947,460.55 441.432,470.984 461.531,460.969C481.729,450.905 472.332,427.447 457.461,419.395C433.845,406.606 408.083,409.567 382.657,412.843" style="fill:rgb(166,193,115);fill-opacity:0.5;"/>
        <g transform="matrix(1,0,0,1,-592.322,-113.346)">
            <path d="M382.657,412.843C350.153,417.031 306.142,407.041 290.761,441.263C288.982,445.222 285.091,447.978 286.036,452.942C288.977,468.409 375.475,461.297 386.153,461.051C407.947,460.55 441.432,470.984 461.531,460.969C481.729,450.905 472.332,427.447 457.461,419.395C433.845,406.606 408.083,409.567 382.657,412.843" style="fill:rgb(166,193,115);fill-opacity:0.5;"/>
        </g>
    </g>
    <g transform="matrix(1,0,0,1,467.214,71.0131)">
        <path d="M382.657,412.843C350.153,417.031 306.142,407.041 290.761,441.263C288.982,445.222 285.091,447.978 286.036,452.942C288.977,468.409 375.475,461.297 386.153,461.051C407.947,460.55 441.432,470.984 461.531,460.969C481.729,450.905 472.332,427.447 457.461,419.395C433.845,406.606 408.083,409.567 382.657,412.843" style="fill:rgb(166,193,115);fill-opacity:0.5;"/>
        <g transform="matrix(1,0,0,1,-107.861,65.8135)">
            <path d="M382.657,412.843C350.153,417.031 306.142,407.041 290.761,441.263C288.982,445.222 285.091,447.978 286.036,452.942C288.977,468.409 375.475,461.297 386.153,461.051C407.947,460.55 441.432,470.984 461.531,460.969C481.729,450.905 472.332,427.447 457.461,419.395C433.845,406.606 408.083,409.567 382.657,412.843" style="fill:rgb(166,193,115);fill-opacity:0.5;"/>
        </g>
        <g transform="matrix(1,0,0,1,-582.364,64.8533)">
            <path d="M382.657,412.843C350.153,417.031 306.142,407.041 290.761,441.263C288.982,445.222 285.091,447.978 286.036,452.942C288.977,468.409 375.475,461.297 386.153,461.051C407.947,460.55 441.432,470.984 461.531,460.969C481.729,450.905 472.332,427.447 457.461,419.395C433.845,406.606 408.083,409.567 382.657,412.843" style="fill:rgb(166,193,115);fill-opacity:0.5;"/>
        </g>
        <g transform="matrix(1,0,0,1,407.678,-14.6252)">
            <path d="M382.657,412.843C350.153,417.031 306.142,407.041 290.761,441.263C288.982,445.222 285.091,447.978 286.036,452.942C288.977,468.409 375.475,461.297 386.153,461.051C407.947,460.55 441.432,470.984 461.531,460.969C481.729,450.905 472.332,427.447 457.461,419.395C433.845,406.606 408.083,409.567 382.657,412.843" style="fill:rgb(166,193,115);fill-opacity:0.5;"/>
        </g>
        <g transform="matrix(1,0,0,1,758.684,-89.5795)">
            <path d="M382.657,412.843C350.153,417.031 306.142,407.041 290.761,441.263C288.982,445.222 285.091,447.978 286.036,452.942C288.977,468.409 375.475,461.297 386.153,461.051C407.947,460.55 441.432,470.984 461.531,460.969C481.729,450.905 472.332,427.447 457.461,419.395C433.845,406.606 408.083,409.567 382.657,412.843" style="fill:rgb(166,193,115);fill-opacity:0.5;"/>
        </g>
        <g transform="matrix(1,0,0,1,-323.583,-14.6252)">
            <path d="M382.657,412.843C350.153,417.031 306.142,407.041 290.761,441.263C288.982,445.222 285.091,447.978 286.036,452.942C288.977,468.409 375.475,461.297 386.153,461.051C407.947,460.55 441.432,470.984 461.531,460.969C481.729,450.905 472.332,427.447 457.461,419.395C433.845,406.606 408.083,409.567 382.657,412.843" style="fill:rgb(166,193,115);fill-opacity:0.5;"/>
        </g>
        <g transform="matrix(1,0,0,1,784.278,43.8757)">
            <path d="M382.657,412.843C350.153,417.031 306.142,407.041 290.761,441.263C288.982,445.222 285.091,447.978 286.036,452.942C288.977,468.409 375.475,461.297 386.153,461.051C407.947,460.55 441.432,470.984 461.531,460.969C481.729,450.905 472.332,427.447 457.461,419.395C433.845,406.606 408.083,409.567 382.657,412.843" style="fill:rgb(166,193,115);fill-opacity:0.5;"/>
        </g>
    </g>
    <g transform="matrix(0.0559924,0.376025,-2.67794,0.398761,2998.58,137.906)">
        <path d="M382.657,412.843C350.153,417.031 306.142,407.041 290.761,441.263C288.982,445.222 285.091,447.978 286.036,452.942C288.977,468.409 375.475,461.297 386.153,461.051C407.947,460.55 441.432,470.984 461.531,460.969C481.729,450.905 472.332,427.447 457.461,419.395C433.845,406.606 408.083,409.567 382.657,412.843" style="fill:rgb(166,193,115);fill-opacity:0.5;"/>
    </g>
</svg>
