<?xml version="1.0" encoding="UTF-8" standalone="no"?>
<!DOCTYPE svg PUBLIC "-//W3C//DTD SVG 1.1//EN" "http://www.w3.org/Graphics/SVG/1.1/DTD/svg11.dtd">
<svg width="100%" height="100%" viewBox="0 0 2134 1067" version="1.1" xmlns="http://www.w3.org/2000/svg" xmlns:xlink="http://www.w3.org/1999/xlink" xml:space="preserve" xmlns:serif="http://www.serif.com/" style="fill-rule:evenodd;clip-rule:evenodd;stroke-linejoin:round;stroke-miterlimit:2;">
    <g transform="matrix(1.33566,0,0,1.33566,-354.537,-1793.98)">
        <g transform="matrix(0.999998,0,0,0.999998,0.000303838,0.00137354)">
            <path d="M-5.008,1445.44C-9.245,1446.28 67.986,1439.31 84.65,1440.61C135.943,1444.6 189.826,1471.11 241.915,1473.71C296.608,1476.45 353.85,1449.82 408.337,1456.95C505.902,1469.73 597.341,1487.67 696.486,1491.31C808.696,1495.44 919.732,1521.65 1032.75,1514.33C1229.94,1501.56 1422.56,1462.93 1621.24,1462.66C1667.85,1462.6 1714.41,1452.4 1760.98,1455.89C1844.11,1462.12 1919.56,1481.87 2005.63,1485.84C2045.05,1487.66 2083.42,1484.13 2122.71,1484.89C2124.16,1484.92 2130.2,1484.61 2131.32,1486.48C2136.51,1495.21 2125.32,1509.36 2125.21,1520.1C2124.71,1565.86 2127.12,2146.9 2127.12,2146.9C2119.5,2162.71 -11.084,2144.75 -0.934,2138.78L-5.008,1445.44Z" style="fill:rgb(131,192,115);"/>
        </g>
        <g transform="matrix(0.748694,0,0,0.748694,265.44,1343.14)">
            <path d="M2155.92,168.767L2109.24,168.767C2108.37,173.495 2113.45,169.004 2115.34,173.419C2128.46,204.189 2088.69,232.341 2059.64,220.267C2054.25,218.029 2055.1,210.569 2050.66,208.229C2048.81,207.249 2048.56,211.875 2047.74,213.805C2044.43,221.545 2034.18,236.343 2025.89,239.369C2003.14,247.675 1978.83,227.486 1957.75,228.637C1944.73,229.348 1935.09,242.43 1921.44,242.732C1919.95,242.765 1918.43,242.673 1916.97,242.361C1909.74,240.818 1892.55,237.947 1887.48,232.473C1884.66,229.423 1884.78,216.882 1881.2,215.735C1880.27,215.437 1879.27,216.361 1878.58,217.053C1867.92,227.713 1855.96,242.426 1839.5,244.158C1823.98,245.79 1807.28,225.684 1790.19,224.904C1781.69,224.516 1783.32,233.996 1778.69,238.749C1773.54,244.025 1747.85,240.14 1740.99,239.527C1730.97,238.633 1728.22,224.305 1718.79,222.325C1707.3,219.913 1702.31,235.425 1690.79,233.145C1680.14,231.04 1648.52,221.608 1642.7,211.551C1640.94,208.522 1642.86,203.637 1638.89,202.177C1622.2,196.032 1597.6,207.258 1580.38,208.23C1573.29,208.631 1572.5,202.123 1566.58,201.915C1556.69,201.568 1543.2,221.713 1531.04,223.794C1519.96,225.688 1521.76,213.247 1519.26,213.643C1470.3,221.389 1429.1,249.968 1379.36,255.398C1366.03,256.853 1341.64,240.677 1341.43,240.841C1337.4,243.921 1343.7,252.304 1337.55,254.351C1334.47,255.379 1262.28,257.573 1260.04,256.8C1241.11,250.261 1249.24,233.536 1247.28,232.473C1246.11,231.837 1244.54,231.99 1243.28,232.411C1229.15,237.121 1219.58,243.73 1203,244.685C1186.95,245.609 1169.11,248.701 1153.18,246.686C1126.51,243.312 1127.93,230.519 1092.73,237.788C1075.59,241.327 1066.56,263.39 1046.16,264.329C1031.02,265.026 1041.28,247.782 1033.88,240.841C1028.81,236.086 993.362,251.23 986.841,252.581C959.111,258.328 927.561,246.102 899.121,248.005C887.312,248.795 877.814,260.448 864.775,261.628C843.584,263.545 848.986,244.767 841.048,244.211C810.345,242.059 776.95,254.288 745.663,248.769C736.544,247.161 736.182,232.108 728.102,232.202C701.334,232.513 672.752,242.659 646.092,237.959C632.899,235.633 624.694,215.229 617.5,213.718C596.401,209.286 524.754,247.625 523.393,247.118C512.082,242.898 520.742,215.92 510.84,209.459C510.256,209.078 509.421,209.276 508.748,209.459C490.552,214.398 473.907,220.947 454.354,221.295C425.113,221.816 430.099,201.642 425.062,198.998C419.322,195.985 374.43,219.051 362.297,205.274C357.661,200.01 360.888,191.493 356.021,186.445C336.967,166.685 278.6,221.5 265.385,221.265C241.546,220.842 221.333,204.479 200.109,202.242C199.042,202.129 168.988,212.689 149.2,208.972C126.917,204.786 103.662,183.661 83.601,174.11C58.416,162.12 16.218,168.767 -10.999,168.767L-10.999,284.812L2155.92,284.812L2155.92,168.767" style="fill:rgb(248,212,174);"/>
        </g>
        <g transform="matrix(0.748694,0,0,0.83868,261.263,1754.01)">
            <rect x="-10.999" y="168.767" width="2166.92" height="116.045" style="fill:rgb(248,212,174);"/>
        </g>
        <g transform="matrix(0.748694,0,0,0.748694,255.65,1325.52)">
            <path d="M669.49,967.96C351.36,979.183 106.988,987.391 106.532,986.936C100.005,980.409 85.203,981.297 77.765,973.86C70.229,966.323 71.355,864.022 93.456,864.022C98.519,857.112 103.419,851.142 105.448,849.113C108.349,846.212 103.886,835.946 106.787,833.045C107.237,832.595 116.116,841.727 117.499,842.418C133.636,850.487 144.391,859.881 160.346,867.859C165.973,870.672 173.692,879.954 173.736,879.909C174.574,879.072 181.682,850.539 185.787,846.435C188.252,843.969 196.535,855.826 199.176,857.147C207.222,861.17 239.705,892.32 246.041,898.655C256.845,909.46 304.709,860.071 307.634,857.147C308.33,856.45 325.156,874.669 326.38,875.893C334.257,883.77 363.959,881.161 371.905,873.215C374.15,870.969 376.268,868.595 378.369,866.206L380.169,864.156C382.271,861.766 384.388,859.392 386.634,857.147C388.403,855.378 400.09,873.281 401.362,874.554C409.503,882.694 438.776,904.05 457.6,894.638C474.337,886.27 485.759,869.847 495.091,865.181C495.33,865.061 512.397,878.47 513.837,879.909C521.975,888.047 563.768,872.351 570.074,869.198C571.646,868.412 587.744,868.122 588.82,869.198C592.302,872.679 609.245,896.975 619.616,886.604C624.065,882.155 640.491,869.519 653.291,861.394C665.331,867.92 685.944,879.288 674.822,890.409C664.933,900.299 647.31,911.227 639.116,919.421C606.225,952.312 657.324,955.481 665.896,964.053L669.49,967.96Z" style="fill:rgb(131,192,115);"/>
        </g>
        <g transform="matrix(0.748694,0,0,0.748694,255.65,1325.52)">
            <path d="M1654.04,870.294C1657.9,875.465 1661.73,880.616 1665.78,884.669C1677.77,896.66 1706.93,864.446 1715.47,855.902C1724.63,846.739 1759.48,851.125 1765.16,845.441C1765.69,844.911 1771.78,838.986 1773.01,840.211C1784.21,851.417 1795.19,862.394 1807,874.208C1813.09,880.29 1882.85,855.894 1888.08,850.671C1891.39,847.352 1899.05,841.242 1901.15,845.441C1904.6,852.345 1922.65,907.631 1940.38,889.899C1946.68,883.599 1948.72,873.711 1956.07,866.363C1962.22,860.211 1977.17,860.957 1984.84,853.287C1985.84,852.288 1993.66,880.42 1995.3,882.054C2000.13,886.886 2037.99,855.057 2039.76,853.287C2040.63,852.415 2041.5,851.543 2042.37,850.671C2043.68,849.364 2043.68,846.749 2044.99,845.441C2048.27,842.158 2052.42,847.649 2052.83,848.056C2059.84,855.061 2096.87,852.864 2107.75,863.747C2109.06,865.055 2109.26,867.466 2109.19,870.153L2108.93,875.649C2108.85,878.335 2109.06,880.746 2110.37,882.054C2112.67,884.355 2125.43,903.597 2118.21,910.821C2115.77,913.263 1909.41,922.056 1629.67,932.841C1631.43,922.675 1623.95,902.438 1627.73,894.873C1629.85,890.626 1645.35,877.827 1654.04,870.294Z" style="fill:rgb(131,192,115);"/>
        </g>
        <g transform="matrix(0.748694,0,0,0.748694,265.44,1343.14)">
            <path d="M942.012,779.356C936.472,771.443 902.507,780.021 911.885,789.399C916.909,794.423 927.323,795.444 935.317,799.441C941.086,802.325 1002.94,801.115 1015.66,801.115L1019,801.115C1022.35,797.771 1019.86,795.666 1025.7,792.746C1032.64,789.277 1062.61,806.044 1074.24,794.42C1085.6,783.061 1054.36,781.24 1052.48,779.356C1043.26,770.134 980.325,770.988 958.749,770.988" style="fill:rgb(131,192,115);"/>
        </g>
        <g transform="matrix(0.748694,0,0,0.748694,265.44,1343.14)">
            <path d="M416.462,779.356C414.36,781.459 411.14,779.657 409.767,781.03C400.568,790.229 424.193,796.585 428.178,799.441C435.257,804.514 462.549,813.608 470.021,806.136C482.318,793.84 451.884,776.283 449.937,774.335C446.882,771.281 434.491,776.009 431.526,776.009" style="fill:rgb(131,192,115);"/>
        </g>
        <g transform="matrix(0.748694,0,0,0.748694,1106.27,1354.42)">
            <path d="M416.462,779.356C414.36,781.459 411.14,779.657 409.767,781.03C402.59,788.208 414.946,796.766 423.471,796.813C428.466,796.841 449.382,807.664 453.304,802.72C460.073,806.371 466.398,809.76 470.021,806.136C482.318,793.84 451.884,776.283 449.937,774.335C446.882,771.281 434.491,776.009 431.526,776.009" style="fill:rgb(131,192,115);"/>
        </g>
        <g transform="matrix(0.748694,0,0,0.748694,23.5899,1335.62)">
            <path d="M416.462,779.356C414.36,781.459 411.14,779.657 409.767,781.03C396.303,794.494 462.953,809.016 470.021,806.136C486.126,799.574 451.884,776.283 449.937,774.335C446.882,771.281 434.491,776.009 431.526,776.009" style="fill:rgb(131,192,115);"/>
        </g>
        <g transform="matrix(0.748694,0,0,0.748694,265.44,1343.14)">
            <path d="M640.215,837.858C636.549,835.877 633.679,834.342 632.735,833.398C622.927,823.59 650.367,787.803 664.348,796.268C664.096,797.371 663.978,798.587 663.978,799.924L666.21,797.692C665.627,797.11 665.011,796.628 664.348,796.268C668.308,776.745 705.744,791.632 715.306,782.071C723.785,773.591 732.744,760.169 742.085,750.828C756.156,736.757 826.582,737.438 851.435,737.438C880.763,737.438 1022.45,726.984 1038.89,735.206C1051.85,741.685 1121.79,744.133 1139.32,744.133C1175.46,744.133 1216.24,746.626 1250.9,755.291C1263.5,758.441 1278.46,752.14 1291.07,755.291C1344.53,768.657 1404.79,753.773 1456.21,770.912C1464.97,773.833 1474.74,769.022 1482.99,773.144C1488.94,776.12 1499.35,770.168 1505.3,773.144C1525.06,783.024 1605.16,783.738 1614.65,793.229C1620.22,798.798 1630.62,800.272 1636.97,806.619C1641.51,811.156 1643.59,822.166 1648.13,826.703C1651.16,829.73 1646.64,841.584 1645.9,842.325C1644.89,843.331 1643.14,844.883 1640.96,846.757C1637.14,841.632 1633.29,836.486 1629.17,832.365C1627.22,830.416 1626.56,824.52 1626.56,824.52C1626.56,824.52 1624.08,832.224 1621.33,834.98C1618.71,837.596 1618.71,842.826 1616.09,845.441C1606.08,855.456 1574.33,846.709 1561.17,853.287C1556.4,855.673 1521.51,860.696 1516.72,855.902C1510.25,849.436 1498.89,843.307 1490.57,834.98C1488.92,833.34 1475.89,848.858 1472.26,850.671C1462.25,855.674 1433.21,855.725 1425.18,863.747C1416.34,872.595 1393.95,892.394 1383.26,884.729C1376.24,884.729 1364.07,880.455 1351.16,874.583C1344.89,862.092 1337.66,851.249 1330.1,845.341C1326.24,842.32 1322.3,840.589 1318.36,840.59C1315.8,839.156 1313.39,837.56 1310.84,836.288C1301.1,831.414 1287.12,842.501 1277.37,837.627C1273.6,835.741 1272.57,834.165 1270.67,832.271C1269.84,831.434 1251.43,831.434 1250.59,832.271C1242.63,840.235 1202.48,846.952 1189,853.695C1183.44,856.471 1178.53,856.252 1172.93,859.051C1166.05,862.49 1152.06,880.084 1139.45,873.779C1123.73,865.918 1119.97,837.926 1114.01,834.949C1111.05,833.466 1094.59,841.312 1091.25,842.983C1074.67,851.272 1054.8,856.373 1032.34,856.373C1028.49,856.373 1010.68,858.818 1008.23,856.373C1000.15,848.285 992.537,842.014 985.472,834.949C983.471,832.949 964.996,835.34 964.048,836.288C960.291,840.045 926.449,861.621 922.54,857.712C919.296,854.468 910.82,852.687 907.811,849.678C903.03,844.897 900.466,832.96 898.438,830.932C896.551,829.045 876.954,834.949 872.997,834.949C861.682,834.949 842.395,832.653 831.489,836.288C821.738,839.538 785.118,851.264 773.913,845.661C761.12,839.264 762.946,830.677 753.828,821.559C752.766,820.497 741.385,830.459 737.76,832.271C726.09,838.106 714.899,839.685 702.947,845.661C684.119,855.075 664.577,839.427 656.083,830.932C654.654,829.504 648.127,832.814 640.215,837.858Z" style="fill:rgb(248,212,174);"/>
        </g>
        <g transform="matrix(0.748694,0,0,0.748694,253.744,1024.02)">
            <path d="M666.21,1337.75C657.637,1329.17 606.538,1326.01 639.43,1293.12C647.624,1284.92 665.247,1273.99 675.136,1264.1C686.258,1252.98 665.645,1241.61 653.605,1235.09C661.517,1230.04 668.044,1226.74 669.472,1228.16C677.967,1236.66 697.509,1252.31 716.337,1242.89C728.289,1236.92 739.48,1235.34 751.15,1229.5C754.775,1227.69 766.155,1217.73 767.218,1218.79C776.335,1227.91 774.51,1236.5 787.303,1242.89C798.508,1248.5 835.128,1236.77 844.879,1233.52C855.785,1229.88 875.071,1232.18 886.387,1232.18C890.344,1232.18 909.941,1226.28 911.828,1228.16C913.856,1230.19 916.42,1242.13 921.201,1246.91C924.21,1249.92 932.685,1251.7 935.929,1254.94C939.839,1258.85 973.681,1237.28 977.438,1233.52C978.386,1232.57 996.861,1230.18 998.861,1232.18C1005.93,1239.25 1013.54,1245.52 1021.62,1253.6C1024.07,1256.05 1041.88,1253.6 1045.73,1253.6C1068.19,1253.6 1088.06,1248.5 1104.64,1240.21C1107.98,1238.54 1124.44,1230.7 1127.4,1232.18C1133.36,1235.16 1137.12,1263.15 1152.84,1271.01C1165.45,1277.32 1179.44,1259.72 1186.32,1256.28C1191.91,1253.48 1196.83,1253.7 1202.39,1250.93C1215.87,1244.18 1256.02,1237.47 1263.98,1229.5C1264.82,1228.66 1283.23,1228.66 1284.06,1229.5C1285.96,1231.4 1286.99,1232.97 1290.76,1234.86C1300.51,1239.73 1314.49,1228.64 1324.23,1233.52C1326.78,1234.79 1329.19,1236.39 1331.75,1237.82C1335.69,1237.82 1339.63,1239.55 1343.49,1242.57C1351.05,1248.48 1358.28,1259.32 1364.55,1271.81C1377.46,1277.69 1389.63,1281.96 1396.65,1281.96C1407.34,1289.62 1429.73,1269.83 1438.58,1260.98C1446.6,1252.95 1475.64,1252.9 1485.65,1247.9C1489.28,1246.09 1502.32,1230.57 1503.95,1232.21C1512.28,1240.54 1523.64,1246.67 1530.11,1253.13C1534.9,1257.93 1569.79,1252.9 1574.57,1250.52C1587.72,1243.94 1619.47,1252.69 1629.48,1242.67C1632.1,1240.06 1632.1,1234.83 1634.72,1232.21C1637.47,1229.45 1639.94,1221.75 1639.94,1221.75C1639.94,1221.75 1640.61,1227.65 1642.56,1229.6C1646.68,1233.72 1650.53,1238.86 1654.35,1243.99C1645.67,1251.52 1630.17,1264.32 1628.04,1268.57C1624.26,1276.13 1631.74,1296.37 1629.98,1306.54L1629.95,1306.71C1629.67,1308.49 1629.06,1309.95 1628.04,1310.97C1618.78,1320.23 1606.06,1321.46 1599.03,1335.52C1597.85,1337.88 1595.09,1341.03 1596.8,1344.44C1601.57,1353.99 1653.41,1357.23 1661.52,1373.45C1672.85,1396.12 1626.31,1418.58 1636.97,1429.24C1637.84,1430.12 1639.45,1430.25 1641.1,1430.34L1641.77,1430.38C1643.42,1430.47 1645.03,1430.6 1645.9,1431.48C1649.76,1435.34 1675.95,1481.76 1672.68,1485.04C1668.84,1488.87 1666.97,1494.67 1665.22,1500.59L1664.52,1502.96C1662.77,1508.88 1660.89,1514.67 1657.06,1518.51C1631.55,1544.02 1571.74,1527.95 1545.47,1554.22C1541.15,1558.54 1484.58,1562.35 1474.06,1567.61C1445.22,1582.03 1359.21,1552.33 1326.77,1563.14C1279.42,1578.92 1173.73,1589.04 1123.69,1576.53C1088.12,1567.64 975.244,1574.84 947.396,1560.91C931.803,1553.11 904.035,1564.31 887.141,1558.68C869.677,1552.86 832.521,1559.27 817.961,1551.98C802.504,1544.26 783.11,1548.55 766.633,1543.06C725.346,1529.3 690.353,1524.8 666.21,1500.66C664.722,1499.17 667.697,1493.22 666.21,1491.73C645.69,1471.21 678.061,1446.4 686.294,1438.17C686.747,1437.72 691.411,1432.13 688.526,1429.24C686.243,1426.96 677.842,1427.49 675.136,1424.78C669.633,1419.28 664.475,1411.89 659.515,1406.93C652.678,1400.09 694.759,1368.53 681.831,1355.6C677.502,1351.27 673.845,1346.27 669.804,1341.65L666.21,1337.75Z" style="fill:rgb(248,212,174);"/>
        </g>
        <g transform="matrix(0.748694,0,0,0.748694,1117.55,1468.45)">
            <path d="M416.462,779.356C414.36,781.459 411.14,779.657 409.767,781.03C400.568,790.229 424.193,796.585 428.178,799.441C435.257,804.514 462.549,813.608 470.021,806.136C482.318,793.84 451.884,776.283 449.937,774.335C446.882,771.281 434.491,776.009 431.526,776.009" style="fill:rgb(131,192,115);"/>
        </g>
        <g transform="matrix(-0.680843,0.31144,-0.31144,-0.680843,2176.47,2342.53)">
            <path d="M416.462,779.356C414.36,781.459 411.14,779.657 409.767,781.03C400.568,790.229 424.193,796.585 428.178,799.441C435.257,804.514 462.549,813.608 470.021,806.136C482.318,793.84 451.884,776.283 449.937,774.335C446.882,771.281 434.491,776.009 431.526,776.009" style="fill:rgb(131,192,115);"/>
        </g>
        <g transform="matrix(0.902016,0.161886,-0.132256,0.736919,1526.12,1278.9)">
            <path d="M431.612,776.3C431.491,776.347 431.362,776.422 431.248,776.441C425.362,777.41 420.918,774.718 416.346,775.174C416.301,775.179 417.13,778.433 417.034,778.614C416.545,779.528 415.2,784.369 416.274,785.906C419.68,790.777 431.179,790.051 435.164,793.048C437.176,794.561 435.913,802.72 437.927,804.271C441.739,807.206 452.293,797.848 456.095,800.902C457.712,802.201 459.168,807.779 463.5,803.817C465.742,801.766 468.163,792.521 472.708,797.556C471.526,792.116 465.991,786.562 460.663,782.232C460.067,778.169 449.641,781.508 447.376,779.579C444.154,776.835 439.493,783.889 438.819,783.316C436.558,781.39 433.85,778.41 431.934,776.328C431.848,776.234 431.733,776.253 431.612,776.3Z" style="fill:rgb(131,192,115);"/>
        </g>
        <g transform="matrix(0.748694,0,0,0.748694,-8.57324,905.389)">
            <path d="M416.462,779.356C414.36,781.459 411.14,779.657 409.767,781.03C400.568,790.229 424.193,796.585 428.178,799.441C435.257,804.514 462.549,813.608 470.021,806.136C482.318,793.84 451.884,776.283 449.937,774.335C446.882,771.281 434.491,776.009 431.526,776.009" style="fill:rgb(131,192,115);"/>
        </g>
        <g transform="matrix(0.748694,0,0,0.327044,1139.27,1249.83)">
            <path d="M416.462,779.356C414.36,781.459 411.14,779.657 409.767,781.03C400.568,790.229 424.193,796.585 428.178,799.441C435.257,804.514 462.549,813.608 470.021,806.136C482.318,793.84 451.884,776.283 449.937,774.335C446.882,771.281 434.491,776.009 431.526,776.009" style="fill:rgb(131,192,115);"/>
        </g>
    </g>
    <g transform="matrix(1.33566,0,0,1.33566,-354.537,-1793.98)">
        <g transform="matrix(0.75277,0,0,0.745168,265.453,1344.28)">
            <rect x="-3.265" y="323.688" width="2131.91" height="397.51" style="fill:rgb(230,183,134);"/>
        </g>
        <g transform="matrix(0.75463,0,0,0.738149,252.804,1350.08)">
            <rect x="17.657" y="361.347" width="2110.99" height="297.086" style="fill:rgb(222,226,142);"/>
        </g>
    </g>
    <g transform="matrix(1.33566,0,0,1.33566,-354.537,-1793.98)">
        <g transform="matrix(0.754707,0,0,0.748694,261.605,1351.48)">
            <rect x="-2.549" y="285.468" width="2134" height="33.998" style="fill:rgb(204,164,121);"/>
        </g>
        <g transform="matrix(0.754707,0,0,0.297786,260.101,1801.8)">
            <rect x="-2.549" y="285.468" width="2134" height="33.998" style="fill:rgb(204,164,121);"/>
        </g>
        <g transform="matrix(0.751399,0,0,0.352388,264.805,1453.71)">
            <rect x="-2.549" y="285.468" width="2134" height="33.998" style="fill:rgb(226,191,142);"/>
        </g>
        <g transform="matrix(0.751399,0,0,0.352388,263.3,1775.3)">
            <rect x="-2.549" y="285.468" width="2134" height="33.998" style="fill:rgb(248,212,174);"/>
        </g>
        <g transform="matrix(0.748694,0,0,0.73911,265.44,1353.36)">
            <rect x="738.936" y="173.539" width="744.473" height="892.653" style="fill:rgb(230,183,134);"/>
        </g>
        <g transform="matrix(0.748694,0,0,8.89219,265.44,-4552.89)">
            <rect x="737.607" y="723.027" width="23.447" height="30.535" style="fill:rgb(248,212,174);"/>
        </g>
        <g transform="matrix(0.758481,0,0,0.738149,252.736,1350.08)">
            <rect x="17.657" y="361.347" width="2110.99" height="297.086" style="fill:rgb(222,226,142);"/>
        </g>
        <g transform="matrix(0.748694,0,0,3.48301,824.214,-636.839)">
            <rect x="737.607" y="723.027" width="23.447" height="30.535" style="fill:rgb(248,212,174);"/>
        </g>
    </g>
    <path d="M389.872,410.127C368.969,420.579 247.819,410.181 242.65,420.519C237.832,430.156 291.262,451.734 301.539,455.16C344.369,469.436 414.206,456.892 460.885,456.892C472.383,456.892 512.384,457.354 518.042,451.696C548.357,421.381 441.532,413.29 440.101,411.859C431.31,403.068 394.791,415.323 382.944,415.323" style="fill:rgb(166,193,115);fill-opacity:0.5;"/>
    <g transform="matrix(1,0,0,1,1550.27,98.7203)">
        <path d="M389.872,410.127C368.969,420.579 247.819,410.181 242.65,420.519C237.832,430.156 291.262,451.734 301.539,455.16C344.369,469.436 414.206,456.892 460.885,456.892C472.383,456.892 512.384,457.354 518.042,451.696C548.357,421.381 441.532,413.29 440.101,411.859C431.31,403.068 394.791,415.323 382.944,415.323" style="fill:rgb(166,193,115);fill-opacity:0.5;"/>
    </g>
    <g transform="matrix(1,0,0,1,982.492,114.314)">
        <path d="M382.657,412.843C350.153,417.031 306.142,407.041 290.761,441.263C288.982,445.222 285.091,447.978 286.036,452.942C288.977,468.409 375.475,461.297 386.153,461.051C407.947,460.55 441.432,470.984 461.531,460.969C481.729,450.905 472.332,427.447 457.461,419.395C433.845,406.606 408.083,409.567 382.657,412.843" style="fill:rgb(166,193,115);fill-opacity:0.5;"/>
        <g transform="matrix(1,0,0,1,-592.322,-113.346)">
            <path d="M382.657,412.843C350.153,417.031 306.142,407.041 290.761,441.263C288.982,445.222 285.091,447.978 286.036,452.942C288.977,468.409 375.475,461.297 386.153,461.051C407.947,460.55 441.432,470.984 461.531,460.969C481.729,450.905 472.332,427.447 457.461,419.395C433.845,406.606 408.083,409.567 382.657,412.843" style="fill:rgb(166,193,115);fill-opacity:0.5;"/>
        </g>
        <g transform="matrix(1,0,0,1,-366.118,177.859)">
            <path d="M382.657,412.843C350.153,417.031 306.142,407.041 290.761,441.263C288.982,445.222 285.091,447.978 286.036,452.942C288.977,468.409 375.475,461.297 386.153,461.051C407.947,460.55 441.432,470.984 461.531,460.969C481.729,450.905 472.332,427.447 457.461,419.395C433.845,406.606 408.083,409.567 382.657,412.843" style="fill:rgb(166,193,115);fill-opacity:0.5;"/>
        </g>
        <g transform="matrix(1,0,0,1,-113.915,370.262)">
            <path d="M382.657,412.843C350.153,417.031 306.142,407.041 290.761,441.263C288.982,445.222 285.091,447.978 286.036,452.942C288.977,468.409 375.475,461.297 386.153,461.051C407.947,460.55 441.432,470.984 461.531,460.969C481.729,450.905 472.332,427.447 457.461,419.395C433.845,406.606 408.083,409.567 382.657,412.843" style="fill:rgb(166,193,115);fill-opacity:0.5;"/>
        </g>
    </g>
    <g transform="matrix(1,0,0,1,467.214,71.0131)">
        <path d="M382.657,412.843C350.153,417.031 306.142,407.041 290.761,441.263C288.982,445.222 285.091,447.978 286.036,452.942C288.977,468.409 375.475,461.297 386.153,461.051C407.947,460.55 441.432,470.984 461.531,460.969C481.729,450.905 472.332,427.447 457.461,419.395C433.845,406.606 408.083,409.567 382.657,412.843" style="fill:rgb(166,193,115);fill-opacity:0.5;"/>
        <g transform="matrix(1,0,0,1,226.203,291.204)">
            <path d="M382.657,412.843C350.153,417.031 306.142,407.041 290.761,441.263C288.982,445.222 285.091,447.978 286.036,452.942C288.977,468.409 375.475,461.297 386.153,461.051C407.947,460.55 441.432,470.984 461.531,460.969C481.729,450.905 472.332,427.447 457.461,419.395C433.845,406.606 408.083,409.567 382.657,412.843" style="fill:rgb(166,193,115);fill-opacity:0.5;"/>
        </g>
        <g transform="matrix(1,0,0,1,478.407,483.607)">
            <path d="M382.657,412.843C350.153,417.031 306.142,407.041 290.761,441.263C288.982,445.222 285.091,447.978 286.036,452.942C288.977,468.409 375.475,461.297 386.153,461.051C407.947,460.55 441.432,470.984 461.531,460.969C481.729,450.905 472.332,427.447 457.461,419.395C433.845,406.606 408.083,409.567 382.657,412.843" style="fill:rgb(166,193,115);fill-opacity:0.5;"/>
        </g>
        <g transform="matrix(1,0,0,1,-107.861,65.8135)">
            <path d="M382.657,412.843C350.153,417.031 306.142,407.041 290.761,441.263C288.982,445.222 285.091,447.978 286.036,452.942C288.977,468.409 375.475,461.297 386.153,461.051C407.947,460.55 441.432,470.984 461.531,460.969C481.729,450.905 472.332,427.447 457.461,419.395C433.845,406.606 408.083,409.567 382.657,412.843" style="fill:rgb(166,193,115);fill-opacity:0.5;"/>
        </g>
        <g transform="matrix(1,0,0,1,118.342,357.018)">
            <path d="M382.657,412.843C350.153,417.031 306.142,407.041 290.761,441.263C288.982,445.222 285.091,447.978 286.036,452.942C288.977,468.409 375.475,461.297 386.153,461.051C407.947,460.55 441.432,470.984 461.531,460.969C481.729,450.905 472.332,427.447 457.461,419.395C433.845,406.606 408.083,409.567 382.657,412.843" style="fill:rgb(166,193,115);fill-opacity:0.5;"/>
        </g>
        <g transform="matrix(1,0,0,1,370.546,549.421)">
            <path d="M382.657,412.843C350.153,417.031 306.142,407.041 290.761,441.263C288.982,445.222 285.091,447.978 286.036,452.942C288.977,468.409 375.475,461.297 386.153,461.051C407.947,460.55 441.432,470.984 461.531,460.969C481.729,450.905 472.332,427.447 457.461,419.395C433.845,406.606 408.083,409.567 382.657,412.843" style="fill:rgb(166,193,115);fill-opacity:0.5;"/>
        </g>
        <g transform="matrix(-8.81936e-05,0.309495,-2.14554,-0.000611393,1757.7,569.076)">
            <rect x="17.657" y="361.347" width="2110.99" height="297.086" style="fill:rgb(222,226,142);"/>
        </g>
        <g transform="matrix(1,0,0,1,149.16,221.16)">
            <path d="M382.657,412.843C350.153,417.031 306.142,407.041 290.761,441.263C288.982,445.222 285.091,447.978 286.036,452.942C288.977,468.409 375.475,461.297 386.153,461.051C407.947,460.55 441.432,470.984 461.531,460.969C481.729,450.905 472.332,427.447 457.461,419.395C433.845,406.606 408.083,409.567 382.657,412.843" style="fill:rgb(166,193,115);fill-opacity:0.5;"/>
        </g>
        <g transform="matrix(1,0,0,1,401.363,413.563)">
            <path d="M382.657,412.843C350.153,417.031 306.142,407.041 290.761,441.263C288.982,445.222 285.091,447.978 286.036,452.942C288.977,468.409 375.475,461.297 386.153,461.051C407.947,460.55 441.432,470.984 461.531,460.969C481.729,450.905 472.332,427.447 457.461,419.395C433.845,406.606 408.083,409.567 382.657,412.843" style="fill:rgb(166,193,115);fill-opacity:0.5;"/>
        </g>
        <g transform="matrix(1,0,0,1,226.203,291.204)">
            <path d="M382.657,412.843C350.153,417.031 306.142,407.041 290.761,441.263C288.982,445.222 285.091,447.978 286.036,452.942C288.977,468.409 375.475,461.297 386.153,461.051C407.947,460.55 441.432,470.984 461.531,460.969C481.729,450.905 472.332,427.447 457.461,419.395C433.845,406.606 408.083,409.567 382.657,412.843" style="fill:rgb(166,193,115);fill-opacity:0.5;"/>
        </g>
        <g transform="matrix(1,0,0,1,478.407,483.607)">
            <path d="M382.657,412.843C350.153,417.031 306.142,407.041 290.761,441.263C288.982,445.222 285.091,447.978 286.036,452.942C288.977,468.409 375.475,461.297 386.153,461.051C407.947,460.55 441.432,470.984 461.531,460.969C481.729,450.905 472.332,427.447 457.461,419.395C433.845,406.606 408.083,409.567 382.657,412.843" style="fill:rgb(166,193,115);fill-opacity:0.5;"/>
        </g>
        <g transform="matrix(1,0,0,1,118.342,357.018)">
            <path d="M382.657,412.843C350.153,417.031 306.142,407.041 290.761,441.263C288.982,445.222 285.091,447.978 286.036,452.942C288.977,468.409 375.475,461.297 386.153,461.051C407.947,460.55 441.432,470.984 461.531,460.969C481.729,450.905 472.332,427.447 457.461,419.395C433.845,406.606 408.083,409.567 382.657,412.843" style="fill:rgb(166,193,115);fill-opacity:0.5;"/>
        </g>
        <g transform="matrix(1,0,0,1,370.546,549.421)">
            <path d="M382.657,412.843C350.153,417.031 306.142,407.041 290.761,441.263C288.982,445.222 285.091,447.978 286.036,452.942C288.977,468.409 375.475,461.297 386.153,461.051C407.947,460.55 441.432,470.984 461.531,460.969C481.729,450.905 472.332,427.447 457.461,419.395C433.845,406.606 408.083,409.567 382.657,412.843" style="fill:rgb(166,193,115);fill-opacity:0.5;"/>
        </g>
        <g transform="matrix(-2.54711e-05,0.0893848,-2.14554,-0.000611393,1741.63,110.369)">
            <rect x="17.657" y="361.347" width="2110.99" height="297.086" style="fill:rgb(222,226,142);"/>
        </g>
        <g transform="matrix(1,0,0,0.361295,67.1471,-33.2895)">
            <path d="M382.657,412.843C350.153,417.031 306.142,407.041 290.761,441.263C288.982,445.222 285.091,447.978 286.036,452.942C288.977,468.409 375.475,461.297 386.153,461.051C407.947,460.55 441.432,470.984 461.531,460.969C481.729,450.905 472.332,427.447 457.461,419.395C433.845,406.606 408.083,409.567 382.657,412.843" style="fill:rgb(166,193,115);fill-opacity:0.5;"/>
        </g>
        <g transform="matrix(1,0,0,0.614779,396.342,-84.5907)">
            <path d="M382.657,412.843C350.153,417.031 306.142,407.041 290.761,441.263C288.982,445.222 285.091,447.978 286.036,452.942C288.977,468.409 375.475,461.297 386.153,461.051C407.947,460.55 441.432,470.984 461.531,460.969C481.729,450.905 472.332,427.447 457.461,419.395C433.845,406.606 408.083,409.567 382.657,412.843" style="fill:rgb(166,193,115);fill-opacity:0.5;"/>
        </g>
        <g transform="matrix(1,0,0,0.588514,144.191,-97.7991)">
            <path d="M382.657,412.843C350.153,417.031 306.142,407.041 290.761,441.263C288.982,445.222 285.091,447.978 286.036,452.942C288.977,468.409 375.475,461.297 386.153,461.051C407.947,460.55 441.432,470.984 461.531,460.969C481.729,450.905 472.332,427.447 457.461,419.395C433.845,406.606 408.083,409.567 382.657,412.843" style="fill:rgb(166,193,115);fill-opacity:0.5;"/>
        </g>
        <g transform="matrix(1,0,0,0.614779,473.386,-41.5288)">
            <path d="M382.657,412.843C350.153,417.031 306.142,407.041 290.761,441.263C288.982,445.222 285.091,447.978 286.036,452.942C288.977,468.409 375.475,461.297 386.153,461.051C407.947,460.55 441.432,470.984 461.531,460.969C481.729,450.905 472.332,427.447 457.461,419.395C433.845,406.606 408.083,409.567 382.657,412.843" style="fill:rgb(166,193,115);fill-opacity:0.5;"/>
        </g>
        <g transform="matrix(1,0,0,0.588514,36.3298,-59.067)">
            <path d="M382.657,412.843C350.153,417.031 306.142,407.041 290.761,441.263C288.982,445.222 285.091,447.978 286.036,452.942C288.977,468.409 375.475,461.297 386.153,461.051C407.947,460.55 441.432,470.984 461.531,460.969C481.729,450.905 472.332,427.447 457.461,419.395C433.845,406.606 408.083,409.567 382.657,412.843" style="fill:rgb(166,193,115);fill-opacity:0.5;"/>
        </g>
        <g transform="matrix(1,0,0,0.614779,365.525,-1.06804)">
            <path d="M382.657,412.843C350.153,417.031 306.142,407.041 290.761,441.263C288.982,445.222 285.091,447.978 286.036,452.942C288.977,468.409 375.475,461.297 386.153,461.051C407.947,460.55 441.432,470.984 461.531,460.969C481.729,450.905 472.332,427.447 457.461,419.395C433.845,406.606 408.083,409.567 382.657,412.843" style="fill:rgb(166,193,115);fill-opacity:0.5;"/>
        </g>
        <g transform="matrix(1,0,0,1,-582.364,64.8533)">
            <path d="M382.657,412.843C350.153,417.031 306.142,407.041 290.761,441.263C288.982,445.222 285.091,447.978 286.036,452.942C288.977,468.409 375.475,461.297 386.153,461.051C407.947,460.55 441.432,470.984 461.531,460.969C481.729,450.905 472.332,427.447 457.461,419.395C433.845,406.606 408.083,409.567 382.657,412.843" style="fill:rgb(166,193,115);fill-opacity:0.5;"/>
        </g>
        <g transform="matrix(1,0,0,1,407.678,-14.6252)">
            <path d="M382.657,412.843C350.153,417.031 306.142,407.041 290.761,441.263C288.982,445.222 285.091,447.978 286.036,452.942C288.977,468.409 375.475,461.297 386.153,461.051C407.947,460.55 441.432,470.984 461.531,460.969C481.729,450.905 472.332,427.447 457.461,419.395C433.845,406.606 408.083,409.567 382.657,412.843" style="fill:rgb(166,193,115);fill-opacity:0.5;"/>
        </g>
        <g transform="matrix(1,0,0,1,758.684,-89.5795)">
            <path d="M382.657,412.843C350.153,417.031 306.142,407.041 290.761,441.263C288.982,445.222 285.091,447.978 286.036,452.942C288.977,468.409 375.475,461.297 386.153,461.051C407.947,460.55 441.432,470.984 461.531,460.969C481.729,450.905 472.332,427.447 457.461,419.395C433.845,406.606 408.083,409.567 382.657,412.843" style="fill:rgb(166,193,115);fill-opacity:0.5;"/>
        </g>
        <g transform="matrix(1,0,0,1,-323.583,-14.6252)">
            <path d="M382.657,412.843C350.153,417.031 306.142,407.041 290.761,441.263C288.982,445.222 285.091,447.978 286.036,452.942C288.977,468.409 375.475,461.297 386.153,461.051C407.947,460.55 441.432,470.984 461.531,460.969C481.729,450.905 472.332,427.447 457.461,419.395C433.845,406.606 408.083,409.567 382.657,412.843" style="fill:rgb(166,193,115);fill-opacity:0.5;"/>
        </g>
        <g transform="matrix(1,0,0,1,784.278,43.8757)">
            <path d="M382.657,412.843C350.153,417.031 306.142,407.041 290.761,441.263C288.982,445.222 285.091,447.978 286.036,452.942C288.977,468.409 375.475,461.297 386.153,461.051C407.947,460.55 441.432,470.984 461.531,460.969C481.729,450.905 472.332,427.447 457.461,419.395C433.845,406.606 408.083,409.567 382.657,412.843" style="fill:rgb(166,193,115);fill-opacity:0.5;"/>
        </g>
        <g transform="matrix(1,0,0,1,-467.214,-71.0131)">
            <rect x="724.857" y="169.13" width="16.068" height="122.115" style="fill:rgb(226,191,142);"/>
        </g>
        <g transform="matrix(1,0,0,1,285.829,-71.0131)">
            <rect x="724.857" y="169.13" width="16.068" height="122.115" style="fill:rgb(226,191,142);"/>
        </g>
    </g>
    <g transform="matrix(0.0559924,0.376025,-2.67794,0.398761,2998.58,137.906)">
        <path d="M382.657,412.843C350.153,417.031 306.142,407.041 290.761,441.263C288.982,445.222 285.091,447.978 286.036,452.942C288.977,468.409 375.475,461.297 386.153,461.051C407.947,460.55 441.432,470.984 461.531,460.969C481.729,450.905 472.332,427.447 457.461,419.395C433.845,406.606 408.083,409.567 382.657,412.843" style="fill:rgb(166,193,115);fill-opacity:0.5;"/>
    </g>
</svg>
