<?xml version="1.0" encoding="UTF-8" standalone="no"?>
<!DOCTYPE svg PUBLIC "-//W3C//DTD SVG 1.1//EN" "http://www.w3.org/Graphics/SVG/1.1/DTD/svg11.dtd">
<svg width="100%" height="100%" viewBox="0 0 2134 1067" version="1.1" xmlns="http://www.w3.org/2000/svg" xmlns:xlink="http://www.w3.org/1999/xlink" xml:space="preserve" xmlns:serif="http://www.serif.com/" style="fill-rule:evenodd;clip-rule:evenodd;stroke-linejoin:round;stroke-miterlimit:2;">
    <g transform="matrix(1.33566,0,0,1.33566,-354.537,-1793.98)">
        <path d="M-5.008,1445.44C-9.245,1446.28 67.986,1439.31 84.65,1440.61C135.943,1444.6 189.826,1471.11 241.915,1473.71C296.608,1476.45 353.85,1449.82 408.337,1456.95C505.902,1469.73 597.341,1487.66 696.486,1491.31C816.986,1495.74 937.499,1499.94 1058.03,1503.52C1123.34,1505.46 1190.06,1510.83 1255.39,1507.24C1265.31,1506.69 1275.7,1500.06 1285.34,1497.34C1306.56,1491.35 1328.37,1487.45 1350.12,1484.03C1439.35,1469.99 1530.89,1462.78 1621.24,1462.66C1667.85,1462.6 1714.41,1452.4 1760.98,1455.89C1844.11,1462.12 1919.56,1481.87 2005.63,1485.84C2045.05,1487.66 2083.42,1484.13 2122.71,1484.89C2124.16,1484.92 2130.2,1484.61 2131.32,1486.48C2136.51,1495.21 2125.32,1509.36 2125.21,1520.1C2124.71,1565.86 2127.12,2146.9 2127.12,2146.9C2119.5,2162.71 -11.084,2144.75 -0.934,2138.78L-5.008,1445.44" style="fill:rgb(131,192,115);"/>
    </g>
    <g transform="matrix(1.33566,0,0,1.33566,-354.537,-1793.98)">
        <path d="M-3.082,1931.79C-21.027,1860 -11.786,1784.21 -8.058,1710.57C-4.655,1643.37 -5.033,1573.4 4.428,1507.18C11.594,1509.22 15.272,1518.76 24.694,1520.84C68.321,1530.44 123.343,1590.03 167.857,1591.56C230.378,1593.7 235.291,1585.39 297.722,1587.28C343.658,1588.66 392.678,1568.17 455.151,1565.35C582.812,1559.58 669.34,1568.08 796.722,1574.49C823.471,1575.84 879.052,1585.07 897.426,1558.82C905.584,1547.17 897.572,1502.89 909.674,1498.95C923.445,1494.48 1000.35,1499.65 1020.59,1499.65C1105.19,1499.65 1190.77,1495.82 1275.23,1498.74C1286.24,1499.13 1303.72,1523.01 1312.19,1530.51C1339.17,1554.38 1368.85,1575.76 1403.05,1587.89C1487,1617.66 1587.85,1601.44 1674.7,1599.46C1717.51,1598.49 1760.62,1589.55 1803.62,1587.25C1888.69,1582.69 1972.75,1581.59 2056.23,1587.7C2067.09,1588.5 2129.18,1586.06 2133.59,1589.87C2148.89,1603.09 2140.34,1645.42 2138.11,1663.25C2130.97,1720.43 2132.12,1775.42 2130.15,1832.62C2129.53,1850.46 2138.64,1879.03 2131.69,1895.5C2128.82,1902.29 2052.74,1901.18 2041.94,1901.38C1943.17,1903.21 1845.79,1880.78 1746.62,1885.91C1699.93,1888.33 1653.94,1897.2 1607.02,1896.95C1525.97,1896.53 1445.18,1889.56 1364.28,1886C1309.43,1883.6 1252.82,1887.89 1198.34,1892.52C1178.22,1894.23 1158.66,1889.7 1138.9,1889.62C1130.17,1889.59 1122.22,1892.93 1113.39,1892.43C1097.03,1891.51 1077.1,1883.83 1060.73,1885.73C1033.03,1888.95 1000.25,1886.81 972.245,1882.93C938.949,1878.32 908.534,1869.99 874.621,1869.99C757.906,1869.99 628.272,1928.67 514.981,1914.05C500.689,1912.21 487.105,1907.09 473.001,1904.37C437.349,1897.5 383.13,1896.8 346.975,1894.55C258.683,1889.07 190.287,1879.76 103.137,1902.74C70.205,1911.43 35.778,1918.06 3.523,1927.99C0.453,1928.93 -0.186,1927.98 -0.186,1930.79" style="fill:rgb(165,193,116);"/>
    </g>
    <g transform="matrix(1.33566,0,0,1.33566,-354.537,-1793.98)">
        <path d="M11.732,1556.58C42.686,1587.54 214.039,1614.86 274.836,1616.48C328.349,1617.91 480.316,1613.14 540.026,1616.46C599.465,1619.76 659.693,1608.9 719.665,1612.6C754.024,1614.72 895.555,1629.25 911.887,1602.18C921.278,1586.62 924.212,1512.76 930.45,1501.92C930.585,1501.69 933.288,1501.92 933.524,1501.92C958.998,1501.88 984.472,1501.9 1009.95,1501.9C1090.23,1501.9 1171.15,1498.91 1251.32,1500.66C1258.17,1500.81 1261.84,1505.66 1267.86,1508.42C1308.06,1526.85 1312.19,1554.3 1336.97,1587.4C1351.14,1606.32 1369.18,1625.3 1386.23,1641.7C1387.7,1643.11 1439.88,1640.24 1444.49,1640.07C1499.66,1638.01 1554.81,1635.68 1609.97,1633.36C1676.96,1630.54 1742.95,1617.75 1810.38,1618.39C1872.97,1619 1933.87,1631.14 1996.78,1630.47C2034.64,1630.06 2104.37,1606.9 2138.11,1631.27C2140.37,1632.91 2138.27,1640.43 2138.27,1642.86C2138.27,1659.96 2144.1,1675.7 2142.61,1693.08C2139.8,1725.87 2131.3,1759.51 2132.47,1792.4C2133.18,1812.16 2140.94,1838.32 2137.95,1857.27C2137.35,1861.03 2081.28,1851.95 2071.47,1851.48C2023.74,1849.2 1975.22,1848.83 1927.72,1844.39C1851.23,1837.26 1770.91,1830.83 1694.16,1830.23C1600.91,1829.5 1507.37,1842.65 1413.59,1841.82C1351.08,1841.27 1290.21,1829.22 1228,1825.72C1038.41,1815.06 847.37,1850.1 657.692,1848.26C582.692,1847.53 507.102,1835.73 433.626,1827.82C394.668,1823.62 311.988,1832.64 272.389,1834.47C223.539,1836.72 72.347,1816.92 37.809,1844.56C35.332,1846.54 17.746,1861.23 13.986,1858.72C9.589,1855.79 13.938,1839.78 14.469,1835.86C26.963,1743.71 0.259,1646.6 5.132,1554.01" style="fill:rgb(222,226,142);"/>
    </g>
    <g transform="matrix(1.33566,0,0,1.33566,-1035.12,-1842.02)">
        <path d="M860.717,1521.85C861.11,1521.46 860.727,1520.11 860.44,1518.53C857.026,1499.75 848.737,1481.86 845.637,1462.64C845.558,1462.14 844.021,1454.98 843.838,1455.17C841.707,1457.3 869.631,1473.26 873.169,1475.09C878.943,1478.07 884.705,1481.63 889.494,1486.02C890.031,1486.51 893.715,1491.9 894.336,1491.28C908.438,1477.17 904.419,1413.25 931.276,1399.83C932.811,1399.06 946.451,1441.8 948.432,1445.76C949.11,1447.11 950.808,1461.3 952.859,1459.18C969.964,1441.48 991.416,1417.47 1018.58,1416.29C1022.6,1416.11 1001.16,1462.51 1002.8,1464.16C1005.54,1466.89 1017.46,1458.64 1020.24,1457.8C1032.75,1453.98 1066.01,1459.82 1074.88,1470.38C1076.64,1472.48 1048.43,1483.27 1046.38,1484.22C1046.07,1484.37 1039.47,1487.29 1039.47,1486.43C1039.47,1482.95 1046.21,1488.15 1049.57,1489.06C1054.7,1490.45 1069.66,1503.79 1068.66,1510.78C1067.72,1517.36 1049,1524.69 1043.48,1526.69C1042.56,1527.03 1042.24,1527.38 1042.65,1526.97" style="fill:rgb(131,193,114);"/>
    </g>
    <g transform="matrix(1.21899,0,0,1.17603,624.972,-1625.25)">
        <path d="M860.717,1521.85C861.11,1521.46 860.727,1520.11 860.44,1518.53C857.026,1499.75 848.737,1481.86 845.637,1462.64C845.558,1462.14 844.021,1454.98 843.838,1455.17C841.707,1457.3 869.631,1473.26 873.169,1475.09C878.943,1478.07 884.705,1481.63 889.494,1486.02C890.031,1486.51 893.715,1491.9 894.336,1491.28C894.689,1490.92 895.031,1490.54 895.362,1490.12C895.362,1491.27 894.214,1487.94 894.452,1486.83C899.541,1462.89 886.413,1438.13 877.617,1416.3C876.94,1414.62 872.681,1412.08 874.433,1411.94C918.451,1408.44 916.478,1418.71 952.498,1459.39C952.579,1459.48 952.737,1459.3 952.859,1459.18C962.05,1449.67 962.549,1412.26 975.818,1409.55C989.173,1406.81 992.376,1466.5 993.912,1466.25C1007.19,1464.05 1018.61,1445.89 1028.43,1437.56C1032.24,1434.33 1040.59,1427.51 1043.94,1434.93C1049.2,1446.52 1036.88,1508.92 1027.9,1507.85C1026.33,1507.67 1033.29,1499.91 1033.6,1499.47C1037.56,1493.92 1040.76,1487.59 1045.76,1482.91C1050.96,1478.06 1058.59,1480.03 1062.33,1474.39C1075.33,1470.97 1097.86,1465.17 1101.79,1470.81C1102.07,1471.2 1090.58,1481.13 1089.56,1482.05C1081.47,1489.28 1053.35,1511.86 1053.72,1522.47C1049.54,1524.42 1045.57,1525.94 1043.48,1526.69C1042.56,1527.03 1042.24,1527.38 1042.65,1526.97" style="fill:rgb(131,193,114);"/>
    </g>
    <path d="M389.872,410.127C368.969,420.579 247.819,410.181 242.65,420.519C237.832,430.156 291.262,451.734 301.539,455.16C344.369,469.436 414.206,456.892 460.885,456.892C472.383,456.892 512.384,457.354 518.042,451.696C548.357,421.381 441.532,413.29 440.101,411.859C431.31,403.068 394.791,415.323 382.944,415.323" style="fill:rgb(166,193,115);fill-opacity:0.5;"/>
    <g transform="matrix(1,0,0,1,982.492,114.314)">
        <path d="M382.657,412.843C350.153,417.031 306.142,407.041 290.761,441.263C288.982,445.222 285.091,447.978 286.036,452.942C288.977,468.409 375.475,461.297 386.153,461.051C407.947,460.55 441.432,470.984 461.531,460.969C481.729,450.905 472.332,427.447 457.461,419.395C433.845,406.606 408.083,409.567 382.657,412.843" style="fill:rgb(166,193,115);fill-opacity:0.5;"/>
        <g transform="matrix(0.642408,0,0,0.773064,-199.039,-116.168)">
            <path d="M382.657,412.843C350.153,417.031 306.142,407.041 290.761,441.263C288.982,445.222 285.091,447.978 286.036,452.942C288.977,468.409 375.475,461.297 386.153,461.051C407.947,460.55 441.432,470.984 461.531,460.969C481.729,450.905 472.332,427.447 457.461,419.395C433.845,406.606 408.083,409.567 382.657,412.843" style="fill:rgb(166,193,115);fill-opacity:0.5;"/>
        </g>
        <g transform="matrix(0.564185,0,0,0.470482,40.9089,-65.3303)">
            <path d="M382.657,412.843C350.153,417.031 306.142,407.041 290.761,441.263C288.982,445.222 285.091,447.978 286.036,452.942C288.977,468.409 375.475,461.297 386.153,461.051C407.947,460.55 441.432,470.984 461.531,460.969C481.729,450.905 472.332,427.447 457.461,419.395C433.845,406.606 408.083,409.567 382.657,412.843" style="fill:rgb(166,193,115);fill-opacity:0.5;"/>
        </g>
        <g transform="matrix(0.564185,0,0,0.470482,-174.583,-84.1597)">
            <path d="M382.657,412.843C350.153,417.031 306.142,407.041 290.761,441.263C288.982,445.222 285.091,447.978 286.036,452.942C288.977,468.409 375.475,461.297 386.153,461.051C407.947,460.55 441.432,470.984 461.531,460.969C481.729,450.905 472.332,427.447 457.461,419.395C433.845,406.606 408.083,409.567 382.657,412.843" style="fill:rgb(166,193,115);fill-opacity:0.5;"/>
        </g>
    </g>
    <g transform="matrix(1,0,0,1,467.214,71.0131)">
        <path d="M382.657,412.843C350.153,417.031 306.142,407.041 290.761,441.263C288.982,445.222 285.091,447.978 286.036,452.942C288.977,468.409 375.475,461.297 386.153,461.051C407.947,460.55 441.432,470.984 461.531,460.969C481.729,450.905 472.332,427.447 457.461,419.395C433.845,406.606 408.083,409.567 382.657,412.843" style="fill:rgb(166,193,115);fill-opacity:0.5;"/>
    </g>
    <g transform="matrix(0.0559924,0.376025,-2.67794,0.398761,2998.58,137.906)">
        <path d="M382.657,412.843C350.153,417.031 306.142,407.041 290.761,441.263C288.982,445.222 285.091,447.978 286.036,452.942C288.977,468.409 375.475,461.297 386.153,461.051C407.947,460.55 441.432,470.984 461.531,460.969C481.729,450.905 472.332,427.447 457.461,419.395C433.845,406.606 408.083,409.567 382.657,412.843" style="fill:rgb(166,193,115);fill-opacity:0.5;"/>
    </g>
</svg>
