<?xml version="1.0" encoding="UTF-8" standalone="no"?>
<!DOCTYPE svg PUBLIC "-//W3C//DTD SVG 1.1//EN" "http://www.w3.org/Graphics/SVG/1.1/DTD/svg11.dtd">
<svg width="100%" height="100%" viewBox="0 0 2134 3792" version="1.1" xmlns="http://www.w3.org/2000/svg" xmlns:xlink="http://www.w3.org/1999/xlink" xml:space="preserve" xmlns:serif="http://www.serif.com/" style="fill-rule:evenodd;clip-rule:evenodd;stroke-linejoin:round;stroke-miterlimit:2;">
    <g transform="matrix(1.33566,0,0,2.28687,-364.929,-585.833)">
        <rect x="-6.682" y="-6.103" width="2136.77" height="1610.6" style="fill:rgb(242,242,242);"/>
    </g>
    <g transform="matrix(1.33566,0,0,1.16574,-345.325,1237.98)">
        <path d="M-74.175,1186.38C-82.641,1153.23 -63.989,956.221 -37.493,939.072C-2.959,916.722 51.623,921.212 90.256,910.16C164.103,889.034 224.023,858.587 303.234,854.733C434.573,811.477 584.163,809.534 717.55,833.155C879.699,861.869 1025.01,907.941 1179.34,963.94C1245.55,987.964 1319.55,1004.4 1380.88,1039.74C1490.39,1102.82 1581.65,1191.77 1696.99,1245.88C1816.18,1301.8 1933.36,1361.87 2052.32,1417.85C2111.54,1445.72 2184.7,1471.16 2235.68,1513.15C2233.79,1513.15 2235.24,1522.97 2235.24,1525.63C2235.24,1553.91 2243.68,1594.24 2211.14,1599.9C1794.67,1672.33 1373.87,1579.23 955.894,1597.05C799.5,1603.72 640.142,1601.96 484.464,1617.42C361.132,1629.68 111.328,1681.4 -3.396,1660.36C-31.532,1655.2 -65.386,1637.6 -74.155,1607.79C-81.163,1583.96 -80.957,1348.03 -74.175,1186.38Z" style="fill:rgb(217,217,217);"/>
    </g>
    <g transform="matrix(-1.33566,0,0,1.04694,2539.05,1438.75)">
        <path d="M-3.615,1009.73C-6.679,1015.85 8.121,1002.65 13.91,998.991C32.351,987.319 51.945,977.783 70.429,966.13C121.598,933.871 176.313,910.202 230.566,883.979C377.13,813.139 558.813,805.045 717.55,833.155C879.699,861.869 1025.01,907.941 1179.34,963.94C1245.55,987.964 1319.55,1004.4 1380.88,1039.74C1490.39,1102.82 1581.65,1191.77 1696.99,1245.88C1816.18,1301.8 1933.36,1361.87 2052.32,1417.85C2111.54,1445.72 2184.7,1471.16 2235.68,1513.15C2233.79,1513.15 2235.24,1522.97 2235.24,1525.63C2235.24,1553.91 2243.68,1594.24 2211.14,1599.9C1794.67,1672.33 1373.87,1579.23 955.894,1597.05C799.5,1603.72 640.142,1601.96 484.464,1617.42C361.132,1629.68 111.328,1681.4 -3.396,1660.36C-31.532,1655.2 -65.386,1637.6 -74.155,1607.79C-84.411,1572.91 -79.217,1083.82 -60.573,1037.99C-55.151,1024.66 -39.283,1028.92 -27.713,1026.15C2.524,1018.93 30.683,997.687 53.561,977.741" style="fill:rgb(204,204,204);"/>
    </g>
    <g transform="matrix(1.33566,0,0,1.33566,-335.669,924.59)">
        <path d="M294.222,1472.58C244.216,1469.12 192.192,1470.57 151.358,1454.23C169.414,1438.82 202.969,1414.82 214.608,1379.89C220.603,1361.9 237.677,1355.61 247.558,1341.24C260.443,1322.5 267.8,1294.82 275.19,1273.31C362.231,1019.95 403.186,753.092 447.076,489.749C463.362,392.032 490.122,293.907 498.995,195.319C502.024,161.652 501.671,128.27 500.09,94.547C499.479,81.513 503.931,56.989 497.023,45.475C496.488,44.584 494.941,44.051 495.489,44.599C492.94,8.626 492.5,-19.086 496.512,-28.448C499.325,-35.012 510.878,-31.185 516.009,-31.077C572.35,-29.89 741.447,-70.277 785.46,-40.935C787.234,-39.752 765.649,30.626 765.306,32.016C673.232,404.925 603.94,1053.53 684.471,1426.4C691.308,1458.05 700.277,1489.17 708.787,1520.38C709.249,1522.07 710.321,1527.17 710.321,1525.42C710.321,1497.95 540.655,1509.88 512.066,1513.37C501.918,1514.61 477.727,1516.82 448.832,1518.68C424.018,1516.32 397.927,1495.95 374.688,1487.26C350.1,1478.07 322.483,1474.54 294.222,1472.58" style="fill:rgb(140,140,140);"/>
    </g>
    <g transform="matrix(-1.32106,-0.196937,-0.196937,1.32106,2742.34,1056.87)">
        <path d="M294.222,1472.58C244.216,1469.12 192.192,1470.57 151.358,1454.23C169.414,1438.82 202.969,1414.82 214.608,1379.89C220.603,1361.9 237.677,1355.61 247.558,1341.24C260.443,1322.5 267.8,1294.82 275.19,1273.31C362.231,1019.95 403.186,753.092 447.076,489.749C463.362,392.032 490.122,293.907 498.995,195.319C502.024,161.652 501.671,128.27 500.09,94.547C499.479,81.513 503.931,56.989 497.023,45.475C496.488,44.584 494.941,44.051 495.489,44.599C492.94,8.626 492.5,-19.086 496.512,-28.448C499.325,-35.012 510.878,-31.185 516.009,-31.077C572.35,-29.89 741.447,-70.277 785.46,-40.935C787.234,-39.752 765.649,30.626 765.306,32.016C673.232,404.925 603.94,1053.53 684.471,1426.4C691.308,1458.05 700.277,1489.17 708.787,1520.38C709.249,1522.07 710.321,1527.17 710.321,1525.42C710.321,1497.95 540.655,1509.88 512.066,1513.37C501.918,1514.61 477.727,1516.82 448.832,1518.68C424.018,1516.32 397.927,1495.95 374.688,1487.26C350.1,1478.07 322.483,1474.54 294.222,1472.58" style="fill:rgb(140,140,140);"/>
    </g>
    <g transform="matrix(1.33566,0,0,1.33566,-364.929,940.39)">
        <path d="M-5.008,1445.44C-9.245,1446.28 67.986,1439.31 84.65,1440.61C135.943,1444.6 189.826,1436.88 241.915,1439.48C296.608,1442.21 351.776,1441.52 406.262,1448.65C503.827,1461.43 597.341,1487.67 696.486,1491.31C808.696,1495.44 919.732,1521.65 1032.75,1514.33C1229.94,1501.56 1422.56,1462.93 1621.24,1462.66C1667.85,1462.6 1714.41,1452.4 1760.98,1455.89C1844.11,1462.12 1919.56,1481.87 2005.63,1485.84C2045.05,1487.66 2083.42,1484.13 2122.71,1484.89C2124.16,1484.92 2130.2,1484.61 2131.32,1486.48C2136.51,1495.21 2125.32,1509.36 2125.21,1520.1C2124.71,1565.86 2129.14,2126.64 2129.14,2126.64C2121.53,2142.45 -11.084,2144.75 -0.934,2138.78L-5.008,1445.44Z" style="fill:rgb(179,179,179);"/>
    </g>
    <g transform="matrix(1.33566,0,0,1.33566,-364.929,940.39)">
        <path d="M-3.082,1931.79C-21.027,1860 -11.786,1784.21 -8.058,1710.57C-4.655,1643.37 -5.033,1573.4 4.428,1507.18C11.594,1509.22 15.272,1518.76 24.694,1520.84C68.321,1530.44 118.156,1517.41 162.67,1518.94C225.191,1521.08 287.256,1531.48 349.592,1535.4C371.668,1536.79 393.716,1532.9 415.73,1534.23C543.289,1541.91 669.34,1568.08 796.722,1574.49C830.994,1576.22 864.027,1571.24 898.055,1570.42C1032.76,1567.17 1164.11,1598.26 1298.05,1604.35C1346.53,1606.55 1394.03,1599.46 1442.27,1599.46C1519.78,1599.46 1597.12,1601.19 1674.7,1599.46C1717.51,1598.51 1760.62,1589.55 1803.62,1587.25C1888.69,1582.69 1972.75,1581.59 2056.23,1587.7C2067.09,1588.5 2129.18,1586.06 2133.59,1589.87C2148.89,1603.09 2140.34,1645.42 2138.11,1663.25C2130.97,1720.43 2132.12,1775.42 2130.15,1832.62C2129.53,1850.46 2138.64,1879.03 2131.69,1895.5C2128.82,1902.29 2052.74,1901.18 2041.94,1901.38C1943.17,1903.21 1845.79,1880.78 1746.62,1885.91C1699.93,1888.33 1653.94,1897.2 1607.02,1896.95C1525.97,1896.53 1445.18,1889.56 1364.28,1886C1309.43,1883.6 1252.82,1887.89 1198.34,1892.52C1178.22,1894.23 1158.66,1889.7 1138.9,1889.62C1130.17,1889.59 1122.22,1892.93 1113.39,1892.43C1097.03,1891.51 1077.1,1883.83 1060.73,1885.73C1033.03,1888.95 1000.25,1886.81 972.245,1882.93C938.949,1878.32 908.534,1869.99 874.621,1869.99C757.906,1869.99 628.272,1928.67 514.981,1914.05C500.689,1912.21 487.105,1907.09 473.001,1904.37C437.349,1897.5 400.765,1895.76 364.611,1893.51C276.319,1888.03 190.287,1879.76 103.137,1902.74C70.205,1911.43 35.778,1918.06 3.523,1927.99C0.453,1928.93 -0.186,1927.98 -0.186,1930.79" style="fill:rgb(191,191,191);"/>
    </g>
    <g transform="matrix(1.33566,0,0,1.33566,-364.929,940.39)">
        <path d="M11.732,1556.58C42.686,1587.54 300.082,1579.58 359.904,1590.55C418.604,1601.31 480.316,1613.14 540.026,1616.46C599.465,1619.76 659.693,1608.9 719.665,1612.6C1016.74,1630.91 1312,1645.88 1609.97,1633.36C1676.96,1630.55 1742.95,1617.75 1810.38,1618.39C1872.97,1619 1933.87,1631.14 1996.78,1630.47C2034.64,1630.06 2104.37,1606.9 2138.11,1631.27C2140.37,1632.91 2138.27,1640.43 2138.27,1642.86C2138.27,1659.96 2144.1,1675.7 2142.61,1693.08C2139.8,1725.87 2131.3,1759.51 2132.47,1792.4C2133.18,1812.16 2140.94,1838.32 2137.95,1857.27C2137.35,1861.03 2081.28,1851.95 2071.47,1851.48C2023.74,1849.2 1975.22,1848.83 1927.72,1844.39C1851.23,1837.26 1770.91,1830.83 1694.16,1830.23C1600.91,1829.5 1507.37,1842.65 1413.59,1841.82C1351.08,1841.27 1290.21,1829.22 1228,1825.72C1038.41,1815.06 847.37,1850.1 657.692,1848.26C582.692,1847.53 507.102,1835.73 433.626,1827.82C394.668,1823.62 355.559,1810.86 315.96,1812.68C267.111,1814.94 72.347,1816.92 37.809,1844.56C35.332,1846.54 17.746,1861.23 13.986,1858.72C9.589,1855.79 13.938,1839.78 14.469,1835.86C26.963,1743.71 0.259,1646.6 5.132,1554.01" style="fill:rgb(204,204,204);"/>
    </g>
    <g transform="matrix(1.33566,0,0,1.33566,-1045.51,892.344)">
        <path d="M860.717,1521.85C861.11,1521.46 860.727,1520.11 860.44,1518.53C857.026,1499.75 848.737,1481.86 845.637,1462.64C845.558,1462.14 844.021,1454.98 843.838,1455.17C841.707,1457.3 869.631,1473.26 873.169,1475.09C878.943,1478.07 884.705,1481.63 889.494,1486.02C890.031,1486.51 893.715,1491.9 894.336,1491.28C908.438,1477.17 904.419,1413.25 931.276,1399.83C932.811,1399.06 946.451,1441.8 948.432,1445.76C949.11,1447.11 950.808,1461.3 952.859,1459.18C969.964,1441.48 991.416,1417.47 1018.58,1416.29C1022.6,1416.11 1001.16,1462.51 1002.8,1464.16C1005.54,1466.89 1017.46,1458.64 1020.24,1457.8C1032.75,1453.98 1066.01,1459.82 1074.88,1470.38C1076.64,1472.48 1048.43,1483.27 1046.38,1484.22C1046.07,1484.37 1039.47,1487.29 1039.47,1486.43C1039.47,1482.95 1046.21,1488.15 1049.57,1489.06C1054.7,1490.45 1069.66,1503.79 1068.66,1510.78C1067.72,1517.36 1049,1524.69 1043.48,1526.69C1042.56,1527.03 1042.24,1527.38 1042.65,1526.97" style="fill:rgb(179,179,179);"/>
    </g>
    <g transform="matrix(1.21899,0,0,1.17603,426.286,1142.59)">
        <path d="M860.717,1521.85C861.11,1521.46 860.727,1520.11 860.44,1518.53C857.026,1499.75 848.737,1481.86 845.637,1462.64C845.558,1462.14 844.021,1454.98 843.838,1455.17C841.707,1457.3 869.631,1473.26 873.169,1475.09C878.943,1478.07 884.705,1481.63 889.494,1486.02C890.031,1486.51 893.715,1491.9 894.336,1491.28C894.689,1490.92 895.031,1490.54 895.362,1490.12C895.362,1491.27 894.214,1487.94 894.452,1486.83C899.541,1462.89 886.413,1438.13 877.617,1416.3C876.94,1414.62 872.681,1412.08 874.433,1411.94C918.451,1408.44 916.478,1418.71 952.498,1459.39C952.579,1459.48 952.737,1459.3 952.859,1459.18C962.05,1449.67 962.549,1412.26 975.818,1409.55C989.173,1406.81 992.376,1466.5 993.912,1466.25C1007.19,1464.05 1018.61,1445.89 1028.43,1437.56C1032.24,1434.33 1040.59,1427.51 1043.94,1434.93C1048.2,1444.32 1044.84,1456.41 1043,1466.02C1042.61,1468.05 1039.95,1475.63 1041.29,1476.93C1043.58,1479.15 1051.9,1476.87 1054.48,1476.36C1061.95,1474.89 1096.81,1463.66 1101.79,1470.81C1102.07,1471.2 1090.58,1481.13 1089.56,1482.05C1081.47,1489.28 1053.35,1511.86 1053.72,1522.47C1049.54,1524.42 1045.57,1525.94 1043.48,1526.69C1042.56,1527.03 1042.24,1527.38 1042.65,1526.97" style="fill:rgb(179,179,179);"/>
    </g>
    <g transform="matrix(1.15719,0,0,1.15719,816.07,152.221)">
        <circle cx="-666.11" cy="562.179" r="377.22" style="fill:rgb(140,140,140);"/>
    </g>
    <g transform="matrix(1.15719,0,0,1.15719,720.319,-529.307)">
        <circle cx="-666.11" cy="562.179" r="377.22" style="fill:rgb(140,140,140);"/>
    </g>
    <g transform="matrix(1.15719,0,0,1.15719,1114.59,-33.6506)">
        <circle cx="-666.11" cy="562.179" r="377.22" style="fill:rgb(140,140,140);"/>
    </g>
    <g transform="matrix(1.15719,0,0,1.15719,1514.5,129.691)">
        <circle cx="-666.11" cy="562.179" r="377.22" style="fill:rgb(140,140,140);"/>
    </g>
    <g transform="matrix(1.15719,0,0,1.15719,1965.09,259.237)">
        <circle cx="-666.11" cy="562.179" r="377.22" style="fill:rgb(140,140,140);"/>
    </g>
    <g transform="matrix(1.15719,0,0,1.15719,1976.36,-191.359)">
        <circle cx="-666.11" cy="562.179" r="377.22" style="fill:rgb(140,140,140);"/>
    </g>
    <g transform="matrix(1.15719,0,0,1.15719,2365,-78.7102)">
        <circle cx="-666.11" cy="562.179" r="377.22" style="fill:rgb(140,140,140);"/>
    </g>
    <g transform="matrix(1.15719,0,0,1.15719,2691.68,462.006)">
        <circle cx="-666.11" cy="562.179" r="377.22" style="fill:rgb(140,140,140);"/>
    </g>
    <g transform="matrix(1.15719,0,0,1.15719,2950.77,202.913)">
        <circle cx="-666.11" cy="562.179" r="377.22" style="fill:rgb(140,140,140);"/>
    </g>
    <g transform="matrix(1.15719,0,0,1.15719,2804.33,-461.717)">
        <circle cx="-666.11" cy="562.179" r="377.22" style="fill:rgb(140,140,140);"/>
    </g>
    <g transform="matrix(1.15719,0,0,1.15719,2860.65,-951.741)">
        <circle cx="-666.11" cy="562.179" r="377.22" style="fill:rgb(140,140,140);"/>
    </g>
    <g transform="matrix(1.15719,0,0,1.15719,1694.73,-861.622)">
        <circle cx="-666.11" cy="562.179" r="377.22" style="fill:rgb(140,140,140);"/>
    </g>
    <g transform="matrix(1,0,0,1,720.368,-365.051)">
        <circle cx="-666.11" cy="562.179" r="377.22" style="fill:rgb(140,140,140);"/>
    </g>
    <g transform="matrix(1.15719,0,0,1.15719,1497.6,-822.195)">
        <circle cx="-666.11" cy="562.179" r="377.22" style="fill:rgb(140,140,140);"/>
    </g>
    <g transform="matrix(1,0,0,1,1323.92,-413.725)">
        <circle cx="-666.11" cy="562.179" r="377.22" style="fill:rgb(140,140,140);"/>
    </g>
    <g transform="matrix(1.15719,0,0,1.15719,1480.7,-416.658)">
        <circle cx="-666.11" cy="562.179" r="377.22" style="fill:rgb(140,140,140);"/>
    </g>
    <g transform="matrix(1.15719,0,0,1.15719,2224.19,-608.161)">
        <circle cx="-666.11" cy="562.179" r="377.22" style="fill:rgb(140,140,140);"/>
    </g>
    <g transform="matrix(1,0,0,1,1961.54,-374.786)">
        <circle cx="-666.11" cy="562.179" r="377.22" style="fill:rgb(140,140,140);"/>
    </g>
    <g transform="matrix(1,0,0,1,2146.5,-350.449)">
        <circle cx="-666.11" cy="562.179" r="377.22" style="fill:rgb(140,140,140);"/>
    </g>
</svg>
