<?xml version="1.0" encoding="UTF-8" standalone="no"?>
<!DOCTYPE svg PUBLIC "-//W3C//DTD SVG 1.1//EN" "http://www.w3.org/Graphics/SVG/1.1/DTD/svg11.dtd">
<svg width="100%" height="100%" viewBox="0 0 2700 3600" version="1.1" xmlns="http://www.w3.org/2000/svg" xmlns:xlink="http://www.w3.org/1999/xlink" xml:space="preserve" xmlns:serif="http://www.serif.com/" style="fill-rule:evenodd;clip-rule:evenodd;stroke-linejoin:round;stroke-miterlimit:2;">
    <g transform="matrix(1.33566,0,0,1.33566,546.52,1514.29)">
        <path d="M294.222,1472.58C244.216,1469.12 192.192,1470.57 151.358,1454.23C169.414,1438.82 202.969,1414.82 214.608,1379.89C220.603,1361.9 237.677,1355.61 247.558,1341.24C260.443,1322.5 267.8,1294.82 275.19,1273.31C362.231,1019.95 403.186,753.092 447.076,489.749C463.362,392.032 490.122,293.907 498.995,195.319C502.024,161.652 501.671,128.27 500.09,94.547C499.479,81.513 503.931,56.989 497.023,45.475C496.488,44.584 494.941,44.051 495.489,44.599C492.94,8.626 492.5,-19.086 496.512,-28.448C499.325,-35.012 510.878,-31.185 516.009,-31.077C572.35,-29.89 741.447,-70.277 785.46,-40.935C787.234,-39.752 765.649,30.626 765.306,32.016C673.232,404.925 603.94,1053.53 684.471,1426.4C691.308,1458.05 700.277,1489.17 708.787,1520.38C709.249,1522.07 710.321,1527.17 710.321,1525.42C710.321,1497.95 540.655,1509.88 512.066,1513.37C501.918,1514.61 477.727,1516.82 448.832,1518.68C424.018,1516.32 397.927,1495.95 374.688,1487.26C350.1,1478.07 322.483,1474.54 294.222,1472.58" style="fill:rgb(152,109,75);"/>
    </g>
    <g transform="matrix(1,0,0,1,-7.63872,2.23424)">
        <path d="M1201.33,2300.24C1197.74,2306.77 1194.41,2313.09 1189.23,2318.27C1185.53,2321.97 1187.3,2337.74 1187.3,2343.39C1184.21,2361.43 1181.59,2376.41 1175.68,2382.33C1172.59,2385.42 1172.25,2410.88 1166.02,2417.11C1158.87,2424.26 1161.48,2468.02 1152.49,2477.02C1149.34,2480.16 1146.52,2507.87 1142.94,2530.59C1139.6,2530.59 1141.01,2535.43 1141.01,2538.32C1141.01,2551.65 1137.61,2592.05 1131.47,2598.24C1121.5,2608.29 1099.31,2685.28 1099.51,2706.56C1099.62,2718.79 1078.1,2781.04 1086.82,2789.76C1087.12,2790.06 1089.88,2794.42 1090.68,2793.62C1105.88,2778.43 1099.86,2714.88 1110,2704.73C1125.98,2688.76 1127.75,2654.14 1142.85,2639.03C1147.04,2634.85 1140.6,2620.03 1144.79,2615.85C1149.07,2611.56 1202.76,2443.85 1202.76,2432.28C1202.76,2402.61 1225.11,2266.93 1233.67,2258.37C1233.86,2258.18 1239.47,2198.91 1239.47,2194.6L1239.47,2179.14C1239.47,2179.14 1237.54,2188.11 1237.54,2192.67C1237.54,2198.95 1227.83,2246.82 1224.01,2250.64C1217.27,2257.38 1220.17,2275.74 1214.35,2281.55C1208.5,2287.4 1204.8,2293.91 1201.33,2300.24Z" style="fill:rgb(130,94,59);"/>
    </g>
    <g transform="matrix(0.98888,-0.148716,0.148716,0.98888,-226.225,706.355)">
        <path d="M1201.33,2300.24C1197.74,2306.77 1194.41,2313.09 1189.23,2318.27C1185.53,2321.97 1187.3,2337.74 1187.3,2343.39C1184.21,2361.43 1181.59,2376.41 1175.68,2382.33C1172.59,2385.42 1172.25,2410.88 1166.02,2417.11C1158.87,2424.26 1161.48,2468.02 1152.49,2477.02C1149.34,2480.16 1146.52,2507.87 1142.94,2530.59C1139.6,2530.59 1141.01,2535.43 1141.01,2538.32C1141.01,2551.65 1137.61,2592.05 1131.47,2598.24C1121.5,2608.29 1099.31,2685.28 1099.51,2706.56C1099.62,2718.79 1078.1,2781.04 1086.82,2789.76C1087.12,2790.06 1089.88,2794.42 1090.68,2793.62C1105.88,2778.43 1099.86,2714.88 1110,2704.73C1125.98,2688.76 1127.75,2654.14 1142.85,2639.03C1147.04,2634.85 1140.6,2620.03 1144.79,2615.85C1149.07,2611.56 1202.76,2443.85 1202.76,2432.28C1202.76,2402.61 1225.11,2266.93 1233.67,2258.37C1233.86,2258.18 1239.47,2198.91 1239.47,2194.6L1239.47,2179.14C1239.47,2179.14 1237.54,2188.11 1237.54,2192.67C1237.54,2198.95 1227.83,2246.82 1224.01,2250.64C1217.27,2257.38 1220.17,2275.74 1214.35,2281.55C1208.5,2287.4 1204.8,2293.91 1201.33,2300.24Z" style="fill:rgb(130,94,59);"/>
    </g>
    <g transform="matrix(1,0,0,1,216.42,-477.284)">
        <path d="M1201.33,2300.24C1197.74,2306.77 1194.41,2313.09 1189.23,2318.27C1185.53,2321.97 1187.3,2337.74 1187.3,2343.39C1184.21,2361.43 1181.59,2376.41 1175.68,2382.33C1172.59,2385.42 1172.25,2410.88 1166.02,2417.11C1158.87,2424.26 1161.48,2468.02 1152.49,2477.02C1149.34,2480.16 1146.52,2507.87 1142.94,2530.59C1139.6,2530.59 1141.01,2535.43 1141.01,2538.32C1141.01,2551.65 1137.61,2592.05 1131.47,2598.24C1121.5,2608.29 1099.31,2685.28 1099.51,2706.56C1099.62,2718.79 1078.1,2781.04 1086.82,2789.76C1087.12,2790.06 1089.88,2794.42 1090.68,2793.62C1105.88,2778.43 1099.86,2714.88 1110,2704.73C1125.98,2688.76 1127.75,2654.14 1142.85,2639.03C1147.04,2634.85 1140.6,2620.03 1144.79,2615.85C1149.07,2611.56 1202.76,2443.85 1202.76,2432.28C1202.76,2402.61 1225.11,2266.93 1233.67,2258.37C1233.86,2258.18 1239.47,2198.91 1239.47,2194.6L1239.47,2179.14C1239.47,2179.14 1237.54,2188.11 1237.54,2192.67C1237.54,2198.95 1227.83,2246.82 1224.01,2250.64C1217.27,2257.38 1220.17,2275.74 1214.35,2281.55C1208.5,2287.4 1204.8,2293.91 1201.33,2300.24Z" style="fill:rgb(130,94,59);"/>
    </g>
    <g transform="matrix(0.988778,0,0,1.05497,18.0902,82.2759)">
        <g transform="matrix(1.15719,0,0,1.15719,1698.26,741.919)">
            <circle cx="-666.11" cy="562.179" r="377.22" style="fill:rgb(80,103,47);"/>
        </g>
        <g transform="matrix(1.15719,0,0,1.15719,2396.68,719.389)">
            <circle cx="-666.11" cy="562.179" r="377.22" style="fill:rgb(80,103,47);"/>
        </g>
        <g transform="matrix(1.15719,0,0,1.15719,2847.28,848.936)">
            <circle cx="-666.11" cy="562.179" r="377.22" style="fill:rgb(80,103,47);"/>
        </g>
        <g transform="matrix(1,0,0,1,1602.56,224.647)">
            <circle cx="-666.11" cy="562.179" r="377.22" style="fill:rgb(80,103,47);"/>
        </g>
        <g transform="matrix(1,0,0,1,1078.9,422.786)">
            <circle cx="-666.11" cy="562.179" r="377.22" style="fill:rgb(80,103,47);"/>
        </g>
        <g transform="matrix(1,0,0,1,1305.35,31.2259)">
            <circle cx="-666.11" cy="562.179" r="377.22" style="fill:rgb(80,103,47);"/>
        </g>
        <g transform="matrix(1,0,0,1,1847.87,-72.561)">
            <circle cx="-666.11" cy="562.179" r="377.22" style="fill:rgb(80,103,47);"/>
        </g>
        <g transform="matrix(1,0,0,1,2687.6,-20.6675)">
            <circle cx="-666.11" cy="562.179" r="377.22" style="fill:rgb(80,103,47);"/>
        </g>
        <g transform="matrix(1,0,0,1,2951.79,597.336)">
            <circle cx="-666.11" cy="562.179" r="377.22" style="fill:rgb(80,103,47);"/>
        </g>
        <g transform="matrix(1,0,0,1,2843.28,342.587)">
            <circle cx="-666.11" cy="562.179" r="377.22" style="fill:rgb(80,103,47);"/>
        </g>
        <g transform="matrix(1.15719,0,0,1.15719,2362.89,173.041)">
            <circle cx="-666.11" cy="562.179" r="377.22" style="fill:rgb(80,103,47);"/>
        </g>
        <g transform="matrix(1,0,0,1,2843.73,214.912)">
            <circle cx="-666.11" cy="562.179" r="377.22" style="fill:rgb(80,103,47);"/>
        </g>
        <g transform="matrix(1.15719,0,0,1.15719,1996.78,556.048)">
            <circle cx="-666.11" cy="562.179" r="377.22" style="fill:rgb(80,103,47);"/>
        </g>
        <g transform="matrix(1.15719,0,0,1.15719,2858.55,398.339)">
            <circle cx="-666.11" cy="562.179" r="377.22" style="fill:rgb(80,103,47);"/>
        </g>
    </g>
    <g>
        <g transform="matrix(1.15719,0,0,1.15719,1698.26,741.919)">
            <circle cx="-666.11" cy="562.179" r="377.22" style="fill:rgb(119,146,77);"/>
        </g>
        <g transform="matrix(1.15719,0,0,1.15719,2396.68,719.389)">
            <circle cx="-666.11" cy="562.179" r="377.22" style="fill:rgb(119,146,77);"/>
        </g>
        <g transform="matrix(1.15719,0,0,1.15719,2847.28,848.936)">
            <circle cx="-666.11" cy="562.179" r="377.22" style="fill:rgb(119,146,77);"/>
        </g>
        <g transform="matrix(1,0,0,1,1602.56,224.647)">
            <circle cx="-666.11" cy="562.179" r="377.22" style="fill:rgb(119,146,77);"/>
        </g>
        <g transform="matrix(1,0,0,1,1078.9,422.786)">
            <circle cx="-666.11" cy="562.179" r="377.22" style="fill:rgb(119,146,77);"/>
        </g>
        <g transform="matrix(1,0,0,1,1305.35,31.2259)">
            <circle cx="-666.11" cy="562.179" r="377.22" style="fill:rgb(119,146,77);"/>
        </g>
        <g transform="matrix(1,0,0,1,1847.87,-72.561)">
            <circle cx="-666.11" cy="562.179" r="377.22" style="fill:rgb(119,146,77);"/>
        </g>
        <g transform="matrix(1,0,0,1,2687.6,-20.6675)">
            <circle cx="-666.11" cy="562.179" r="377.22" style="fill:rgb(119,146,77);"/>
        </g>
        <g transform="matrix(1,0,0,1,2951.79,597.336)">
            <circle cx="-666.11" cy="562.179" r="377.22" style="fill:rgb(119,146,77);"/>
        </g>
        <g transform="matrix(1,0,0,1,2843.28,342.587)">
            <circle cx="-666.11" cy="562.179" r="377.22" style="fill:rgb(119,146,77);"/>
        </g>
        <g transform="matrix(1.15719,0,0,1.15719,2362.89,173.041)">
            <circle cx="-666.11" cy="562.179" r="377.22" style="fill:rgb(119,146,77);"/>
        </g>
        <g transform="matrix(1,0,0,1,2843.73,214.912)">
            <circle cx="-666.11" cy="562.179" r="377.22" style="fill:rgb(119,146,77);"/>
        </g>
        <g transform="matrix(1.15719,0,0,1.15719,1996.78,556.048)">
            <circle cx="-666.11" cy="562.179" r="377.22" style="fill:rgb(119,146,77);"/>
        </g>
        <g transform="matrix(1.15719,0,0,1.15719,2858.55,398.339)">
            <circle cx="-666.11" cy="562.179" r="377.22" style="fill:rgb(119,146,77);"/>
        </g>
    </g>
</svg>
