<?xml version="1.0" encoding="UTF-8" standalone="no"?>
<!DOCTYPE svg PUBLIC "-//W3C//DTD SVG 1.1//EN" "http://www.w3.org/Graphics/SVG/1.1/DTD/svg11.dtd">
<svg width="100%" height="100%" viewBox="0 0 5334 3000" version="1.1" xmlns="http://www.w3.org/2000/svg" xmlns:xlink="http://www.w3.org/1999/xlink" xml:space="preserve" xmlns:serif="http://www.serif.com/" style="fill-rule:evenodd;clip-rule:evenodd;stroke-linejoin:round;stroke-miterlimit:2;">
    <g id="back2">
        <g transform="matrix(1.11971,0,0,0.450262,-241.29,1277.98)">
            <path d="M78.9,2250.78C78.9,2250.78 -1005.99,2281.03 -967.361,2269.98C-893.514,2248.86 -145.644,968.35 116.541,873.067C282.218,812.857 469.48,794.255 781.559,836.211C944.515,858.118 1025.01,907.941 1179.34,963.94C1245.55,987.964 1319.55,1004.4 1380.88,1039.74C1490.39,1102.82 1581.65,1191.77 1696.99,1245.88C1816.18,1301.8 2536.85,2189.6 2655.81,2245.58C2715.03,2273.45 78.9,2250.78 78.9,2250.78Z" style="fill:rgb(122,198,152);"/>
        </g>
        <g transform="matrix(1.11971,0,0,0.450262,3828.21,1410.54)">
            <path d="M78.9,2250.78C78.9,2250.78 -1005.99,2281.03 -967.361,2269.98C-893.514,2248.86 -145.644,968.35 116.541,873.067C282.218,812.857 469.48,794.255 781.559,836.211C944.515,858.118 1025.01,907.941 1179.34,963.94C1245.55,987.964 1319.55,1004.4 1380.88,1039.74C1490.39,1102.82 1581.65,1191.77 1696.99,1245.88C1816.18,1301.8 2536.85,2189.6 2655.81,2245.58C2715.03,2273.45 78.9,2250.78 78.9,2250.78Z" style="fill:rgb(122,198,152);"/>
        </g>
    </g>
</svg>
