<?xml version="1.0" encoding="UTF-8" standalone="no"?>
<!DOCTYPE svg PUBLIC "-//W3C//DTD SVG 1.1//EN" "http://www.w3.org/Graphics/SVG/1.1/DTD/svg11.dtd">
<svg width="100%" height="100%" viewBox="0 0 5334 3000" version="1.1" xmlns="http://www.w3.org/2000/svg" xmlns:xlink="http://www.w3.org/1999/xlink" xml:space="preserve" xmlns:serif="http://www.serif.com/" style="fill-rule:evenodd;clip-rule:evenodd;stroke-linejoin:round;stroke-miterlimit:2;">
    <g id="main">
        <g transform="matrix(2.54102,0,0,1.33566,-29.6756,167.4)">
            <path d="M-5.008,1445.44C-9.245,1446.28 67.986,1439.31 84.65,1440.61C135.943,1444.6 189.826,1471.11 241.915,1473.71C296.608,1476.45 353.85,1449.82 408.337,1456.95C505.902,1469.73 597.341,1487.67 696.486,1491.31C808.696,1495.44 919.732,1521.65 1032.75,1514.33C1229.94,1501.56 1422.56,1462.93 1621.24,1462.66C1667.85,1462.6 1714.41,1452.4 1760.98,1455.89C1844.11,1462.12 1919.56,1481.87 2005.63,1485.84C2045.05,1487.66 2083.42,1484.13 2122.71,1484.89C2124.16,1484.92 2130.2,1484.61 2131.32,1486.48C2136.51,1495.21 2125.32,1509.36 2125.21,1520.1C2124.71,1565.86 2127.12,2146.9 2127.12,2146.9C2119.5,2162.71 -11.084,2144.75 -0.934,2138.78L-5.008,1445.44Z" style="fill:rgb(131,192,115);"/>
        </g>
        <path d="M2382.07,2184.26C2375.53,2187.48 2366.82,2184.72 2359.7,2186.07C2345.41,2188.81 2333.34,2197.94 2323.66,2208.41C2320.35,2211.99 2320.7,2217.16 2317.76,2220.3C2310.7,2227.81 2299.42,2233.13 2299.42,2247.33C2274.57,2272.18 2241.89,2304.86 2218.67,2328.08C2207.88,2338.87 2177.56,2337.38 2165.65,2349.29C2154.16,2360.77 2150.63,2380.22 2139.14,2391.7C2131.18,2399.66 2104.67,2389.05 2096.72,2397.01C2057.15,2436.57 1979.53,2439.42 1900.54,2439.42C1872.26,2439.42 1808.63,2451.8 1783.88,2439.42C1734.24,2414.6 1322.56,2455.35 1311.98,2465.94C1300.67,2477.24 1104.95,2497.99 1099.89,2503.05C1079.14,2523.8 969.194,2511.8 956.728,2524.26C892.041,2588.95 334.577,2594.97 272.733,2656.82C264.718,2664.83 205.998,2665.23 193.198,2678.03C177.812,2693.41 110.132,2692.16 92.455,2709.84C85.082,2717.21 59.595,2710.36 50.037,2715.14C-13.748,2747.04 -247.83,2776.89 -193.868,2884.82C-181.744,2909.07 -187.7,2944.01 -172.659,2959.05C-167.205,2964.5 -168.611,3041.38 -162.055,3054.49C-135.327,3107.95 -128.69,3172.69 -87.823,3213.56C16.269,3317.65 508.199,3287.79 691.613,3287.79C786.874,3287.79 1057.26,3324.98 1137.01,3298.39C1173.79,3286.13 1273.34,3280.21 1311.98,3293.09C1338.22,3301.84 1429.02,3311.46 1455.14,3298.39C1507.73,3272.1 1624.15,3288.12 1667.23,3266.58C1747.1,3226.65 1900.4,3224.16 1995.98,3224.16C2077.36,3224.16 2558.85,3212.73 2579.23,3192.35C2613.47,3158.1 2676.4,3164.11 2706.48,3134.02C2727.32,3113.18 2744.44,3080.16 2764.81,3059.79C2784.04,3040.56 2831.52,3051.4 2849.64,3033.28C2862.9,3020.03 2873.51,3004.12 2886.76,2990.86C2894.08,2983.54 2891.12,2896.37 2902.67,2884.82C2912.39,2875.1 2908.85,2852.12 2918.57,2842.4C2962.67,2798.3 2976.33,2652.08 2987.5,2640.91C2995.46,2632.96 2979.55,2601.14 2987.5,2593.19C3000.78,2579.91 2995.79,2521.28 3003.41,2513.66C3022.38,2494.69 3025.12,2462.12 3026.25,2436.91C3029.12,2372.31 3017.13,2305.76 2999.83,2243.74C2994.15,2223.38 2987.53,2203.34 2978.89,2184.04C2977.81,2181.62 2977.82,2177.73 2975.97,2175.83C2971.74,2171.46 2962.87,2170.3 2957.28,2169.02C2941.62,2165.45 2924.85,2162.4 2908.74,2162.49C2865.97,2162.72 2823.22,2164.75 2780.47,2165.62C2689.45,2167.46 2598.45,2170.26 2507.44,2172.18C2482.72,2172.7 2457.94,2172.62 2433.24,2173.73C2416.12,2174.51 2397.37,2175.79 2382.07,2184.26" style="fill:rgb(166,193,115);"/>
        <path d="M2422.32,2173.99C2422.32,2195.16 2405.79,2257.61 2393.65,2269.75C2379.52,2283.87 2396.97,2353.24 2388.35,2370.49C2368.33,2410.53 2345.46,2439.89 2319.42,2465.94C2215.22,2570.14 1740.6,2493.31 1714.95,2518.96C1693.74,2540.18 1505.67,2536.11 1465.75,2556.08C1432.83,2572.53 1280.91,2592.45 1274.87,2598.49C1257.19,2616.17 1207.7,2602.03 1190.03,2619.7C1169.07,2640.66 1075.18,2633.81 1062.77,2646.21C1014.17,2694.81 673.273,2685.76 574.963,2784.07C559.868,2799.17 520.26,2796.36 506.033,2810.59C485.439,2831.18 334.014,2844.74 320.453,2858.3C308.604,2870.16 -26.985,2969.65 -66.614,2969.65C-76.895,2969.65 -116.232,2994.27 -98.427,3012.07C-67.433,3043.07 44.628,3059.68 60.641,3075.7C76.642,3091.7 119.627,3086.96 134.873,3102.21C153.657,3120.99 177.989,3110.51 203.803,3123.42C262.625,3152.83 340.896,3136.29 399.988,3165.84C421.197,3176.44 458.313,3155.23 479.522,3165.84C499.301,3175.73 529.271,3161.55 548.452,3171.14C641.802,3217.82 989.754,3181.74 1105.19,3181.74C1171.39,3181.74 1351.39,3196.5 1402.12,3171.14C1429.81,3157.3 1931.82,3160.53 2001.28,3160.53C2036.68,3160.53 2074.45,3165.84 2112.63,3165.84L2144.44,3165.84L2128.53,3165.84C2119.89,3165.84 2082.83,3156.24 2070.21,3149.93C2056.38,3143.02 2011.31,3154.66 2001.28,3144.63C1987.34,3130.68 2024.85,3115.76 2027.79,3112.82C2039.62,3100.99 2053.34,3081.96 2064.91,3070.4C2084.28,3051.02 2116.51,3049.89 2139.14,3038.58C2175.84,3020.23 2194.72,2998.9 2213.37,2980.26C2243.35,2950.28 2342.84,2940.92 2377.74,2906.03C2388.35,2895.42 2414.86,2900.72 2425.46,2890.12C2444.14,2871.44 2628.42,2856.84 2664.06,2821.19C2724.5,2760.75 2797.07,2725.3 2854.95,2667.42C2906.97,2615.4 2887.95,2342.8 2939.78,2290.96C2947.96,2282.79 2936.91,2240.37 2934.48,2237.94C2918.57,2222.03 2929.18,2179.61 2913.27,2163.71C2910.07,2160.5 2886.49,2163.71 2881.46,2163.71C2724.76,2163.71 2422.32,2173.99 2422.32,2173.99Z" style="fill:rgb(224,227,140);"/>
        <g transform="matrix(1.33566,0,0,1.33566,-510.19,103.915)">
            <path d="M860.717,1521.85C861.11,1521.46 860.727,1520.11 860.44,1518.53C857.026,1499.75 848.737,1481.86 845.637,1462.64C845.558,1462.14 844.021,1454.98 843.838,1455.17C841.707,1457.3 869.631,1473.26 873.169,1475.09C878.943,1478.07 884.705,1481.63 889.494,1486.02C890.031,1486.51 893.715,1491.9 894.336,1491.28C908.438,1477.17 904.419,1413.25 931.276,1399.83C932.811,1399.06 946.451,1441.8 948.432,1445.76C949.11,1447.11 950.808,1461.3 952.859,1459.18C969.964,1441.48 991.416,1417.47 1018.58,1416.29C1022.6,1416.11 1001.16,1462.51 1002.8,1464.16C1005.54,1466.89 1017.46,1458.64 1020.24,1457.8C1032.75,1453.98 1066.01,1459.82 1074.88,1470.38C1076.64,1472.48 1048.43,1483.27 1046.38,1484.22C1046.07,1484.37 1039.47,1487.29 1039.47,1486.43C1039.47,1482.95 1046.21,1488.15 1049.57,1489.06C1054.7,1490.45 1069.66,1503.79 1068.66,1510.78C1067.72,1517.36 1049,1524.69 1043.48,1526.69C1042.56,1527.03 1042.24,1527.38 1042.65,1526.97" style="fill:rgb(131,193,114);"/>
        </g>
        <g transform="matrix(1.33566,0,0,1.33566,539.663,167.542)">
            <path d="M860.717,1521.85C861.11,1521.46 860.727,1520.11 860.44,1518.53C857.026,1499.75 848.737,1481.86 845.637,1462.64C845.558,1462.14 844.021,1454.98 843.838,1455.17C841.707,1457.3 869.631,1473.26 873.169,1475.09C878.943,1478.07 884.705,1481.63 889.494,1486.02C890.031,1486.51 893.715,1491.9 894.336,1491.28C908.438,1477.17 904.419,1413.25 931.276,1399.83C932.811,1399.06 946.451,1441.8 948.432,1445.76C949.11,1447.11 950.808,1461.3 952.859,1459.18C969.964,1441.48 991.416,1417.47 1018.58,1416.29C1022.6,1416.11 1001.16,1462.51 1002.8,1464.16C1005.54,1466.89 1017.46,1458.64 1020.24,1457.8C1032.75,1453.98 1066.01,1459.82 1074.88,1470.38C1076.64,1472.48 1048.43,1483.27 1046.38,1484.22C1046.07,1484.37 1039.47,1487.29 1039.47,1486.43C1039.47,1482.95 1046.21,1488.15 1049.57,1489.06C1054.7,1490.45 1069.66,1503.79 1068.66,1510.78C1067.72,1517.36 1049,1524.69 1043.48,1526.69C1042.56,1527.03 1042.24,1527.38 1042.65,1526.97" style="fill:rgb(131,193,114);"/>
        </g>
        <g transform="matrix(1.33566,0,0,1.33566,2787.83,125.124)">
            <path d="M860.717,1521.85C861.11,1521.46 860.727,1520.11 860.44,1518.53C857.026,1499.75 848.737,1481.86 845.637,1462.64C845.558,1462.14 844.021,1454.98 843.838,1455.17C841.707,1457.3 869.631,1473.26 873.169,1475.09C878.943,1478.07 884.705,1481.63 889.494,1486.02C890.031,1486.51 893.715,1491.9 894.336,1491.28C908.438,1477.17 904.419,1413.25 931.276,1399.83C932.811,1399.06 946.451,1441.8 948.432,1445.76C949.11,1447.11 950.808,1461.3 952.859,1459.18C969.964,1441.48 991.416,1417.47 1018.58,1416.29C1022.6,1416.11 1001.16,1462.51 1002.8,1464.16C1005.54,1466.89 1017.46,1458.64 1020.24,1457.8C1032.75,1453.98 1066.01,1459.82 1074.88,1470.38C1076.64,1472.48 1048.43,1483.27 1046.38,1484.22C1046.07,1484.37 1039.47,1487.29 1039.47,1486.43C1039.47,1482.95 1046.21,1488.15 1049.57,1489.06C1054.7,1490.45 1069.66,1503.79 1068.66,1510.78C1067.72,1517.36 1049,1524.69 1043.48,1526.69C1042.56,1527.03 1042.24,1527.38 1042.65,1526.97" style="fill:rgb(131,193,114);"/>
        </g>
        <g transform="matrix(1.33566,0,0,1.33566,3689.22,130.426)">
            <path d="M860.717,1521.85C861.11,1521.46 860.727,1520.11 860.44,1518.53C857.026,1499.75 848.737,1481.86 845.637,1462.64C845.558,1462.14 844.021,1454.98 843.838,1455.17C841.707,1457.3 869.631,1473.26 873.169,1475.09C878.943,1478.07 884.705,1481.63 889.494,1486.02C890.031,1486.51 893.715,1491.9 894.336,1491.28C908.438,1477.17 904.419,1413.25 931.276,1399.83C932.811,1399.06 946.451,1441.8 948.432,1445.76C949.11,1447.11 950.808,1461.3 952.859,1459.18C969.964,1441.48 991.416,1417.47 1018.58,1416.29C1022.6,1416.11 1001.16,1462.51 1002.8,1464.16C1005.54,1466.89 1017.46,1458.64 1020.24,1457.8C1032.75,1453.98 1066.01,1459.82 1074.88,1470.38C1076.64,1472.48 1048.43,1483.27 1046.38,1484.22C1046.07,1484.37 1039.47,1487.29 1039.47,1486.43C1039.47,1482.95 1046.21,1488.15 1049.57,1489.06C1054.7,1490.45 1069.66,1503.79 1068.66,1510.78C1067.72,1517.36 1049,1524.69 1043.48,1526.69C1042.56,1527.03 1042.24,1527.38 1042.65,1526.97" style="fill:rgb(131,193,114);"/>
        </g>
        <g transform="matrix(1.21899,0,0,1.17603,2154.62,364.765)">
            <path d="M860.717,1521.85C861.11,1521.46 860.727,1520.11 860.44,1518.53C857.026,1499.75 848.737,1481.86 845.637,1462.64C845.558,1462.14 844.021,1454.98 843.838,1455.17C841.707,1457.3 869.631,1473.26 873.169,1475.09C878.943,1478.07 884.705,1481.63 889.494,1486.02C890.031,1486.51 893.715,1491.9 894.336,1491.28C894.689,1490.92 895.031,1490.54 895.362,1490.12C895.362,1491.27 894.214,1487.94 894.452,1486.83C899.541,1462.89 886.413,1438.13 877.617,1416.3C876.94,1414.62 872.681,1412.08 874.433,1411.94C918.451,1408.44 916.478,1418.71 952.498,1459.39C952.579,1459.48 952.737,1459.3 952.859,1459.18C962.05,1449.67 962.549,1412.26 975.818,1409.55C989.173,1406.81 992.376,1466.5 993.912,1466.25C1007.19,1464.05 1018.61,1445.89 1028.43,1437.56C1032.24,1434.33 1040.59,1427.51 1043.94,1434.93C1048.2,1444.32 1044.84,1456.41 1043,1466.02C1042.61,1468.05 1039.95,1475.63 1041.29,1476.93C1043.58,1479.15 1051.9,1476.87 1054.48,1476.36C1061.95,1474.89 1096.81,1463.66 1101.79,1470.81C1102.07,1471.2 1090.58,1481.13 1089.56,1482.05C1081.47,1489.28 1053.35,1511.86 1053.72,1522.47C1049.54,1524.42 1045.57,1525.94 1043.48,1526.69C1042.56,1527.03 1042.24,1527.38 1042.65,1526.97" style="fill:rgb(131,193,114);"/>
        </g>
        <g transform="matrix(1,0,0,1,1329.81,2167.57)">
            <path d="M389.872,410.127C368.969,420.579 247.819,410.181 242.65,420.519C237.832,430.156 291.262,451.734 301.539,455.16C344.369,469.436 414.206,456.892 460.885,456.892C472.383,456.892 512.384,457.354 518.042,451.696C548.357,421.381 441.532,413.29 440.101,411.859C431.31,403.068 394.791,415.323 382.944,415.323" style="fill:rgb(166,193,115);fill-opacity:0.5;"/>
        </g>
        <g transform="matrix(-0.154429,0.762167,-0.746105,-0.151174,3189.37,2129.57)">
            <path d="M382.657,412.843C350.153,417.031 306.142,407.041 290.761,441.263C288.982,445.222 285.091,447.978 286.036,452.942C288.977,468.409 375.475,461.297 386.153,461.051C407.947,460.55 441.432,470.984 461.531,460.969C481.729,450.905 472.332,427.447 457.461,419.395C433.845,406.606 408.083,409.567 382.657,412.843" style="fill:rgb(166,193,115);fill-opacity:0.5;"/>
        </g>
        <g transform="matrix(-0.176477,0.870983,-0.67148,-0.136054,2910.57,2028.63)">
            <path d="M382.657,412.843C350.153,417.031 306.142,407.041 290.761,441.263C288.982,445.222 285.091,447.978 286.036,452.942C288.977,468.409 375.475,461.297 386.153,461.051C407.947,460.55 441.432,470.984 461.531,460.969C481.729,450.905 472.332,427.447 457.461,419.395C433.845,406.606 408.083,409.567 382.657,412.843" style="fill:rgb(166,193,115);fill-opacity:0.5;"/>
        </g>
        <g transform="matrix(0.922628,-0.385691,0.385691,0.922628,1806.05,2321.26)">
            <path d="M382.657,412.843C350.153,417.031 306.142,407.041 290.761,441.263C288.982,445.222 285.091,447.978 286.036,452.942C288.977,468.409 375.475,461.297 386.153,461.051C407.947,460.55 441.432,470.984 461.531,460.969C481.729,450.905 472.332,427.447 457.461,419.395C433.845,406.606 408.083,409.567 382.657,412.843" style="fill:rgb(166,193,115);fill-opacity:0.5;"/>
        </g>
        <g transform="matrix(0.0559924,0.376025,-2.67794,0.398761,3289.15,2564.23)">
            <path d="M382.657,412.843C350.153,417.031 306.142,407.041 290.761,441.263C288.982,445.222 285.091,447.978 286.036,452.942C288.977,468.409 375.475,461.297 386.153,461.051C407.947,460.55 441.432,470.984 461.531,460.969C481.729,450.905 472.332,427.447 457.461,419.395C433.845,406.606 408.083,409.567 382.657,412.843" style="fill:rgb(166,193,115);fill-opacity:0.5;"/>
        </g>
        <g transform="matrix(-0.177691,-0.336089,2.39352,-1.26547,42.5819,3478.03)">
            <path d="M382.657,412.843C350.153,417.031 306.142,407.041 290.761,441.263C288.982,445.222 285.091,447.978 286.036,452.942C288.977,468.409 375.475,461.297 386.153,461.051C407.947,460.55 441.432,470.984 461.531,460.969C481.729,450.905 472.332,427.447 457.461,419.395C433.845,406.606 408.083,409.567 382.657,412.843" style="fill:rgb(166,193,115);fill-opacity:0.5;"/>
        </g>
        <g transform="matrix(0.462672,0,0,0.479761,-14.0241,535.68)">
            <g transform="matrix(1.33566,0,0,1.33566,546.52,1514.29)">
                <path d="M294.222,1472.58C244.216,1469.12 192.192,1470.57 151.358,1454.23C169.414,1438.82 202.969,1414.82 214.608,1379.89C220.603,1361.9 237.677,1355.61 247.558,1341.24C260.443,1322.5 267.8,1294.82 275.19,1273.31C362.231,1019.95 403.186,753.092 447.076,489.749C463.362,392.032 490.122,293.907 498.995,195.319C502.024,161.652 501.671,128.27 500.09,94.547C499.479,81.513 503.931,56.989 497.023,45.475C496.488,44.584 494.941,44.051 495.489,44.599C492.94,8.626 492.5,-19.086 496.512,-28.448C499.325,-35.012 510.878,-31.185 516.009,-31.077C572.35,-29.89 741.447,-70.277 785.46,-40.935C787.234,-39.752 765.649,30.626 765.306,32.016C673.232,404.925 603.94,1053.53 684.471,1426.4C691.308,1458.05 700.277,1489.17 708.787,1520.38C709.249,1522.07 710.321,1527.17 710.321,1525.42C710.321,1497.95 540.655,1509.88 512.066,1513.37C501.918,1514.61 477.727,1516.82 448.832,1518.68C424.018,1516.32 397.927,1495.95 374.688,1487.26C350.1,1478.07 322.483,1474.54 294.222,1472.58" style="fill:rgb(152,109,75);"/>
            </g>
            <g transform="matrix(1,0,0,1,-7.63872,2.23424)">
                <path d="M1201.33,2300.24C1197.74,2306.77 1194.41,2313.09 1189.23,2318.27C1185.53,2321.97 1187.3,2337.74 1187.3,2343.39C1184.21,2361.43 1181.59,2376.41 1175.68,2382.33C1172.59,2385.42 1172.25,2410.88 1166.02,2417.11C1158.87,2424.26 1161.48,2468.02 1152.49,2477.02C1149.34,2480.16 1146.52,2507.87 1142.94,2530.59C1139.6,2530.59 1141.01,2535.43 1141.01,2538.32C1141.01,2551.65 1137.61,2592.05 1131.47,2598.24C1121.5,2608.29 1099.31,2685.28 1099.51,2706.56C1099.62,2718.79 1078.1,2781.04 1086.82,2789.76C1087.12,2790.06 1089.88,2794.42 1090.68,2793.62C1105.88,2778.43 1099.86,2714.88 1110,2704.73C1125.98,2688.76 1127.75,2654.14 1142.85,2639.03C1147.04,2634.85 1140.6,2620.03 1144.79,2615.85C1149.07,2611.56 1202.76,2443.85 1202.76,2432.28C1202.76,2402.61 1225.11,2266.93 1233.67,2258.37C1233.86,2258.18 1239.47,2198.91 1239.47,2194.6L1239.47,2179.14C1239.47,2179.14 1237.54,2188.11 1237.54,2192.67C1237.54,2198.95 1227.83,2246.82 1224.01,2250.64C1217.27,2257.38 1220.17,2275.74 1214.35,2281.55C1208.5,2287.4 1204.8,2293.91 1201.33,2300.24Z" style="fill:rgb(130,94,59);"/>
            </g>
            <g transform="matrix(0.98888,-0.148716,0.148716,0.98888,-226.225,706.355)">
                <path d="M1201.33,2300.24C1197.74,2306.77 1194.41,2313.09 1189.23,2318.27C1185.53,2321.97 1187.3,2337.74 1187.3,2343.39C1184.21,2361.43 1181.59,2376.41 1175.68,2382.33C1172.59,2385.42 1172.25,2410.88 1166.02,2417.11C1158.87,2424.26 1161.48,2468.02 1152.49,2477.02C1149.34,2480.16 1146.52,2507.87 1142.94,2530.59C1139.6,2530.59 1141.01,2535.43 1141.01,2538.32C1141.01,2551.65 1137.61,2592.05 1131.47,2598.24C1121.5,2608.29 1099.31,2685.28 1099.51,2706.56C1099.62,2718.79 1078.1,2781.04 1086.82,2789.76C1087.12,2790.06 1089.88,2794.42 1090.68,2793.62C1105.88,2778.43 1099.86,2714.88 1110,2704.73C1125.98,2688.76 1127.75,2654.14 1142.85,2639.03C1147.04,2634.85 1140.6,2620.03 1144.79,2615.85C1149.07,2611.56 1202.76,2443.85 1202.76,2432.28C1202.76,2402.61 1225.11,2266.93 1233.67,2258.37C1233.86,2258.18 1239.47,2198.91 1239.47,2194.6L1239.47,2179.14C1239.47,2179.14 1237.54,2188.11 1237.54,2192.67C1237.54,2198.95 1227.83,2246.82 1224.01,2250.64C1217.27,2257.38 1220.17,2275.74 1214.35,2281.55C1208.5,2287.4 1204.8,2293.91 1201.33,2300.24Z" style="fill:rgb(130,94,59);"/>
            </g>
            <g transform="matrix(1,0,0,1,216.42,-477.284)">
                <path d="M1201.33,2300.24C1197.74,2306.77 1194.41,2313.09 1189.23,2318.27C1185.53,2321.97 1187.3,2337.74 1187.3,2343.39C1184.21,2361.43 1181.59,2376.41 1175.68,2382.33C1172.59,2385.42 1172.25,2410.88 1166.02,2417.11C1158.87,2424.26 1161.48,2468.02 1152.49,2477.02C1149.34,2480.16 1146.52,2507.87 1142.94,2530.59C1139.6,2530.59 1141.01,2535.43 1141.01,2538.32C1141.01,2551.65 1137.61,2592.05 1131.47,2598.24C1121.5,2608.29 1099.31,2685.28 1099.51,2706.56C1099.62,2718.79 1078.1,2781.04 1086.82,2789.76C1087.12,2790.06 1089.88,2794.42 1090.68,2793.62C1105.88,2778.43 1099.86,2714.88 1110,2704.73C1125.98,2688.76 1127.75,2654.14 1142.85,2639.03C1147.04,2634.85 1140.6,2620.03 1144.79,2615.85C1149.07,2611.56 1202.76,2443.85 1202.76,2432.28C1202.76,2402.61 1225.11,2266.93 1233.67,2258.37C1233.86,2258.18 1239.47,2198.91 1239.47,2194.6L1239.47,2179.14C1239.47,2179.14 1237.54,2188.11 1237.54,2192.67C1237.54,2198.95 1227.83,2246.82 1224.01,2250.64C1217.27,2257.38 1220.17,2275.74 1214.35,2281.55C1208.5,2287.4 1204.8,2293.91 1201.33,2300.24Z" style="fill:rgb(130,94,59);"/>
            </g>
            <g transform="matrix(0.988778,0,0,1.05497,18.0902,82.2759)">
                <g transform="matrix(1.15719,0,0,1.15719,1698.26,741.919)">
                    <circle cx="-666.11" cy="562.179" r="377.22" style="fill:rgb(80,103,47);"/>
                </g>
                <g transform="matrix(1.15719,0,0,1.15719,2396.68,719.389)">
                    <circle cx="-666.11" cy="562.179" r="377.22" style="fill:rgb(80,103,47);"/>
                </g>
                <g transform="matrix(1.15719,0,0,1.15719,2847.28,848.936)">
                    <circle cx="-666.11" cy="562.179" r="377.22" style="fill:rgb(80,103,47);"/>
                </g>
                <g transform="matrix(1,0,0,1,1602.56,224.647)">
                    <circle cx="-666.11" cy="562.179" r="377.22" style="fill:rgb(80,103,47);"/>
                </g>
                <g transform="matrix(1,0,0,1,1078.9,422.786)">
                    <circle cx="-666.11" cy="562.179" r="377.22" style="fill:rgb(80,103,47);"/>
                </g>
                <g transform="matrix(1,0,0,1,1305.35,31.2259)">
                    <circle cx="-666.11" cy="562.179" r="377.22" style="fill:rgb(80,103,47);"/>
                </g>
                <g transform="matrix(1,0,0,1,1847.87,-72.561)">
                    <circle cx="-666.11" cy="562.179" r="377.22" style="fill:rgb(80,103,47);"/>
                </g>
                <g transform="matrix(1,0,0,1,2687.6,-20.6675)">
                    <circle cx="-666.11" cy="562.179" r="377.22" style="fill:rgb(80,103,47);"/>
                </g>
                <g transform="matrix(1,0,0,1,2951.79,597.336)">
                    <circle cx="-666.11" cy="562.179" r="377.22" style="fill:rgb(80,103,47);"/>
                </g>
                <g transform="matrix(1,0,0,1,2843.28,342.587)">
                    <circle cx="-666.11" cy="562.179" r="377.22" style="fill:rgb(80,103,47);"/>
                </g>
                <g transform="matrix(1.15719,0,0,1.15719,2362.89,173.041)">
                    <circle cx="-666.11" cy="562.179" r="377.22" style="fill:rgb(80,103,47);"/>
                </g>
                <g transform="matrix(1,0,0,1,2843.73,214.912)">
                    <circle cx="-666.11" cy="562.179" r="377.22" style="fill:rgb(80,103,47);"/>
                </g>
                <g transform="matrix(1.15719,0,0,1.15719,1996.78,556.048)">
                    <circle cx="-666.11" cy="562.179" r="377.22" style="fill:rgb(80,103,47);"/>
                </g>
                <g transform="matrix(1.15719,0,0,1.15719,2858.55,398.339)">
                    <circle cx="-666.11" cy="562.179" r="377.22" style="fill:rgb(80,103,47);"/>
                </g>
            </g>
            <g>
                <g transform="matrix(1.15719,0,0,1.15719,1698.26,741.919)">
                    <circle cx="-666.11" cy="562.179" r="377.22" style="fill:rgb(119,146,77);"/>
                </g>
                <g transform="matrix(1.15719,0,0,1.15719,2396.68,719.389)">
                    <circle cx="-666.11" cy="562.179" r="377.22" style="fill:rgb(119,146,77);"/>
                </g>
                <g transform="matrix(1.15719,0,0,1.15719,2847.28,848.936)">
                    <circle cx="-666.11" cy="562.179" r="377.22" style="fill:rgb(119,146,77);"/>
                </g>
                <g transform="matrix(1,0,0,1,1602.56,224.647)">
                    <circle cx="-666.11" cy="562.179" r="377.22" style="fill:rgb(119,146,77);"/>
                </g>
                <g transform="matrix(1,0,0,1,1078.9,422.786)">
                    <circle cx="-666.11" cy="562.179" r="377.22" style="fill:rgb(119,146,77);"/>
                </g>
                <g transform="matrix(1,0,0,1,1305.35,31.2259)">
                    <circle cx="-666.11" cy="562.179" r="377.22" style="fill:rgb(119,146,77);"/>
                </g>
                <g transform="matrix(1,0,0,1,1847.87,-72.561)">
                    <circle cx="-666.11" cy="562.179" r="377.22" style="fill:rgb(119,146,77);"/>
                </g>
                <g transform="matrix(1,0,0,1,2687.6,-20.6675)">
                    <circle cx="-666.11" cy="562.179" r="377.22" style="fill:rgb(119,146,77);"/>
                </g>
                <g transform="matrix(1,0,0,1,2951.79,597.336)">
                    <circle cx="-666.11" cy="562.179" r="377.22" style="fill:rgb(119,146,77);"/>
                </g>
                <g transform="matrix(1,0,0,1,2843.28,342.587)">
                    <circle cx="-666.11" cy="562.179" r="377.22" style="fill:rgb(119,146,77);"/>
                </g>
                <g transform="matrix(1.15719,0,0,1.15719,2362.89,173.041)">
                    <circle cx="-666.11" cy="562.179" r="377.22" style="fill:rgb(119,146,77);"/>
                </g>
                <g transform="matrix(1,0,0,1,2843.73,214.912)">
                    <circle cx="-666.11" cy="562.179" r="377.22" style="fill:rgb(119,146,77);"/>
                </g>
                <g transform="matrix(1.15719,0,0,1.15719,1996.78,556.048)">
                    <circle cx="-666.11" cy="562.179" r="377.22" style="fill:rgb(119,146,77);"/>
                </g>
                <g transform="matrix(1.15719,0,0,1.15719,2858.55,398.339)">
                    <circle cx="-666.11" cy="562.179" r="377.22" style="fill:rgb(119,146,77);"/>
                </g>
            </g>
        </g>
        <g transform="matrix(0.456765,-0.0736973,0.0764193,0.473636,3824.01,692.733)">
            <g transform="matrix(1.33566,0,0,1.33566,546.52,1514.29)">
                <path d="M294.222,1472.58C244.216,1469.12 192.192,1470.57 151.358,1454.23C169.414,1438.82 202.969,1414.82 214.608,1379.89C220.603,1361.9 237.677,1355.61 247.558,1341.24C260.443,1322.5 267.8,1294.82 275.19,1273.31C362.231,1019.95 403.186,753.092 447.076,489.749C463.362,392.032 490.122,293.907 498.995,195.319C502.024,161.652 501.671,128.27 500.09,94.547C499.479,81.513 503.931,56.989 497.023,45.475C496.488,44.584 494.941,44.051 495.489,44.599C492.94,8.626 492.5,-19.086 496.512,-28.448C499.325,-35.012 510.878,-31.185 516.009,-31.077C572.35,-29.89 741.447,-70.277 785.46,-40.935C787.234,-39.752 765.649,30.626 765.306,32.016C673.232,404.925 603.94,1053.53 684.471,1426.4C691.308,1458.05 700.277,1489.17 708.787,1520.38C709.249,1522.07 710.321,1527.17 710.321,1525.42C710.321,1497.95 540.655,1509.88 512.066,1513.37C501.918,1514.61 477.727,1516.82 448.832,1518.68C424.018,1516.32 397.927,1495.95 374.688,1487.26C350.1,1478.07 322.483,1474.54 294.222,1472.58" style="fill:rgb(152,109,75);"/>
            </g>
            <g transform="matrix(1,0,0,1,-7.63872,2.23424)">
                <path d="M1201.33,2300.24C1197.74,2306.77 1194.41,2313.09 1189.23,2318.27C1185.53,2321.97 1187.3,2337.74 1187.3,2343.39C1184.21,2361.43 1181.59,2376.41 1175.68,2382.33C1172.59,2385.42 1172.25,2410.88 1166.02,2417.11C1158.87,2424.26 1161.48,2468.02 1152.49,2477.02C1149.34,2480.16 1146.52,2507.87 1142.94,2530.59C1139.6,2530.59 1141.01,2535.43 1141.01,2538.32C1141.01,2551.65 1137.61,2592.05 1131.47,2598.24C1121.5,2608.29 1099.31,2685.28 1099.51,2706.56C1099.62,2718.79 1078.1,2781.04 1086.82,2789.76C1087.12,2790.06 1089.88,2794.42 1090.68,2793.62C1105.88,2778.43 1099.86,2714.88 1110,2704.73C1125.98,2688.76 1127.75,2654.14 1142.85,2639.03C1147.04,2634.85 1140.6,2620.03 1144.79,2615.85C1149.07,2611.56 1202.76,2443.85 1202.76,2432.28C1202.76,2402.61 1225.11,2266.93 1233.67,2258.37C1233.86,2258.18 1239.47,2198.91 1239.47,2194.6L1239.47,2179.14C1239.47,2179.14 1237.54,2188.11 1237.54,2192.67C1237.54,2198.95 1227.83,2246.82 1224.01,2250.64C1217.27,2257.38 1220.17,2275.74 1214.35,2281.55C1208.5,2287.4 1204.8,2293.91 1201.33,2300.24Z" style="fill:rgb(130,94,59);"/>
            </g>
            <g transform="matrix(0.98888,-0.148716,0.148716,0.98888,-226.225,706.355)">
                <path d="M1201.33,2300.24C1197.74,2306.77 1194.41,2313.09 1189.23,2318.27C1185.53,2321.97 1187.3,2337.74 1187.3,2343.39C1184.21,2361.43 1181.59,2376.41 1175.68,2382.33C1172.59,2385.42 1172.25,2410.88 1166.02,2417.11C1158.87,2424.26 1161.48,2468.02 1152.49,2477.02C1149.34,2480.16 1146.52,2507.87 1142.94,2530.59C1139.6,2530.59 1141.01,2535.43 1141.01,2538.32C1141.01,2551.65 1137.61,2592.05 1131.47,2598.24C1121.5,2608.29 1099.31,2685.28 1099.51,2706.56C1099.62,2718.79 1078.1,2781.04 1086.82,2789.76C1087.12,2790.06 1089.88,2794.42 1090.68,2793.62C1105.88,2778.43 1099.86,2714.88 1110,2704.73C1125.98,2688.76 1127.75,2654.14 1142.85,2639.03C1147.04,2634.85 1140.6,2620.03 1144.79,2615.85C1149.07,2611.56 1202.76,2443.85 1202.76,2432.28C1202.76,2402.61 1225.11,2266.93 1233.67,2258.37C1233.86,2258.18 1239.47,2198.91 1239.47,2194.6L1239.47,2179.14C1239.47,2179.14 1237.54,2188.11 1237.54,2192.67C1237.54,2198.95 1227.83,2246.82 1224.01,2250.64C1217.27,2257.38 1220.17,2275.74 1214.35,2281.55C1208.5,2287.4 1204.8,2293.91 1201.33,2300.24Z" style="fill:rgb(130,94,59);"/>
            </g>
            <g transform="matrix(1,0,0,1,216.42,-477.284)">
                <path d="M1201.33,2300.24C1197.74,2306.77 1194.41,2313.09 1189.23,2318.27C1185.53,2321.97 1187.3,2337.74 1187.3,2343.39C1184.21,2361.43 1181.59,2376.41 1175.68,2382.33C1172.59,2385.42 1172.25,2410.88 1166.02,2417.11C1158.87,2424.26 1161.48,2468.02 1152.49,2477.02C1149.34,2480.16 1146.52,2507.87 1142.94,2530.59C1139.6,2530.59 1141.01,2535.43 1141.01,2538.32C1141.01,2551.65 1137.61,2592.05 1131.47,2598.24C1121.5,2608.29 1099.31,2685.28 1099.51,2706.56C1099.62,2718.79 1078.1,2781.04 1086.82,2789.76C1087.12,2790.06 1089.88,2794.42 1090.68,2793.62C1105.88,2778.43 1099.86,2714.88 1110,2704.73C1125.98,2688.76 1127.75,2654.14 1142.85,2639.03C1147.04,2634.85 1140.6,2620.03 1144.79,2615.85C1149.07,2611.56 1202.76,2443.85 1202.76,2432.28C1202.76,2402.61 1225.11,2266.93 1233.67,2258.37C1233.86,2258.18 1239.47,2198.91 1239.47,2194.6L1239.47,2179.14C1239.47,2179.14 1237.54,2188.11 1237.54,2192.67C1237.54,2198.95 1227.83,2246.82 1224.01,2250.64C1217.27,2257.38 1220.17,2275.74 1214.35,2281.55C1208.5,2287.4 1204.8,2293.91 1201.33,2300.24Z" style="fill:rgb(130,94,59);"/>
            </g>
            <g transform="matrix(0.988778,0,0,1.05497,18.0902,82.2759)">
                <g transform="matrix(1.15719,0,0,1.15719,1698.26,741.919)">
                    <circle cx="-666.11" cy="562.179" r="377.22" style="fill:rgb(80,103,47);"/>
                </g>
                <g transform="matrix(1.15719,0,0,1.15719,2396.68,719.389)">
                    <circle cx="-666.11" cy="562.179" r="377.22" style="fill:rgb(80,103,47);"/>
                </g>
                <g transform="matrix(1.15719,0,0,1.15719,2847.28,848.936)">
                    <circle cx="-666.11" cy="562.179" r="377.22" style="fill:rgb(80,103,47);"/>
                </g>
                <g transform="matrix(1,0,0,1,1602.56,224.647)">
                    <circle cx="-666.11" cy="562.179" r="377.22" style="fill:rgb(80,103,47);"/>
                </g>
                <g transform="matrix(1,0,0,1,1078.9,422.786)">
                    <circle cx="-666.11" cy="562.179" r="377.22" style="fill:rgb(80,103,47);"/>
                </g>
                <g transform="matrix(1,0,0,1,1305.35,31.2259)">
                    <circle cx="-666.11" cy="562.179" r="377.22" style="fill:rgb(80,103,47);"/>
                </g>
                <g transform="matrix(1,0,0,1,1847.87,-72.561)">
                    <circle cx="-666.11" cy="562.179" r="377.22" style="fill:rgb(80,103,47);"/>
                </g>
                <g transform="matrix(1,0,0,1,2687.6,-20.6675)">
                    <circle cx="-666.11" cy="562.179" r="377.22" style="fill:rgb(80,103,47);"/>
                </g>
                <g transform="matrix(1,0,0,1,2951.79,597.336)">
                    <circle cx="-666.11" cy="562.179" r="377.22" style="fill:rgb(80,103,47);"/>
                </g>
                <g transform="matrix(1,0,0,1,2843.28,342.587)">
                    <circle cx="-666.11" cy="562.179" r="377.22" style="fill:rgb(80,103,47);"/>
                </g>
                <g transform="matrix(1.15719,0,0,1.15719,2362.89,173.041)">
                    <circle cx="-666.11" cy="562.179" r="377.22" style="fill:rgb(80,103,47);"/>
                </g>
                <g transform="matrix(1,0,0,1,2843.73,214.912)">
                    <circle cx="-666.11" cy="562.179" r="377.22" style="fill:rgb(80,103,47);"/>
                </g>
                <g transform="matrix(1.15719,0,0,1.15719,1996.78,556.048)">
                    <circle cx="-666.11" cy="562.179" r="377.22" style="fill:rgb(80,103,47);"/>
                </g>
                <g transform="matrix(1.15719,0,0,1.15719,2858.55,398.339)">
                    <circle cx="-666.11" cy="562.179" r="377.22" style="fill:rgb(80,103,47);"/>
                </g>
            </g>
            <g>
                <g transform="matrix(1.15719,0,0,1.15719,1698.26,741.919)">
                    <circle cx="-666.11" cy="562.179" r="377.22" style="fill:rgb(119,146,77);"/>
                </g>
                <g transform="matrix(1.15719,0,0,1.15719,2396.68,719.389)">
                    <circle cx="-666.11" cy="562.179" r="377.22" style="fill:rgb(119,146,77);"/>
                </g>
                <g transform="matrix(1.15719,0,0,1.15719,2847.28,848.936)">
                    <circle cx="-666.11" cy="562.179" r="377.22" style="fill:rgb(119,146,77);"/>
                </g>
                <g transform="matrix(1,0,0,1,1602.56,224.647)">
                    <circle cx="-666.11" cy="562.179" r="377.22" style="fill:rgb(119,146,77);"/>
                </g>
                <g transform="matrix(1,0,0,1,1078.9,422.786)">
                    <circle cx="-666.11" cy="562.179" r="377.22" style="fill:rgb(119,146,77);"/>
                </g>
                <g transform="matrix(1,0,0,1,1305.35,31.2259)">
                    <circle cx="-666.11" cy="562.179" r="377.22" style="fill:rgb(119,146,77);"/>
                </g>
                <g transform="matrix(1,0,0,1,1847.87,-72.561)">
                    <circle cx="-666.11" cy="562.179" r="377.22" style="fill:rgb(119,146,77);"/>
                </g>
                <g transform="matrix(1,0,0,1,2687.6,-20.6675)">
                    <circle cx="-666.11" cy="562.179" r="377.22" style="fill:rgb(119,146,77);"/>
                </g>
                <g transform="matrix(1,0,0,1,2951.79,597.336)">
                    <circle cx="-666.11" cy="562.179" r="377.22" style="fill:rgb(119,146,77);"/>
                </g>
                <g transform="matrix(1,0,0,1,2843.28,342.587)">
                    <circle cx="-666.11" cy="562.179" r="377.22" style="fill:rgb(119,146,77);"/>
                </g>
                <g transform="matrix(1.15719,0,0,1.15719,2362.89,173.041)">
                    <circle cx="-666.11" cy="562.179" r="377.22" style="fill:rgb(119,146,77);"/>
                </g>
                <g transform="matrix(1,0,0,1,2843.73,214.912)">
                    <circle cx="-666.11" cy="562.179" r="377.22" style="fill:rgb(119,146,77);"/>
                </g>
                <g transform="matrix(1.15719,0,0,1.15719,1996.78,556.048)">
                    <circle cx="-666.11" cy="562.179" r="377.22" style="fill:rgb(119,146,77);"/>
                </g>
                <g transform="matrix(1.15719,0,0,1.15719,2858.55,398.339)">
                    <circle cx="-666.11" cy="562.179" r="377.22" style="fill:rgb(119,146,77);"/>
                </g>
            </g>
        </g>
        <g transform="matrix(0.72636,-0.117196,0.121524,0.753189,2945.02,271.245)">
            <g transform="matrix(1.33566,0,0,1.33566,546.52,1514.29)">
                <path d="M294.222,1472.58C244.216,1469.12 192.192,1470.57 151.358,1454.23C169.414,1438.82 202.969,1414.82 214.608,1379.89C220.603,1361.9 237.677,1355.61 247.558,1341.24C260.443,1322.5 267.8,1294.82 275.19,1273.31C362.231,1019.95 403.186,753.092 447.076,489.749C463.362,392.032 490.122,293.907 498.995,195.319C502.024,161.652 501.671,128.27 500.09,94.547C499.479,81.513 503.931,56.989 497.023,45.475C496.488,44.584 494.941,44.051 495.489,44.599C492.94,8.626 492.5,-19.086 496.512,-28.448C499.325,-35.012 510.878,-31.185 516.009,-31.077C572.35,-29.89 741.447,-70.277 785.46,-40.935C787.234,-39.752 765.649,30.626 765.306,32.016C673.232,404.925 603.94,1053.53 684.471,1426.4C691.308,1458.05 700.277,1489.17 708.787,1520.38C709.249,1522.07 710.321,1527.17 710.321,1525.42C710.321,1497.95 540.655,1509.88 512.066,1513.37C501.918,1514.61 477.727,1516.82 448.832,1518.68C424.018,1516.32 397.927,1495.95 374.688,1487.26C350.1,1478.07 322.483,1474.54 294.222,1472.58" style="fill:rgb(152,109,75);"/>
            </g>
            <g transform="matrix(1,0,0,1,-7.63872,2.23424)">
                <path d="M1201.33,2300.24C1197.74,2306.77 1194.41,2313.09 1189.23,2318.27C1185.53,2321.97 1187.3,2337.74 1187.3,2343.39C1184.21,2361.43 1181.59,2376.41 1175.68,2382.33C1172.59,2385.42 1172.25,2410.88 1166.02,2417.11C1158.87,2424.26 1161.48,2468.02 1152.49,2477.02C1149.34,2480.16 1146.52,2507.87 1142.94,2530.59C1139.6,2530.59 1141.01,2535.43 1141.01,2538.32C1141.01,2551.65 1137.61,2592.05 1131.47,2598.24C1121.5,2608.29 1099.31,2685.28 1099.51,2706.56C1099.62,2718.79 1078.1,2781.04 1086.82,2789.76C1087.12,2790.06 1089.88,2794.42 1090.68,2793.62C1105.88,2778.43 1099.86,2714.88 1110,2704.73C1125.98,2688.76 1127.75,2654.14 1142.85,2639.03C1147.04,2634.85 1140.6,2620.03 1144.79,2615.85C1149.07,2611.56 1202.76,2443.85 1202.76,2432.28C1202.76,2402.61 1225.11,2266.93 1233.67,2258.37C1233.86,2258.18 1239.47,2198.91 1239.47,2194.6L1239.47,2179.14C1239.47,2179.14 1237.54,2188.11 1237.54,2192.67C1237.54,2198.95 1227.83,2246.82 1224.01,2250.64C1217.27,2257.38 1220.17,2275.74 1214.35,2281.55C1208.5,2287.4 1204.8,2293.91 1201.33,2300.24Z" style="fill:rgb(130,94,59);"/>
            </g>
            <g transform="matrix(0.98888,-0.148716,0.148716,0.98888,-226.225,706.355)">
                <path d="M1201.33,2300.24C1197.74,2306.77 1194.41,2313.09 1189.23,2318.27C1185.53,2321.97 1187.3,2337.74 1187.3,2343.39C1184.21,2361.43 1181.59,2376.41 1175.68,2382.33C1172.59,2385.42 1172.25,2410.88 1166.02,2417.11C1158.87,2424.26 1161.48,2468.02 1152.49,2477.02C1149.34,2480.16 1146.52,2507.87 1142.94,2530.59C1139.6,2530.59 1141.01,2535.43 1141.01,2538.32C1141.01,2551.65 1137.61,2592.05 1131.47,2598.24C1121.5,2608.29 1099.31,2685.28 1099.51,2706.56C1099.62,2718.79 1078.1,2781.04 1086.82,2789.76C1087.12,2790.06 1089.88,2794.42 1090.68,2793.62C1105.88,2778.43 1099.86,2714.88 1110,2704.73C1125.98,2688.76 1127.75,2654.14 1142.85,2639.03C1147.04,2634.85 1140.6,2620.03 1144.79,2615.85C1149.07,2611.56 1202.76,2443.85 1202.76,2432.28C1202.76,2402.61 1225.11,2266.93 1233.67,2258.37C1233.86,2258.18 1239.47,2198.91 1239.47,2194.6L1239.47,2179.14C1239.47,2179.14 1237.54,2188.11 1237.54,2192.67C1237.54,2198.95 1227.83,2246.82 1224.01,2250.64C1217.27,2257.38 1220.17,2275.74 1214.35,2281.55C1208.5,2287.4 1204.8,2293.91 1201.33,2300.24Z" style="fill:rgb(130,94,59);"/>
            </g>
            <g transform="matrix(1,0,0,1,216.42,-477.284)">
                <path d="M1201.33,2300.24C1197.74,2306.77 1194.41,2313.09 1189.23,2318.27C1185.53,2321.97 1187.3,2337.74 1187.3,2343.39C1184.21,2361.43 1181.59,2376.41 1175.68,2382.33C1172.59,2385.42 1172.25,2410.88 1166.02,2417.11C1158.87,2424.26 1161.48,2468.02 1152.49,2477.02C1149.34,2480.16 1146.52,2507.87 1142.94,2530.59C1139.6,2530.59 1141.01,2535.43 1141.01,2538.32C1141.01,2551.65 1137.61,2592.05 1131.47,2598.24C1121.5,2608.29 1099.31,2685.28 1099.51,2706.56C1099.62,2718.79 1078.1,2781.04 1086.82,2789.76C1087.12,2790.06 1089.88,2794.42 1090.68,2793.62C1105.88,2778.43 1099.86,2714.88 1110,2704.73C1125.98,2688.76 1127.75,2654.14 1142.85,2639.03C1147.04,2634.85 1140.6,2620.03 1144.79,2615.85C1149.07,2611.56 1202.76,2443.85 1202.76,2432.28C1202.76,2402.61 1225.11,2266.93 1233.67,2258.37C1233.86,2258.18 1239.47,2198.91 1239.47,2194.6L1239.47,2179.14C1239.47,2179.14 1237.54,2188.11 1237.54,2192.67C1237.54,2198.95 1227.83,2246.82 1224.01,2250.64C1217.27,2257.38 1220.17,2275.74 1214.35,2281.55C1208.5,2287.4 1204.8,2293.91 1201.33,2300.24Z" style="fill:rgb(130,94,59);"/>
            </g>
            <g transform="matrix(0.988778,0,0,1.05497,18.0902,82.2759)">
                <g transform="matrix(1.15719,0,0,1.15719,1698.26,741.919)">
                    <circle cx="-666.11" cy="562.179" r="377.22" style="fill:rgb(80,103,47);"/>
                </g>
                <g transform="matrix(1.15719,0,0,1.15719,2396.68,719.389)">
                    <circle cx="-666.11" cy="562.179" r="377.22" style="fill:rgb(80,103,47);"/>
                </g>
                <g transform="matrix(1.15719,0,0,1.15719,2847.28,848.936)">
                    <circle cx="-666.11" cy="562.179" r="377.22" style="fill:rgb(80,103,47);"/>
                </g>
                <g transform="matrix(1,0,0,1,1602.56,224.647)">
                    <circle cx="-666.11" cy="562.179" r="377.22" style="fill:rgb(80,103,47);"/>
                </g>
                <g transform="matrix(1,0,0,1,1078.9,422.786)">
                    <circle cx="-666.11" cy="562.179" r="377.22" style="fill:rgb(80,103,47);"/>
                </g>
                <g transform="matrix(1,0,0,1,1305.35,31.2259)">
                    <circle cx="-666.11" cy="562.179" r="377.22" style="fill:rgb(80,103,47);"/>
                </g>
                <g transform="matrix(1,0,0,1,1847.87,-72.561)">
                    <circle cx="-666.11" cy="562.179" r="377.22" style="fill:rgb(80,103,47);"/>
                </g>
                <g transform="matrix(1,0,0,1,2687.6,-20.6675)">
                    <circle cx="-666.11" cy="562.179" r="377.22" style="fill:rgb(80,103,47);"/>
                </g>
                <g transform="matrix(1,0,0,1,2951.79,597.336)">
                    <circle cx="-666.11" cy="562.179" r="377.22" style="fill:rgb(80,103,47);"/>
                </g>
                <g transform="matrix(1,0,0,1,2843.28,342.587)">
                    <circle cx="-666.11" cy="562.179" r="377.22" style="fill:rgb(80,103,47);"/>
                </g>
                <g transform="matrix(1.15719,0,0,1.15719,2362.89,173.041)">
                    <circle cx="-666.11" cy="562.179" r="377.22" style="fill:rgb(80,103,47);"/>
                </g>
                <g transform="matrix(1,0,0,1,2843.73,214.912)">
                    <circle cx="-666.11" cy="562.179" r="377.22" style="fill:rgb(80,103,47);"/>
                </g>
                <g transform="matrix(1.15719,0,0,1.15719,1996.78,556.048)">
                    <circle cx="-666.11" cy="562.179" r="377.22" style="fill:rgb(80,103,47);"/>
                </g>
                <g transform="matrix(1.15719,0,0,1.15719,2858.55,398.339)">
                    <circle cx="-666.11" cy="562.179" r="377.22" style="fill:rgb(80,103,47);"/>
                </g>
            </g>
            <g>
                <g transform="matrix(1.15719,0,0,1.15719,1698.26,741.919)">
                    <circle cx="-666.11" cy="562.179" r="377.22" style="fill:rgb(119,146,77);"/>
                </g>
                <g transform="matrix(1.15719,0,0,1.15719,2396.68,719.389)">
                    <circle cx="-666.11" cy="562.179" r="377.22" style="fill:rgb(119,146,77);"/>
                </g>
                <g transform="matrix(1.15719,0,0,1.15719,2847.28,848.936)">
                    <circle cx="-666.11" cy="562.179" r="377.22" style="fill:rgb(119,146,77);"/>
                </g>
                <g transform="matrix(1,0,0,1,1602.56,224.647)">
                    <circle cx="-666.11" cy="562.179" r="377.22" style="fill:rgb(119,146,77);"/>
                </g>
                <g transform="matrix(1,0,0,1,1078.9,422.786)">
                    <circle cx="-666.11" cy="562.179" r="377.22" style="fill:rgb(119,146,77);"/>
                </g>
                <g transform="matrix(1,0,0,1,1305.35,31.2259)">
                    <circle cx="-666.11" cy="562.179" r="377.22" style="fill:rgb(119,146,77);"/>
                </g>
                <g transform="matrix(1,0,0,1,1847.87,-72.561)">
                    <circle cx="-666.11" cy="562.179" r="377.22" style="fill:rgb(119,146,77);"/>
                </g>
                <g transform="matrix(1,0,0,1,2687.6,-20.6675)">
                    <circle cx="-666.11" cy="562.179" r="377.22" style="fill:rgb(119,146,77);"/>
                </g>
                <g transform="matrix(1,0,0,1,2951.79,597.336)">
                    <circle cx="-666.11" cy="562.179" r="377.22" style="fill:rgb(119,146,77);"/>
                </g>
                <g transform="matrix(1,0,0,1,2843.28,342.587)">
                    <circle cx="-666.11" cy="562.179" r="377.22" style="fill:rgb(119,146,77);"/>
                </g>
                <g transform="matrix(1.15719,0,0,1.15719,2362.89,173.041)">
                    <circle cx="-666.11" cy="562.179" r="377.22" style="fill:rgb(119,146,77);"/>
                </g>
                <g transform="matrix(1,0,0,1,2843.73,214.912)">
                    <circle cx="-666.11" cy="562.179" r="377.22" style="fill:rgb(119,146,77);"/>
                </g>
                <g transform="matrix(1.15719,0,0,1.15719,1996.78,556.048)">
                    <circle cx="-666.11" cy="562.179" r="377.22" style="fill:rgb(119,146,77);"/>
                </g>
                <g transform="matrix(1.15719,0,0,1.15719,2858.55,398.339)">
                    <circle cx="-666.11" cy="562.179" r="377.22" style="fill:rgb(119,146,77);"/>
                </g>
            </g>
        </g>
    </g>
</svg>
