<?xml version="1.0" encoding="UTF-8" standalone="no"?>
<!DOCTYPE svg PUBLIC "-//W3C//DTD SVG 1.1//EN" "http://www.w3.org/Graphics/SVG/1.1/DTD/svg11.dtd">
<svg width="100%" height="100%" viewBox="0 0 5334 3000" version="1.1" xmlns="http://www.w3.org/2000/svg" xmlns:xlink="http://www.w3.org/1999/xlink" xml:space="preserve" xmlns:serif="http://www.serif.com/" style="fill-rule:evenodd;clip-rule:evenodd;stroke-linejoin:round;stroke-miterlimit:2;">
    <g id="back3">
        <g transform="matrix(1.64319,0,0,0.781003,610.781,499.995)">
            <path d="M79.063,2271.61C-35.374,2278.84 -173.037,2298.14 -249.489,2286.28C-357.577,2301.9 -479.33,2329.01 -536.662,2208.39C-545.801,2189.16 -548.613,2156.62 -557.752,2137.39C-558.868,2135.04 -557.752,2114.42 -557.752,2110.77C-557.752,1985.56 -553.534,1863.36 -553.534,1729.17C-553.534,1684.01 -558.814,1454.06 -545.098,1454.06C-545.877,1379.74 -550.157,1304.71 -522.449,1278.46C-501.752,1258.86 -477.047,1298.45 -455.732,1284.31C-430.285,1267.43 -404.076,1221.69 -376.719,1219.74C-257.147,1211.23 -256.772,1384.7 -139.58,1272.37C-136.164,1269.1 -137.628,1263.73 -130.531,1263.73C-115.867,1263.72 -106.325,1250.86 -99.299,1244.16C-45.509,1192.92 13.589,1171.14 54.685,1131.99C76.566,1111.15 93.232,1086.64 113.561,1067.28C119.6,1061.52 134.696,1064.4 140.735,1058.65C174.967,1026.04 224.306,1004.92 258.487,972.358C259.865,971.046 275.292,984.052 276.603,985.301C280.27,988.794 307.074,985.301 312.835,985.301L330.951,985.301C334.369,985.301 338.188,982.721 340.008,980.987C386.983,936.238 673.268,939.636 688.737,924.9C704.948,909.457 889.319,828.449 928.771,847.241C934.317,849.882 929.62,852.364 933.3,855.87C967.235,888.196 974.529,968.49 1010.29,1002.56C1026.26,1017.77 1033.41,1041.84 1051.05,1058.65C1069.92,1076.62 1095.59,1088.13 1114.46,1106.11C1123.52,1114.73 1150.69,1106.11 1159.75,1114.73C1201.51,1154.51 1384.63,1162.19 1472.25,1162.19C1492.13,1162.19 1542.01,1146.68 1558.3,1162.19C1571.68,1174.95 1579.2,1190.74 1594.53,1205.34C1617.76,1227.47 1658.6,1231.86 1685.11,1257.11C1725.82,1295.9 1759.87,1354.22 1798.33,1390.86C1824.8,1416.07 1858.51,1426.62 1884.38,1451.26C1939.81,1504.06 1996.79,1590 2078.73,1602.59C2138.27,1611.75 2185.35,1577.14 2240.74,1577.72C2242.22,1577.73 2243.77,1577.9 2244.92,1578.92C2330.46,1654.86 2372.83,1773.42 2433.65,1866.36C2455.32,1899.47 2493.03,1929.55 2509.82,1964.15C2534.48,2014.95 2525.93,2073.18 2568.08,2117.15C2597.25,2147.58 2631.47,2200.51 2631.47,2250.64C2402.05,2267.66 680.155,2255.51 201.831,2251.78C201.831,2261.19 166.811,2269.25 159.651,2269.14C135.152,2268.74 107.842,2269.79 79.063,2271.61Z" style="fill:rgb(112,207,225);"/>
        </g>
        <g transform="matrix(0.770056,0,0,0.364745,1486.37,1365.23)">
            <path d="M78.9,2250.78C78.9,2250.78 -1005.99,2281.03 -967.361,2269.98C-893.514,2248.86 -145.644,968.35 116.541,873.067C282.218,812.857 469.48,794.255 781.559,836.211C944.515,858.118 1025.01,907.941 1179.34,963.94C1245.55,987.964 1319.55,1004.4 1380.88,1039.74C1490.39,1102.82 1581.65,1191.77 1696.99,1245.88C1816.18,1301.8 2536.85,2189.6 2655.81,2245.58C2715.03,2273.45 78.9,2250.78 78.9,2250.78Z" style="fill:rgb(122,198,152);fill-opacity:0.51;"/>
        </g>
        <path d="M3415.05,1545.41C3454.98,1585.34 3580.5,1620.76 3595.26,1635.51C3626.47,1666.72 3866.12,1808.23 3934.87,1739.48C3944.11,1730.24 3981.08,1748.72 3990.32,1739.48C4021.96,1707.84 4052.82,1683.91 4080.42,1656.31C4097.75,1638.98 4167.06,1673.63 4184.39,1656.31C4232.14,1608.56 4345.82,1571.11 4385.39,1531.55C4438.46,1478.47 4588.14,1696.14 4634.9,1649.37C4645.12,1639.15 4647.2,1616.28 4655.69,1607.79C4678.79,1584.69 4758.15,1560.78 4794.31,1524.62L4808.17,1524.62C4836.79,1524.62 4985.93,1466.72 5002.24,1483.03C5012.71,1493.5 5058.93,1531.55 5078.48,1531.55C5082.26,1531.55 5097.38,1547.31 5106.21,1538.48C5131.63,1513.06 5146.38,1491.37 5168.58,1469.17C5177.93,1459.83 5182.07,1220.03 5203.24,1198.86C5228.8,1173.3 5305.11,1221.75 5355.72,1171.14C5362.65,1164.21 5383.44,1171.14 5390.38,1164.21C5391.78,1162.8 5407.92,1147.1 5411.17,1150.35C5482.19,1221.37 5420.45,1515.46 5459.69,1593.93C5498.59,1671.74 5448.62,1807.44 5480.48,1871.16C5509.89,1929.99 5489.61,2102.09 5522.06,2134.54C5523.14,2135.62 5537.7,2146.63 5528.99,2155.34C5527.36,2156.97 5524.37,2155.34 5522.06,2155.34C5450.45,2155.34 5383.28,2186.61 5321.07,2217.71C5257.65,2249.42 5182.01,2268.69 5106.21,2293.95C5073.83,2304.74 5032.1,2292.89 5002.24,2307.82C4961.18,2328.35 4894.25,2306.85 4849.76,2321.68C4801.92,2337.63 4739.43,2309.41 4690.35,2321.68C4423.7,2388.34 4101.52,2358.14 3844.77,2293.95C3771.73,2275.69 3675.82,2299.58 3609.12,2266.23C3544.59,2233.97 3437.98,2284.63 3373.46,2252.37C3322.92,2227.1 3224.38,2217.71 3165.53,2217.71" style="fill:rgb(114,205,223);"/>
        <g transform="matrix(0.630564,0,0,0.367786,3227.64,1518.01)">
            <path d="M78.9,2250.78C78.9,2250.78 -1005.99,2281.03 -967.361,2269.98C-893.514,2248.86 -145.644,968.35 116.541,873.067C282.218,812.857 469.48,794.255 781.559,836.211C944.515,858.118 1025.01,907.941 1179.34,963.94C1245.55,987.964 1319.55,1004.4 1380.88,1039.74C1490.39,1102.82 1581.65,1191.77 1696.99,1245.88C1816.18,1301.8 2536.85,2189.6 2655.81,2245.58C2715.03,2273.45 78.9,2250.78 78.9,2250.78Z" style="fill:rgb(122,198,152);fill-opacity:0.51;"/>
        </g>
    </g>
</svg>
